<?xml version="1.0" standalone="no"?>
 <!DOCTYPE svg PUBLIC "-//W3C//DTD SVG 1.1//EN" 
 "http://www.w3.org/Graphics/SVG/1.1/DTD/svg11.dtd"> 
<svg xmlns="http://www.w3.org/2000/svg" version="1.1" 
    width="5.80136cm" height="4.43484cm" viewBox="0 0 22840 17460 ">
<title>SVG Picture created as fly_led-B.Paste.svg date 2017/03/24 21:05:44 </title>
  <desc>Picture generated by PCBNEW </desc>
<g style="fill:#000000; fill-opacity:1;stroke:#000000; stroke-opacity:1;
stroke-linecap:round; stroke-linejoin:round; "
 transform="translate(0 0) scale(1 1)">
</g>
<g style="fill:#008400; fill-opacity:0.0; 
stroke:#008400; stroke-width:-0.000393701; stroke-opacity:1; 
stroke-linecap:round; stroke-linejoin:round;">
</g>
<g style="fill:#008400; fill-opacity:0.0; 
stroke:#008400; stroke-width:0; stroke-opacity:1; 
stroke-linecap:round; stroke-linejoin:round;">
</g>
<g style="fill:#008400; fill-opacity:1.0; 
stroke:#008400; stroke-width:0; stroke-opacity:1; 
stroke-linecap:round; stroke-linejoin:round;">
<polyline style="fill-rule:evenodd;"
points="11708,13674
11412,13674
11412,13988
11708,13988
11708,13674
" /> 
<polyline style="fill-rule:evenodd;"
points="11708,14264
11412,14264
11412,14579
11708,14579
11708,14264
" /> 
<polyline style="fill-rule:evenodd;"
points="12913,11074
12913,10779
12598,10779
12598,11074
12913,11074
" /> 
<polyline style="fill-rule:evenodd;"
points="12322,11074
12322,10779
12007,10779
12007,11074
12322,11074
" /> 
<polyline style="fill-rule:evenodd;"
points="9913,13074
9913,12779
9598,12779
9598,13074
9913,13074
" /> 
<polyline style="fill-rule:evenodd;"
points="9322,13074
9322,12779
9007,12779
9007,13074
9322,13074
" /> 
<polyline style="fill-rule:evenodd;"
points="14807,8179
14807,8474
15122,8474
15122,8179
14807,8179
" /> 
<polyline style="fill-rule:evenodd;"
points="15398,8179
15398,8474
15713,8474
15713,8179
15398,8179
" /> 
<polyline style="fill-rule:evenodd;"
points="7507,9279
7507,9574
7822,9574
7822,9279
7507,9279
" /> 
<polyline style="fill-rule:evenodd;"
points="8098,9279
8098,9574
8413,9574
8413,9279
8098,9279
" /> 
<polyline style="fill-rule:evenodd;"
points="7507,10279
7507,10574
7822,10574
7822,10279
7507,10279
" /> 
<polyline style="fill-rule:evenodd;"
points="8098,10279
8098,10574
8413,10574
8413,10279
8098,10279
" /> 
<polyline style="fill-rule:evenodd;"
points="7507,8279
7507,8574
7822,8574
7822,8279
7507,8279
" /> 
<polyline style="fill-rule:evenodd;"
points="8098,8279
8098,8574
8413,8574
8413,8279
8098,8279
" /> 
<polyline style="fill-rule:evenodd;"
points="8813,12474
8813,12179
8498,12179
8498,12474
8813,12474
" /> 
<polyline style="fill-rule:evenodd;"
points="8222,12474
8222,12179
7907,12179
7907,12474
8222,12474
" /> 
<polyline style="fill-rule:evenodd;"
points="9107,10879
9107,11174
9422,11174
9422,10879
9107,10879
" /> 
<polyline style="fill-rule:evenodd;"
points="9698,10879
9698,11174
10013,11174
10013,10879
9698,10879
" /> 
<polyline style="fill-rule:evenodd;"
points="18513,7474
18513,7179
18198,7179
18198,7474
18513,7474
" /> 
<polyline style="fill-rule:evenodd;"
points="17922,7474
17922,7179
17607,7179
17607,7474
17922,7474
" /> 
<polyline style="fill-rule:evenodd;"
points="8618,13524
8618,13780
9036,13780
9036,13524
8618,13524
" /> 
<polyline style="fill-rule:evenodd;"
points="8618,13898
8618,14154
9036,14154
9036,13898
8618,13898
" /> 
<polyline style="fill-rule:evenodd;"
points="8618,14272
8618,14528
9036,14528
9036,14272
8618,14272
" /> 
<polyline style="fill-rule:evenodd;"
points="9484,14272
9484,14528
9902,14528
9902,14272
9484,14272
" /> 
<polyline style="fill-rule:evenodd;"
points="9484,13524
9484,13780
9902,13780
9902,13524
9484,13524
" /> 
<polyline style="fill-rule:evenodd;"
points="9484,13898
9484,14154
9902,14154
9902,13898
9484,13898
" /> 
<polyline style="fill-rule:evenodd;"
points="11989,13545
11989,13860
12343,13860
12343,13545
11989,13545
" /> 
<polyline style="fill-rule:evenodd;"
points="11989,14293
11989,14608
12343,14608
12343,14293
11989,14293
" /> 
<polyline style="fill-rule:evenodd;"
points="12776,13919
12776,14234
13131,14234
13131,13919
12776,13919
" /> 
<polyline style="fill-rule:evenodd;"
points="11054,5103
11054,4749
10857,4749
10857,5103
11054,5103
" /> 
<polyline style="fill-rule:evenodd;"
points="10463,5103
10463,4749
10266,4749
10266,5103
10463,5103
" /> 
<polyline style="fill-rule:evenodd;"
points="10266,6174
10266,6528
10463,6528
10463,6174
10266,6174
" /> 
<polyline style="fill-rule:evenodd;"
points="10857,6174
10857,6528
11054,6528
11054,6174
10857,6174
" /> 
<polyline style="fill-rule:evenodd;"
points="14437,6533
14083,6533
14083,6729
14437,6729
14437,6533
" /> 
<polyline style="fill-rule:evenodd;"
points="14437,7123
14083,7123
14083,7320
14437,7320
14437,7123
" /> 
<polyline style="fill-rule:evenodd;"
points="10266,6849
10266,7203
10463,7203
10463,6849
10266,6849
" /> 
<polyline style="fill-rule:evenodd;"
points="10857,6849
10857,7203
11054,7203
11054,6849
10857,6849
" /> 
<polyline style="fill-rule:evenodd;"
points="13737,6533
13383,6533
13383,6729
13737,6729
13737,6533
" /> 
<polyline style="fill-rule:evenodd;"
points="13737,7123
13383,7123
13383,7320
13737,7320
13737,7123
" /> 
<polyline style="fill-rule:evenodd;"
points="12254,13203
12254,12849
12057,12849
12057,13203
12254,13203
" /> 
<polyline style="fill-rule:evenodd;"
points="11663,13203
11663,12849
11466,12849
11466,13203
11663,13203
" /> 
<polyline style="fill-rule:evenodd;"
points="11054,9203
11054,8849
10857,8849
10857,9203
11054,9203
" /> 
<polyline style="fill-rule:evenodd;"
points="10463,9203
10463,8849
10266,8849
10266,9203
10463,9203
" /> 
<polyline style="fill-rule:evenodd;"
points="11054,10203
11054,9849
10857,9849
10857,10203
11054,10203
" /> 
<polyline style="fill-rule:evenodd;"
points="10463,10203
10463,9849
10266,9849
10266,10203
10463,10203
" /> 
<polyline style="fill-rule:evenodd;"
points="7966,12799
7966,13153
8163,13153
8163,12799
7966,12799
" /> 
<polyline style="fill-rule:evenodd;"
points="8557,12799
8557,13153
8754,13153
8754,12799
8557,12799
" /> 
<polyline style="fill-rule:evenodd;"
points="7883,14245
8237,14245
8237,14048
7883,14048
7883,14245
" /> 
<polyline style="fill-rule:evenodd;"
points="7883,13654
8237,13654
8237,13458
7883,13458
7883,13654
" /> 
<polyline style="fill-rule:evenodd;"
points="16566,8749
16566,9103
16763,9103
16763,8749
16566,8749
" /> 
<polyline style="fill-rule:evenodd;"
points="17157,8749
17157,9103
17354,9103
17354,8749
17157,8749
" /> 
<polyline style="fill-rule:evenodd;"
points="16966,10549
16966,10903
17163,10903
17163,10549
16966,10549
" /> 
<polyline style="fill-rule:evenodd;"
points="17557,10549
17557,10903
17754,10903
17754,10549
17557,10549
" /> 
<polyline style="fill-rule:evenodd;"
points="15966,9849
15966,10203
16163,10203
16163,9849
15966,9849
" /> 
<polyline style="fill-rule:evenodd;"
points="16557,9849
16557,10203
16754,10203
16754,9849
16557,9849
" /> 
<polyline style="fill-rule:evenodd;"
points="13979,11103
13979,10749
13782,10749
13782,11103
13979,11103
" /> 
<polyline style="fill-rule:evenodd;"
points="13388,11103
13388,10749
13191,10749
13191,11103
13388,11103
" /> 
<polyline style="fill-rule:evenodd;"
points="15966,10549
15966,10903
16163,10903
16163,10549
15966,10549
" /> 
<polyline style="fill-rule:evenodd;"
points="16557,10549
16557,10903
16754,10903
16754,10549
16557,10549
" /> 
<polyline style="fill-rule:evenodd;"
points="16566,7149
16566,7503
16763,7503
16763,7149
16566,7149
" /> 
<polyline style="fill-rule:evenodd;"
points="17157,7149
17157,7503
17354,7503
17354,7149
17157,7149
" /> 
<polyline style="fill-rule:evenodd;"
points="14758,7092
14758,7249
15014,7249
15014,7092
14758,7092
" /> 
<polyline style="fill-rule:evenodd;"
points="14758,7603
14758,7761
15014,7761
15014,7603
14758,7603
" /> 
<polyline style="fill-rule:evenodd;"
points="15506,7348
15506,7505
15762,7505
15762,7348
15506,7348
" /> 
<polyline style="fill-rule:evenodd;"
points="14758,7348
14758,7505
15014,7505
15014,7348
14758,7348
" /> 
<polyline style="fill-rule:evenodd;"
points="15506,7603
15506,7761
15762,7761
15762,7603
15506,7603
" /> 
<polyline style="fill-rule:evenodd;"
points="15506,7092
15506,7249
15762,7249
15762,7092
15506,7092
" /> 
<polyline style="fill-rule:evenodd;"
points="12962,10361
12962,10203
12706,10203
12706,10361
12962,10361
" /> 
<polyline style="fill-rule:evenodd;"
points="12962,9849
12962,9692
12706,9692
12706,9849
12962,9849
" /> 
<polyline style="fill-rule:evenodd;"
points="12214,10105
12214,9948
11958,9948
11958,10105
12214,10105
" /> 
<polyline style="fill-rule:evenodd;"
points="12962,10105
12962,9948
12706,9948
12706,10105
12962,10105
" /> 
<polyline style="fill-rule:evenodd;"
points="12214,9849
12214,9692
11958,9692
11958,9849
12214,9849
" /> 
<polyline style="fill-rule:evenodd;"
points="12214,10361
12214,10203
11958,10203
11958,10361
12214,10361
" /> 
<polyline style="fill-rule:evenodd;"
points="14431,12958
14431,12643
14076,12643
14076,12958
14431,12958
" /> 
<polyline style="fill-rule:evenodd;"
points="14431,12210
14431,11895
14076,11895
14076,12210
14431,12210
" /> 
<polyline style="fill-rule:evenodd;"
points="13643,12584
13643,12269
13289,12269
13289,12584
13643,12584
" /> 
<polyline style="fill-rule:evenodd;"
points="12913,9274
12913,8979
12598,8979
12598,9274
12913,9274
" /> 
<polyline style="fill-rule:evenodd;"
points="12322,9274
12322,8979
12007,8979
12007,9274
12322,9274
" /> 
<polyline style="fill-rule:evenodd;"
points="12962,8561
12962,8403
12706,8403
12706,8561
12962,8561
" /> 
<polyline style="fill-rule:evenodd;"
points="12962,8049
12962,7892
12706,7892
12706,8049
12962,8049
" /> 
<polyline style="fill-rule:evenodd;"
points="12214,8305
12214,8148
11958,8148
11958,8305
12214,8305
" /> 
<polyline style="fill-rule:evenodd;"
points="12962,8305
12962,8148
12706,8148
12706,8305
12962,8305
" /> 
<polyline style="fill-rule:evenodd;"
points="12214,8049
12214,7892
11958,7892
11958,8049
12214,8049
" /> 
<polyline style="fill-rule:evenodd;"
points="12214,8561
12214,8403
11958,8403
11958,8561
12214,8561
" /> 
<polyline style="fill-rule:evenodd;"
points="11152,13039
10168,13039
10168,13433
11152,13433
11152,13039
" /> 
<polyline style="fill-rule:evenodd;"
points="11152,14220
10168,14220
10168,14614
11152,14614
11152,14220
" /> 
<polyline style="fill-rule:evenodd;"
points="8847,11818
8847,10834
8454,10834
8454,11818
8847,11818
" /> 
<polyline style="fill-rule:evenodd;"
points="7666,11818
7666,10834
7273,10834
7273,11818
7666,11818
" /> 
<polyline style="fill-rule:evenodd;"
points="15752,11839
14768,11839
14768,12233
15752,12233
15752,11839
" /> 
<polyline style="fill-rule:evenodd;"
points="15752,13020
14768,13020
14768,13414
15752,13414
15752,13020
" /> 
</g> 
</svg>
