<?xml version="1.0" standalone="no"?>
 <!DOCTYPE svg PUBLIC "-//W3C//DTD SVG 1.1//EN" 
 "http://www.w3.org/Graphics/SVG/1.1/DTD/svg11.dtd"> 
<svg xmlns="http://www.w3.org/2000/svg" version="1.1" 
    width="5.80136cm" height="4.43484cm" viewBox="0 0 22840 17460 ">
<title>SVG Picture created as fly_led-B.Fab.svg date 2017/03/24 21:05:44 </title>
  <desc>Picture generated by PCBNEW </desc>
<g style="fill:#000000; fill-opacity:1;stroke:#000000; stroke-opacity:1;
stroke-linecap:round; stroke-linejoin:round; "
 transform="translate(0 0) scale(1 1)">
</g>
<g style="fill:#840000; fill-opacity:0.0; 
stroke:#840000; stroke-width:-0.000393701; stroke-opacity:1; 
stroke-linecap:round; stroke-linejoin:round;">
</g>
<g style="fill:#840000; fill-opacity:0.0; 
stroke:#840000; stroke-width:59.0551; stroke-opacity:1; 
stroke-linecap:round; stroke-linejoin:round;">
<path d="M10634 13489
L10634 13264
" />
<path d="M10634 13376
L11028 13376
L10971 13339
L10934 13301
L10915 13264
" />
<path d="M11028 13733
L11028 13770
L11009 13808
L10990 13826
L10953 13845
L10878 13864
L10784 13864
L10709 13845
L10671 13826
L10653 13808
L10634 13770
L10634 13733
L10653 13695
L10671 13676
L10709 13658
L10784 13639
L10878 13639
L10953 13658
L10990 13676
L11009 13695
L11028 13733
" />
<path d="M11028 14108
L11028 14145
L11009 14183
L10990 14201
L10953 14220
L10878 14239
L10784 14239
L10709 14220
L10671 14201
L10653 14183
L10634 14145
L10634 14108
L10653 14070
L10671 14051
L10709 14033
L10784 14014
L10878 14014
L10953 14033
L10990 14051
L11009 14070
L11028 14108
" />
<path d="M10634 14407
L11028 14407
L10634 14632
L11028 14632
" />
<path d="M10840 14951
L10840 14820
" />
<path d="M10634 14820
L11028 14820
L11028 15007
" />
<path d="M11823 10356
L11598 10356
" />
<path d="M11710 10356
L11710 9963
L11673 10019
L11635 10056
L11598 10075
" />
<path d="M12066 9963
L12104 9963
L12141 9981
L12160 10000
L12179 10038
L12197 10113
L12197 10206
L12179 10281
L12160 10319
L12141 10338
L12104 10356
L12066 10356
L12029 10338
L12010 10319
L11991 10281
L11973 10206
L11973 10113
L11991 10038
L12010 10000
L12029 9981
L12066 9963
" />
<path d="M12441 9963
L12479 9963
L12516 9981
L12535 10000
L12554 10038
L12572 10113
L12572 10206
L12554 10281
L12535 10319
L12516 10338
L12479 10356
L12441 10356
L12404 10338
L12385 10319
L12366 10281
L12347 10206
L12347 10113
L12366 10038
L12385 10000
L12404 9981
L12441 9963
" />
<path d="M12741 10356
L12741 9963
L12966 10356
L12966 9963
" />
<path d="M13285 10150
L13154 10150
" />
<path d="M13154 10356
L13154 9963
L13341 9963
" />
<path d="M8823 12356
L8598 12356
" />
<path d="M8710 12356
L8710 11963
L8673 12019
L8635 12056
L8598 12075
" />
<path d="M9066 11963
L9104 11963
L9141 11981
L9160 12000
L9179 12038
L9197 12113
L9197 12206
L9179 12281
L9160 12319
L9141 12338
L9104 12356
L9066 12356
L9029 12338
L9010 12319
L8991 12281
L8973 12206
L8973 12113
L8991 12038
L9010 12000
L9029 11981
L9066 11963
" />
<path d="M9441 11963
L9479 11963
L9516 11981
L9535 12000
L9554 12038
L9572 12113
L9572 12206
L9554 12281
L9535 12319
L9516 12338
L9479 12356
L9441 12356
L9404 12338
L9385 12319
L9366 12281
L9347 12206
L9347 12113
L9366 12038
L9385 12000
L9404 11981
L9441 11963
" />
<path d="M9741 12356
L9741 11963
L9966 12356
L9966 11963
" />
<path d="M10285 12150
L10154 12150
" />
<path d="M10154 12356
L10154 11963
L10341 11963
" />
<path d="M14623 9252
L14398 9252
" />
<path d="M14510 9252
L14510 8859
L14473 8915
L14435 8952
L14398 8971
" />
<path d="M14866 8859
L14904 8859
L14941 8877
L14960 8896
L14979 8934
L14997 9009
L14997 9102
L14979 9177
L14960 9215
L14941 9234
L14904 9252
L14866 9252
L14829 9234
L14810 9215
L14791 9177
L14773 9102
L14773 9009
L14791 8934
L14810 8896
L14829 8877
L14866 8859
" />
<path d="M15241 8859
L15279 8859
L15316 8877
L15335 8896
L15354 8934
L15372 9009
L15372 9102
L15354 9177
L15335 9215
L15316 9234
L15279 9252
L15241 9252
L15204 9234
L15185 9215
L15166 9177
L15147 9102
L15147 9009
L15166 8934
L15185 8896
L15204 8877
L15241 8859
" />
<path d="M15541 9252
L15541 8859
L15766 9252
L15766 8859
" />
<path d="M16085 9046
L15954 9046
" />
<path d="M15954 9252
L15954 8859
L16141 8859
" />
<path d="M7323 10352
L7098 10352
" />
<path d="M7210 10352
L7210 9959
L7173 10015
L7135 10052
L7098 10071
" />
<path d="M7566 9959
L7604 9959
L7641 9977
L7660 9996
L7679 10034
L7697 10109
L7697 10202
L7679 10277
L7660 10315
L7641 10334
L7604 10352
L7566 10352
L7529 10334
L7510 10315
L7491 10277
L7473 10202
L7473 10109
L7491 10034
L7510 9996
L7529 9977
L7566 9959
" />
<path d="M7941 9959
L7979 9959
L8016 9977
L8035 9996
L8054 10034
L8072 10109
L8072 10202
L8054 10277
L8035 10315
L8016 10334
L7979 10352
L7941 10352
L7904 10334
L7885 10315
L7866 10277
L7847 10202
L7847 10109
L7866 10034
L7885 9996
L7904 9977
L7941 9959
" />
<path d="M8241 10352
L8241 9959
L8466 10352
L8466 9959
" />
<path d="M8785 10146
L8654 10146
" />
<path d="M8654 10352
L8654 9959
L8841 9959
" />
<path d="M7323 11352
L7098 11352
" />
<path d="M7210 11352
L7210 10959
L7173 11015
L7135 11052
L7098 11071
" />
<path d="M7566 10959
L7604 10959
L7641 10977
L7660 10996
L7679 11034
L7697 11109
L7697 11202
L7679 11277
L7660 11315
L7641 11334
L7604 11352
L7566 11352
L7529 11334
L7510 11315
L7491 11277
L7473 11202
L7473 11109
L7491 11034
L7510 10996
L7529 10977
L7566 10959
" />
<path d="M7941 10959
L7979 10959
L8016 10977
L8035 10996
L8054 11034
L8072 11109
L8072 11202
L8054 11277
L8035 11315
L8016 11334
L7979 11352
L7941 11352
L7904 11334
L7885 11315
L7866 11277
L7847 11202
L7847 11109
L7866 11034
L7885 10996
L7904 10977
L7941 10959
" />
<path d="M8241 11352
L8241 10959
L8466 11352
L8466 10959
" />
<path d="M8785 11146
L8654 11146
" />
<path d="M8654 11352
L8654 10959
L8841 10959
" />
<path d="M7323 9352
L7098 9352
" />
<path d="M7210 9352
L7210 8959
L7173 9015
L7135 9052
L7098 9071
" />
<path d="M7566 8959
L7604 8959
L7641 8977
L7660 8996
L7679 9034
L7697 9109
L7697 9202
L7679 9277
L7660 9315
L7641 9334
L7604 9352
L7566 9352
L7529 9334
L7510 9315
L7491 9277
L7473 9202
L7473 9109
L7491 9034
L7510 8996
L7529 8977
L7566 8959
" />
<path d="M7941 8959
L7979 8959
L8016 8977
L8035 8996
L8054 9034
L8072 9109
L8072 9202
L8054 9277
L8035 9315
L8016 9334
L7979 9352
L7941 9352
L7904 9334
L7885 9315
L7866 9277
L7847 9202
L7847 9109
L7866 9034
L7885 8996
L7904 8977
L7941 8959
" />
<path d="M8241 9352
L8241 8959
L8466 9352
L8466 8959
" />
<path d="M8785 9146
L8654 9146
" />
<path d="M8654 9352
L8654 8959
L8841 8959
" />
<path d="M7723 11756
L7498 11756
" />
<path d="M7610 11756
L7610 11363
L7573 11419
L7535 11456
L7498 11475
" />
<path d="M7966 11363
L8004 11363
L8041 11381
L8060 11400
L8079 11438
L8097 11513
L8097 11606
L8079 11681
L8060 11719
L8041 11738
L8004 11756
L7966 11756
L7929 11738
L7910 11719
L7891 11681
L7873 11606
L7873 11513
L7891 11438
L7910 11400
L7929 11381
L7966 11363
" />
<path d="M8341 11363
L8379 11363
L8416 11381
L8435 11400
L8454 11438
L8472 11513
L8472 11606
L8454 11681
L8435 11719
L8416 11738
L8379 11756
L8341 11756
L8304 11738
L8285 11719
L8266 11681
L8247 11606
L8247 11513
L8266 11438
L8285 11400
L8304 11381
L8341 11363
" />
<path d="M8641 11756
L8641 11363
L8866 11756
L8866 11363
" />
<path d="M9185 11550
L9054 11550
" />
<path d="M9054 11756
L9054 11363
L9241 11363
" />
<path d="M8923 11952
L8698 11952
" />
<path d="M8810 11952
L8810 11559
L8773 11615
L8735 11652
L8698 11671
" />
<path d="M9166 11559
L9204 11559
L9241 11577
L9260 11596
L9279 11634
L9297 11709
L9297 11802
L9279 11877
L9260 11915
L9241 11934
L9204 11952
L9166 11952
L9129 11934
L9110 11915
L9091 11877
L9073 11802
L9073 11709
L9091 11634
L9110 11596
L9129 11577
L9166 11559
" />
<path d="M9541 11559
L9579 11559
L9616 11577
L9635 11596
L9654 11634
L9672 11709
L9672 11802
L9654 11877
L9635 11915
L9616 11934
L9579 11952
L9541 11952
L9504 11934
L9485 11915
L9466 11877
L9447 11802
L9447 11709
L9466 11634
L9485 11596
L9504 11577
L9541 11559
" />
<path d="M9841 11952
L9841 11559
L10066 11952
L10066 11559
" />
<path d="M10385 11746
L10254 11746
" />
<path d="M10254 11952
L10254 11559
L10441 11559
" />
<path d="M17423 6756
L17198 6756
" />
<path d="M17310 6756
L17310 6363
L17273 6419
L17235 6456
L17198 6475
" />
<path d="M17666 6363
L17704 6363
L17741 6381
L17760 6400
L17779 6438
L17797 6513
L17797 6606
L17779 6681
L17760 6719
L17741 6738
L17704 6756
L17666 6756
L17629 6738
L17610 6719
L17591 6681
L17573 6606
L17573 6513
L17591 6438
L17610 6400
L17629 6381
L17666 6363
" />
<path d="M18041 6363
L18079 6363
L18116 6381
L18135 6400
L18154 6438
L18172 6513
L18172 6606
L18154 6681
L18135 6719
L18116 6738
L18079 6756
L18041 6756
L18004 6738
L17985 6719
L17966 6681
L17947 6606
L17947 6513
L17966 6438
L17985 6400
L18004 6381
L18041 6363
" />
<path d="M18341 6756
L18341 6363
L18566 6756
L18566 6363
" />
<path d="M18885 6550
L18754 6550
" />
<path d="M18754 6756
L18754 6363
L18941 6363
" />
<path d="M8229 15346
L8229 14952
L8360 15234
L8491 14952
L8491 15346
" />
<path d="M8623 14952
L8847 14952
" />
<path d="M8735 15346
L8735 14952
" />
<path d="M8960 14990
L8979 14971
L9016 14952
L9110 14952
L9147 14971
L9166 14990
L9185 15027
L9185 15065
L9166 15121
L8941 15346
L9185 15346
" />
<path d="M9522 15084
L9522 15346
" />
<path d="M9429 14934
L9335 15215
L9579 15215
" />
<path d="M9747 15346
L9822 15346
L9860 15327
L9879 15309
L9916 15252
L9935 15177
L9935 15027
L9916 14990
L9897 14971
L9860 14952
L9785 14952
L9747 14971
L9729 14990
L9710 15027
L9710 15121
L9729 15159
L9747 15177
L9785 15196
L9860 15196
L9897 15177
L9916 15159
L9935 15121
" />
<path d="M10085 14990
L10104 14971
L10141 14952
L10235 14952
L10272 14971
L10291 14990
L10310 15027
L10310 15065
L10291 15121
L10066 15346
L10310 15346
" />
<path d="M11079 15239
L11079 14845
L11173 14845
L11229 14864
L11266 14901
L11285 14939
L11304 15014
L11304 15070
L11285 15145
L11266 15182
L11229 15220
L11173 15239
L11079 15239
" />
<path d="M11473 15239
L11473 14845
L11604 15126
L11735 14845
L11735 15239
" />
<path d="M12129 14864
L12091 14845
L12035 14845
L11979 14864
L11941 14901
L11923 14939
L11904 15014
L11904 15070
L11923 15145
L11941 15182
L11979 15220
L12035 15239
L12073 15239
L12129 15220
L12147 15201
L12147 15070
L12073 15070
" />
<path d="M12279 14845
L12522 14845
L12391 14995
L12447 14995
L12485 15014
L12504 15032
L12522 15070
L12522 15164
L12504 15201
L12485 15220
L12447 15239
L12335 15239
L12297 15220
L12279 15201
" />
<path d="M12860 14976
L12860 15239
" />
<path d="M12766 14826
L12672 15107
L12916 15107
" />
<path d="M13047 14882
L13066 14864
L13104 14845
L13197 14845
L13235 14864
L13254 14882
L13272 14920
L13272 14957
L13254 15014
L13029 15239
L13272 15239
" />
<path d="M13516 14845
L13554 14845
L13591 14864
L13610 14882
L13629 14920
L13647 14995
L13647 15089
L13629 15164
L13610 15201
L13591 15220
L13554 15239
L13516 15239
L13479 15220
L13460 15201
L13441 15164
L13422 15089
L13422 14995
L13441 14920
L13460 14882
L13479 14864
L13516 14845
" />
<path d="M13816 14845
L13816 15164
L13835 15201
L13854 15220
L13891 15239
L13966 15239
L14004 15220
L14022 15201
L14041 15164
L14041 14845
" />
<path d="M9957 3963
L10201 3963
L10069 4113
L10126 4113
L10163 4131
L10182 4150
L10201 4188
L10201 4281
L10182 4319
L10163 4338
L10126 4356
L10013 4356
L9976 4338
L9957 4319
" />
<path d="M10332 3963
L10576 3963
L10444 4113
L10501 4113
L10538 4131
L10557 4150
L10576 4188
L10576 4281
L10557 4319
L10538 4338
L10501 4356
L10388 4356
L10351 4338
L10332 4319
" />
<path d="M10819 3963
L10857 3963
L10894 3981
L10913 4000
L10932 4038
L10951 4113
L10951 4206
L10932 4281
L10913 4319
L10894 4338
L10857 4356
L10819 4356
L10782 4338
L10763 4319
L10744 4281
L10726 4206
L10726 4113
L10744 4038
L10763 4000
L10782 3981
L10819 3963
" />
<path d="M11344 4356
L11213 4169
" />
<path d="M11119 4356
L11119 3963
L11269 3963
L11307 3981
L11325 4000
L11344 4038
L11344 4094
L11325 4131
L11307 4150
L11269 4169
L11119 4169
" />
<path d="M9957 6884
L10201 6884
L10069 7034
L10126 7034
L10163 7052
L10182 7071
L10201 7109
L10201 7202
L10182 7240
L10163 7259
L10126 7277
L10013 7277
L9976 7259
L9957 7240
" />
<path d="M10332 6884
L10576 6884
L10444 7034
L10501 7034
L10538 7052
L10557 7071
L10576 7109
L10576 7202
L10557 7240
L10538 7259
L10501 7277
L10388 7277
L10351 7259
L10332 7240
" />
<path d="M10819 6884
L10857 6884
L10894 6902
L10913 6921
L10932 6959
L10951 7034
L10951 7127
L10932 7202
L10913 7240
L10894 7259
L10857 7277
L10819 7277
L10782 7259
L10763 7240
L10744 7202
L10726 7127
L10726 7034
L10744 6959
L10763 6921
L10782 6902
L10819 6884
" />
<path d="M11344 7277
L11213 7090
" />
<path d="M11119 7277
L11119 6884
L11269 6884
L11307 6902
L11325 6921
L11344 6959
L11344 7015
L11325 7052
L11307 7071
L11269 7090
L11119 7090
" />
<path d="M13334 6692
L13334 6467
" />
<path d="M13334 6579
L13728 6579
L13671 6542
L13634 6504
L13615 6467
" />
<path d="M13728 6936
L13728 6973
L13709 7011
L13690 7029
L13653 7048
L13578 7067
L13484 7067
L13409 7048
L13371 7029
L13353 7011
L13334 6973
L13334 6936
L13353 6898
L13371 6879
L13409 6861
L13484 6842
L13578 6842
L13653 6861
L13690 6879
L13709 6898
L13728 6936
" />
<path d="M13334 7236
L13728 7236
" />
<path d="M13484 7273
L13334 7386
" />
<path d="M13596 7386
L13446 7236
" />
<path d="M9957 7559
L10201 7559
L10069 7709
L10126 7709
L10163 7727
L10182 7746
L10201 7784
L10201 7877
L10182 7915
L10163 7934
L10126 7952
L10013 7952
L9976 7934
L9957 7915
" />
<path d="M10332 7559
L10576 7559
L10444 7709
L10501 7709
L10538 7727
L10557 7746
L10576 7784
L10576 7877
L10557 7915
L10538 7934
L10501 7952
L10388 7952
L10351 7934
L10332 7915
" />
<path d="M10819 7559
L10857 7559
L10894 7577
L10913 7596
L10932 7634
L10951 7709
L10951 7802
L10932 7877
L10913 7915
L10894 7934
L10857 7952
L10819 7952
L10782 7934
L10763 7915
L10744 7877
L10726 7802
L10726 7709
L10744 7634
L10763 7596
L10782 7577
L10819 7559
" />
<path d="M11344 7952
L11213 7765
" />
<path d="M11119 7952
L11119 7559
L11269 7559
L11307 7577
L11325 7596
L11344 7634
L11344 7690
L11325 7727
L11307 7746
L11269 7765
L11119 7765
" />
<path d="M12634 6692
L12634 6467
" />
<path d="M12634 6579
L13028 6579
L12971 6542
L12934 6504
L12915 6467
" />
<path d="M13028 6936
L13028 6973
L13009 7011
L12990 7029
L12953 7048
L12878 7067
L12784 7067
L12709 7048
L12671 7029
L12653 7011
L12634 6973
L12634 6936
L12653 6898
L12671 6879
L12709 6861
L12784 6842
L12878 6842
L12953 6861
L12990 6879
L13009 6898
L13028 6936
" />
<path d="M12634 7236
L13028 7236
" />
<path d="M12784 7273
L12634 7386
" />
<path d="M12896 7386
L12746 7236
" />
<path d="M11157 12063
L11401 12063
L11269 12213
L11326 12213
L11363 12231
L11382 12250
L11401 12288
L11401 12381
L11382 12419
L11363 12438
L11326 12456
L11213 12456
L11176 12438
L11157 12419
" />
<path d="M11532 12063
L11776 12063
L11644 12213
L11701 12213
L11738 12231
L11757 12250
L11776 12288
L11776 12381
L11757 12419
L11738 12438
L11701 12456
L11588 12456
L11551 12438
L11532 12419
" />
<path d="M12019 12063
L12057 12063
L12094 12081
L12113 12100
L12132 12138
L12151 12213
L12151 12306
L12132 12381
L12113 12419
L12094 12438
L12057 12456
L12019 12456
L11982 12438
L11963 12419
L11944 12381
L11926 12306
L11926 12213
L11944 12138
L11963 12100
L11982 12081
L12019 12063
" />
<path d="M12544 12456
L12413 12269
" />
<path d="M12319 12456
L12319 12063
L12469 12063
L12507 12081
L12525 12100
L12544 12138
L12544 12194
L12525 12231
L12507 12250
L12469 12269
L12319 12269
" />
<path d="M9957 8063
L10201 8063
L10069 8213
L10126 8213
L10163 8231
L10182 8250
L10201 8288
L10201 8381
L10182 8419
L10163 8438
L10126 8456
L10013 8456
L9976 8438
L9957 8419
" />
<path d="M10332 8063
L10576 8063
L10444 8213
L10501 8213
L10538 8231
L10557 8250
L10576 8288
L10576 8381
L10557 8419
L10538 8438
L10501 8456
L10388 8456
L10351 8438
L10332 8419
" />
<path d="M10819 8063
L10857 8063
L10894 8081
L10913 8100
L10932 8138
L10951 8213
L10951 8306
L10932 8381
L10913 8419
L10894 8438
L10857 8456
L10819 8456
L10782 8438
L10763 8419
L10744 8381
L10726 8306
L10726 8213
L10744 8138
L10763 8100
L10782 8081
L10819 8063
" />
<path d="M11344 8456
L11213 8269
" />
<path d="M11119 8456
L11119 8063
L11269 8063
L11307 8081
L11325 8100
L11344 8138
L11344 8194
L11325 8231
L11307 8250
L11269 8269
L11119 8269
" />
<path d="M9957 9063
L10201 9063
L10069 9213
L10126 9213
L10163 9231
L10182 9250
L10201 9288
L10201 9381
L10182 9419
L10163 9438
L10126 9456
L10013 9456
L9976 9438
L9957 9419
" />
<path d="M10332 9063
L10576 9063
L10444 9213
L10501 9213
L10538 9231
L10557 9250
L10576 9288
L10576 9381
L10557 9419
L10538 9438
L10501 9456
L10388 9456
L10351 9438
L10332 9419
" />
<path d="M10819 9063
L10857 9063
L10894 9081
L10913 9100
L10932 9138
L10951 9213
L10951 9306
L10932 9381
L10913 9419
L10894 9438
L10857 9456
L10819 9456
L10782 9438
L10763 9419
L10744 9381
L10726 9306
L10726 9213
L10744 9138
L10763 9100
L10782 9081
L10819 9063
" />
<path d="M11344 9456
L11213 9269
" />
<path d="M11119 9456
L11119 9063
L11269 9063
L11307 9081
L11325 9100
L11344 9138
L11344 9194
L11325 9231
L11307 9250
L11269 9269
L11119 9269
" />
<path d="M7938 13902
L7713 13902
" />
<path d="M7826 13902
L7826 13509
L7788 13565
L7751 13602
L7713 13621
" />
<path d="M8313 13902
L8088 13902
" />
<path d="M8201 13902
L8201 13509
L8163 13565
L8126 13602
L8088 13621
" />
<path d="M8557 13509
L8594 13509
L8632 13527
L8651 13546
L8669 13584
L8688 13659
L8688 13752
L8669 13827
L8651 13865
L8632 13884
L8594 13902
L8557 13902
L8519 13884
L8501 13865
L8482 13827
L8463 13752
L8463 13659
L8482 13584
L8501 13546
L8519 13527
L8557 13509
" />
<path d="M8857 13902
L8857 13509
" />
<path d="M8894 13752
L9007 13902
" />
<path d="M9007 13640
L8857 13790
" />
<path d="M8630 13617
L8630 13392
" />
<path d="M8630 13504
L9024 13504
L8967 13467
L8930 13429
L8911 13392
" />
<path d="M9024 13973
L9024 13786
L8836 13767
L8855 13786
L8874 13823
L8874 13917
L8855 13954
L8836 13973
L8799 13992
L8705 13992
L8667 13973
L8649 13954
L8630 13917
L8630 13823
L8649 13786
L8667 13767
" />
<path d="M8630 14161
L9024 14161
" />
<path d="M8780 14198
L8630 14311
" />
<path d="M8892 14311
L8742 14161
" />
<path d="M16726 9852
L16501 9852
" />
<path d="M16613 9852
L16613 9459
L16576 9515
L16538 9552
L16501 9571
" />
<path d="M16969 9459
L17007 9459
L17044 9477
L17063 9496
L17082 9534
L17101 9609
L17101 9702
L17082 9777
L17063 9815
L17044 9834
L17007 9852
L16969 9852
L16932 9834
L16913 9815
L16894 9777
L16876 9702
L16876 9609
L16894 9534
L16913 9496
L16932 9477
L16969 9459
" />
<path d="M17269 9852
L17269 9459
" />
<path d="M17307 9702
L17419 9852
" />
<path d="M17419 9590
L17269 9740
" />
<path d="M17126 11652
L16901 11652
" />
<path d="M17013 11652
L17013 11259
L16976 11315
L16938 11352
L16901 11371
" />
<path d="M17369 11259
L17407 11259
L17444 11277
L17463 11296
L17482 11334
L17501 11409
L17501 11502
L17482 11577
L17463 11615
L17444 11634
L17407 11652
L17369 11652
L17332 11634
L17313 11615
L17294 11577
L17276 11502
L17276 11409
L17294 11334
L17313 11296
L17332 11277
L17369 11259
" />
<path d="M17669 11652
L17669 11259
" />
<path d="M17707 11502
L17819 11652
" />
<path d="M17819 11390
L17669 11540
" />
<path d="M16126 10952
L15901 10952
" />
<path d="M16013 10952
L16013 10559
L15976 10615
L15938 10652
L15901 10671
" />
<path d="M16369 10559
L16407 10559
L16444 10577
L16463 10596
L16482 10634
L16501 10709
L16501 10802
L16482 10877
L16463 10915
L16444 10934
L16407 10952
L16369 10952
L16332 10934
L16313 10915
L16294 10877
L16276 10802
L16276 10709
L16294 10634
L16313 10596
L16332 10577
L16369 10559
" />
<path d="M16669 10952
L16669 10559
" />
<path d="M16707 10802
L16819 10952
" />
<path d="M16819 10690
L16669 10840
" />
<path d="M13351 10356
L13126 10356
" />
<path d="M13238 10356
L13238 9963
L13201 10019
L13163 10056
L13126 10075
" />
<path d="M13594 9963
L13632 9963
L13669 9981
L13688 10000
L13707 10038
L13726 10113
L13726 10206
L13707 10281
L13688 10319
L13669 10338
L13632 10356
L13594 10356
L13557 10338
L13538 10319
L13519 10281
L13501 10206
L13501 10113
L13519 10038
L13538 10000
L13557 9981
L13594 9963
" />
<path d="M13894 10356
L13894 9963
" />
<path d="M13932 10206
L14044 10356
" />
<path d="M14044 10094
L13894 10244
" />
<path d="M16126 11652
L15901 11652
" />
<path d="M16013 11652
L16013 11259
L15976 11315
L15938 11352
L15901 11371
" />
<path d="M16369 11259
L16407 11259
L16444 11277
L16463 11296
L16482 11334
L16501 11409
L16501 11502
L16482 11577
L16463 11615
L16444 11634
L16407 11652
L16369 11652
L16332 11634
L16313 11615
L16294 11577
L16276 11502
L16276 11409
L16294 11334
L16313 11296
L16332 11277
L16369 11259
" />
<path d="M16669 11652
L16669 11259
" />
<path d="M16707 11502
L16819 11652
" />
<path d="M16819 11390
L16669 11540
" />
<path d="M16726 8252
L16501 8252
" />
<path d="M16613 8252
L16613 7859
L16576 7915
L16538 7952
L16501 7971
" />
<path d="M16969 7859
L17007 7859
L17044 7877
L17063 7896
L17082 7934
L17101 8009
L17101 8102
L17082 8177
L17063 8215
L17044 8234
L17007 8252
L16969 8252
L16932 8234
L16913 8215
L16894 8177
L16876 8102
L16876 8009
L16894 7934
L16913 7896
L16932 7877
L16969 7859
" />
<path d="M17269 8252
L17269 7859
" />
<path d="M17307 8102
L17419 8252
" />
<path d="M17419 7990
L17269 8140
" />
<path d="M12945 7998
L13207 7998
L13038 8392
" />
<path d="M13526 8129
L13526 8392
" />
<path d="M13432 7979
L13338 8261
L13582 8261
" />
<path d="M13919 8392
L13732 8392
L13732 7998
" />
<path d="M13994 7998
L14126 8392
L14257 7998
" />
<path d="M14613 8354
L14594 8373
L14538 8392
L14501 8392
L14444 8373
L14407 8336
L14388 8298
L14369 8223
L14369 8167
L14388 8092
L14407 8054
L14444 8017
L14501 7998
L14538 7998
L14594 8017
L14613 8036
" />
<path d="M14763 8036
L14782 8017
L14819 7998
L14913 7998
L14951 8017
L14969 8036
L14988 8073
L14988 8111
L14969 8167
L14744 8392
L14988 8392
" />
<path d="M15363 8017
L15326 7998
L15269 7998
L15213 8017
L15176 8054
L15157 8092
L15138 8167
L15138 8223
L15157 8298
L15176 8336
L15213 8373
L15269 8392
L15307 8392
L15363 8373
L15382 8354
L15382 8223
L15307 8223
" />
<path d="M15513 7998
L15757 7998
L15626 8148
L15682 8148
L15719 8167
L15738 8186
L15757 8223
L15757 8317
L15738 8354
L15719 8373
L15682 8392
L15569 8392
L15532 8373
L15513 8354
" />
<path d="M16094 8129
L16094 8392
" />
<path d="M16000 7979
L15907 8261
L16150 8261
" />
<path d="M16207 8429
L16507 8429
" />
<path d="M16544 7998
L16675 8392
L16807 7998
" />
<path d="M17163 8354
L17144 8373
L17088 8392
L17050 8392
L16994 8373
L16957 8336
L16938 8298
L16919 8223
L16919 8167
L16938 8092
L16957 8054
L16994 8017
L17050 7998
L17088 7998
L17144 8017
L17163 8036
" />
<path d="M17557 8354
L17538 8373
L17482 8392
L17444 8392
L17388 8373
L17350 8336
L17332 8298
L17313 8223
L17313 8167
L17332 8092
L17350 8054
L17388 8017
L17444 7998
L17482 7998
L17538 8017
L17557 8036
" />
<path d="M10145 9023
L10407 9023
L10238 9417
" />
<path d="M10726 9155
L10726 9417
" />
<path d="M10632 9005
L10538 9286
L10782 9286
" />
<path d="M11119 9417
L10932 9417
L10932 9023
" />
<path d="M11194 9023
L11326 9417
L11457 9023
" />
<path d="M11813 9379
L11794 9398
L11738 9417
L11701 9417
L11644 9398
L11607 9361
L11588 9323
L11569 9248
L11569 9192
L11588 9117
L11607 9080
L11644 9042
L11701 9023
L11738 9023
L11794 9042
L11813 9061
" />
<path d="M11963 9061
L11982 9042
L12019 9023
L12113 9023
L12151 9042
L12169 9061
L12188 9098
L12188 9136
L12169 9192
L11944 9417
L12188 9417
" />
<path d="M12563 9042
L12526 9023
L12469 9023
L12413 9042
L12376 9080
L12357 9117
L12338 9192
L12338 9248
L12357 9323
L12376 9361
L12413 9398
L12469 9417
L12507 9417
L12563 9398
L12582 9379
L12582 9248
L12507 9248
" />
<path d="M12713 9023
L12957 9023
L12826 9173
L12882 9173
L12919 9192
L12938 9211
L12957 9248
L12957 9342
L12938 9379
L12919 9398
L12882 9417
L12769 9417
L12732 9398
L12713 9379
" />
<path d="M13294 9155
L13294 9417
" />
<path d="M13200 9005
L13107 9286
L13350 9286
" />
<path d="M13407 9454
L13707 9454
" />
<path d="M13744 9023
L13875 9417
L14007 9023
" />
<path d="M14363 9379
L14344 9398
L14288 9417
L14250 9417
L14194 9398
L14157 9361
L14138 9323
L14119 9248
L14119 9192
L14138 9117
L14157 9080
L14194 9042
L14250 9023
L14288 9023
L14344 9042
L14363 9061
" />
<path d="M14757 9379
L14738 9398
L14682 9417
L14644 9417
L14588 9398
L14550 9361
L14532 9323
L14513 9248
L14513 9192
L14532 9117
L14550 9080
L14588 9042
L14644 9023
L14682 9023
L14738 9042
L14757 9061
" />
<path d="M11188 11508
L11376 11508
" />
<path d="M11151 11620
L11282 11226
L11413 11620
" />
<path d="M11545 11620
L11545 11226
L11695 11226
L11732 11245
L11751 11264
L11770 11301
L11770 11358
L11751 11395
L11732 11414
L11695 11433
L11545 11433
" />
<path d="M11920 11264
L11938 11245
L11976 11226
L12070 11226
L12107 11245
L12126 11264
L12145 11301
L12145 11339
L12126 11395
L11901 11620
L12145 11620
" />
<path d="M12295 11264
L12313 11245
L12351 11226
L12444 11226
L12482 11245
L12501 11264
L12519 11301
L12519 11339
L12501 11395
L12276 11620
L12519 11620
" />
<path d="M12894 11620
L12669 11620
" />
<path d="M12782 11620
L12782 11226
L12744 11283
L12707 11320
L12669 11339
" />
<path d="M13138 11226
L13176 11226
L13213 11245
L13232 11264
L13251 11301
L13269 11376
L13269 11470
L13251 11545
L13232 11583
L13213 11601
L13176 11620
L13138 11620
L13101 11601
L13082 11583
L13063 11545
L13044 11470
L13044 11376
L13063 11301
L13082 11264
L13101 11245
L13138 11226
" />
<path d="M13438 11620
L13438 11226
L13663 11620
L13663 11226
" />
<path d="M13851 11470
L14151 11470
" />
<path d="M14301 11226
L14544 11226
L14413 11376
L14469 11376
L14507 11395
L14525 11414
L14544 11451
L14544 11545
L14525 11583
L14507 11601
L14469 11620
L14357 11620
L14319 11601
L14301 11583
" />
<path d="M14713 11583
L14732 11601
L14713 11620
L14694 11601
L14713 11583
L14713 11620
" />
<path d="M14863 11226
L15107 11226
L14975 11376
L15032 11376
L15069 11395
L15088 11414
L15107 11451
L15107 11545
L15088 11583
L15069 11601
L15032 11620
L14919 11620
L14882 11601
L14863 11583
" />
<path d="M15219 11226
L15444 11226
" />
<path d="M15332 11620
L15332 11226
" />
<path d="M15800 11620
L15669 11433
" />
<path d="M15575 11620
L15575 11226
L15725 11226
L15763 11245
L15782 11264
L15800 11301
L15800 11358
L15782 11395
L15763 11414
L15725 11433
L15575 11433
" />
<path d="M15969 11414
L16100 11414
" />
<path d="M16157 11620
L15969 11620
L15969 11226
L16157 11226
" />
<path d="M16531 11620
L16307 11620
" />
<path d="M16419 11620
L16419 11226
L16382 11283
L16344 11320
L16307 11339
" />
<path d="M11823 8714
L11598 8714
" />
<path d="M11710 8714
L11710 8320
L11673 8376
L11635 8414
L11598 8433
" />
<path d="M12066 8320
L12104 8320
L12141 8339
L12160 8358
L12179 8395
L12197 8470
L12197 8564
L12179 8639
L12160 8676
L12141 8695
L12104 8714
L12066 8714
L12029 8695
L12010 8676
L11991 8639
L11973 8564
L11973 8470
L11991 8395
L12010 8358
L12029 8339
L12066 8320
" />
<path d="M12441 8320
L12479 8320
L12516 8339
L12535 8358
L12554 8395
L12572 8470
L12572 8564
L12554 8639
L12535 8676
L12516 8695
L12479 8714
L12441 8714
L12404 8695
L12385 8676
L12366 8639
L12347 8564
L12347 8470
L12366 8395
L12385 8358
L12404 8339
L12441 8320
" />
<path d="M12741 8714
L12741 8320
L12966 8714
L12966 8320
" />
<path d="M13285 8508
L13154 8508
" />
<path d="M13154 8714
L13154 8320
L13341 8320
" />
<path d="M10145 7223
L10407 7223
L10238 7617
" />
<path d="M10726 7355
L10726 7617
" />
<path d="M10632 7205
L10538 7486
L10782 7486
" />
<path d="M11119 7617
L10932 7617
L10932 7223
" />
<path d="M11194 7223
L11326 7617
L11457 7223
" />
<path d="M11813 7579
L11794 7598
L11738 7617
L11701 7617
L11644 7598
L11607 7561
L11588 7523
L11569 7448
L11569 7392
L11588 7317
L11607 7280
L11644 7242
L11701 7223
L11738 7223
L11794 7242
L11813 7261
" />
<path d="M11963 7261
L11982 7242
L12019 7223
L12113 7223
L12151 7242
L12169 7261
L12188 7298
L12188 7336
L12169 7392
L11944 7617
L12188 7617
" />
<path d="M12563 7242
L12526 7223
L12469 7223
L12413 7242
L12376 7280
L12357 7317
L12338 7392
L12338 7448
L12357 7523
L12376 7561
L12413 7598
L12469 7617
L12507 7617
L12563 7598
L12582 7579
L12582 7448
L12507 7448
" />
<path d="M12713 7223
L12957 7223
L12826 7373
L12882 7373
L12919 7392
L12938 7411
L12957 7448
L12957 7542
L12938 7579
L12919 7598
L12882 7617
L12769 7617
L12732 7598
L12713 7579
" />
<path d="M13294 7355
L13294 7617
" />
<path d="M13200 7205
L13107 7486
L13350 7486
" />
<path d="M13407 7654
L13707 7654
" />
<path d="M13744 7223
L13875 7617
L14007 7223
" />
<path d="M14363 7579
L14344 7598
L14288 7617
L14250 7617
L14194 7598
L14157 7561
L14138 7523
L14119 7448
L14119 7392
L14138 7317
L14157 7280
L14194 7242
L14250 7223
L14288 7223
L14344 7242
L14363 7261
" />
<path d="M14757 7579
L14738 7598
L14682 7617
L14644 7617
L14588 7598
L14550 7561
L14532 7523
L14513 7448
L14513 7392
L14532 7317
L14550 7280
L14588 7242
L14644 7223
L14682 7223
L14738 7242
L14757 7261
" />
<path d="M9854 13348
L9873 13367
L9891 13404
L9891 13498
L9873 13536
L9854 13554
L9816 13573
L9779 13573
L9723 13554
L9498 13329
L9498 13573
" />
<path d="M9854 13723
L9873 13742
L9891 13779
L9891 13873
L9873 13911
L9854 13929
L9816 13948
L9779 13948
L9723 13929
L9498 13704
L9498 13948
" />
<path d="M9760 14286
L9498 14286
" />
<path d="M9760 14117
L9554 14117
L9516 14136
L9498 14173
L9498 14229
L9516 14267
L9535 14286
" />
<path d="M7582 10164
L7601 10145
L7638 10126
L7732 10126
L7769 10145
L7788 10164
L7807 10201
L7807 10239
L7788 10295
L7563 10520
L7807 10520
" />
<path d="M7957 10164
L7976 10145
L8013 10126
L8107 10126
L8144 10145
L8163 10164
L8182 10201
L8182 10239
L8163 10295
L7938 10520
L8182 10520
" />
<path d="M8519 10258
L8519 10520
" />
<path d="M8351 10258
L8351 10464
L8369 10501
L8407 10520
L8463 10520
L8501 10501
L8519 10483
" />
<path d="M14454 12148
L14473 12167
L14491 12204
L14491 12298
L14473 12336
L14454 12354
L14416 12373
L14379 12373
L14323 12354
L14098 12129
L14098 12373
" />
<path d="M14454 12523
L14473 12542
L14491 12579
L14491 12673
L14473 12711
L14454 12729
L14416 12748
L14379 12748
L14323 12729
L14098 12504
L14098 12748
" />
<path d="M14360 13086
L14098 13086
" />
<path d="M14360 12917
L14154 12917
L14116 12936
L14098 12973
L14098 13029
L14116 13067
L14135 13086
" />
</g>
<g style="fill:#840000; fill-opacity:0.0; 
stroke:#840000; stroke-width:39.3701; stroke-opacity:1; 
stroke-linecap:round; stroke-linejoin:round;">
<path d="M11402 13811
L11717 13811
" />
<path d="M11402 14441
L11402 13811
" />
<path d="M11717 14441
L11402 14441
" />
<path d="M11717 13811
L11717 14441
" />
<path d="M12775 10769
L12775 11084
" />
<path d="M12145 10769
L12775 10769
" />
<path d="M12145 11084
L12145 10769
" />
<path d="M12775 11084
L12145 11084
" />
<path d="M9775 12769
L9775 13084
" />
<path d="M9145 12769
L9775 12769
" />
<path d="M9145 13084
L9145 12769
" />
<path d="M9775 13084
L9145 13084
" />
<path d="M14945 8484
L14945 8169
" />
<path d="M15575 8484
L14945 8484
" />
<path d="M15575 8169
L15575 8484
" />
<path d="M14945 8169
L15575 8169
" />
<path d="M7645 9584
L7645 9269
" />
<path d="M8275 9584
L7645 9584
" />
<path d="M8275 9269
L8275 9584
" />
<path d="M7645 9269
L8275 9269
" />
<path d="M7645 10584
L7645 10269
" />
<path d="M8275 10584
L7645 10584
" />
<path d="M8275 10269
L8275 10584
" />
<path d="M7645 10269
L8275 10269
" />
<path d="M7645 8584
L7645 8269
" />
<path d="M8275 8584
L7645 8584
" />
<path d="M8275 8269
L8275 8584
" />
<path d="M7645 8269
L8275 8269
" />
<path d="M8675 12169
L8675 12484
" />
<path d="M8045 12169
L8675 12169
" />
<path d="M8045 12484
L8045 12169
" />
<path d="M8675 12484
L8045 12484
" />
<path d="M9245 11184
L9245 10869
" />
<path d="M9875 11184
L9245 11184
" />
<path d="M9875 10869
L9875 11184
" />
<path d="M9245 10869
L9875 10869
" />
<path d="M18375 7169
L18375 7484
" />
<path d="M17745 7169
L18375 7169
" />
<path d="M17745 7484
L17745 7169
" />
<path d="M18375 7484
L17745 7484
" />
<path d="M8906 13672
L9162 13416
" />
<path d="M9614 13416
L9162 13416
" />
<path d="M8906 13672
L8906 14637
" />
<path d="M9614 14637
L8906 14637
" />
<path d="M9614 13416
L9614 14637
" />
<path d="M12284 13702
L12284 14667
" />
<path d="M12501 13478
L12836 13478
" />
<path d="M12284 13702
L12501 13478
" />
<path d="M12836 13478
L12836 14675
" />
<path d="M12284 14675
L12836 14675
" />
<path d="M10975 4769
L10975 5084
" />
<path d="M10345 4769
L10975 4769
" />
<path d="M10345 5084
L10345 4769
" />
<path d="M10975 5084
L10345 5084
" />
<path d="M10345 6509
L10345 6194
" />
<path d="M10975 6509
L10345 6509
" />
<path d="M10975 6194
L10975 6509
" />
<path d="M10345 6194
L10975 6194
" />
<path d="M14102 6611
L14417 6611
" />
<path d="M14102 7241
L14102 6611
" />
<path d="M14417 7241
L14102 7241
" />
<path d="M14417 6611
L14417 7241
" />
<path d="M10345 7184
L10345 6869
" />
<path d="M10975 7184
L10345 7184
" />
<path d="M10975 6869
L10975 7184
" />
<path d="M10345 6869
L10975 6869
" />
<path d="M13402 6611
L13717 6611
" />
<path d="M13402 7241
L13402 6611
" />
<path d="M13717 7241
L13402 7241
" />
<path d="M13717 6611
L13717 7241
" />
<path d="M12175 12869
L12175 13184
" />
<path d="M11545 12869
L12175 12869
" />
<path d="M11545 13184
L11545 12869
" />
<path d="M12175 13184
L11545 13184
" />
<path d="M10975 8869
L10975 9184
" />
<path d="M10345 8869
L10975 8869
" />
<path d="M10345 9184
L10345 8869
" />
<path d="M10975 9184
L10345 9184
" />
<path d="M10975 9869
L10975 10184
" />
<path d="M10345 9869
L10975 9869
" />
<path d="M10345 10184
L10345 9869
" />
<path d="M10975 10184
L10345 10184
" />
<path d="M8045 13134
L8045 12819
" />
<path d="M8675 13134
L8045 13134
" />
<path d="M8675 12819
L8675 13134
" />
<path d="M8045 12819
L8675 12819
" />
<path d="M8217 14166
L7902 14166
" />
<path d="M8217 13536
L8217 14166
" />
<path d="M7902 13536
L8217 13536
" />
<path d="M7902 14166
L7902 13536
" />
<path d="M16645 9084
L16645 8769
" />
<path d="M17275 9084
L16645 9084
" />
<path d="M17275 8769
L17275 9084
" />
<path d="M16645 8769
L17275 8769
" />
<path d="M17045 10884
L17045 10569
" />
<path d="M17675 10884
L17045 10884
" />
<path d="M17675 10569
L17675 10884
" />
<path d="M17045 10569
L17675 10569
" />
<path d="M16045 10184
L16045 9869
" />
<path d="M16675 10184
L16045 10184
" />
<path d="M16675 9869
L16675 10184
" />
<path d="M16045 9869
L16675 9869
" />
<path d="M13900 10769
L13900 11084
" />
<path d="M13270 10769
L13900 10769
" />
<path d="M13270 11084
L13270 10769
" />
<path d="M13900 11084
L13270 11084
" />
<path d="M16045 10884
L16045 10569
" />
<path d="M16675 10884
L16045 10884
" />
<path d="M16675 10569
L16675 10884
" />
<path d="M16045 10569
L16675 10569
" />
<path d="M16645 7484
L16645 7169
" />
<path d="M17275 7484
L16645 7484
" />
<path d="M17275 7169
L17275 7484
" />
<path d="M16645 7169
L17275 7169
" />
<path d="M15526 6993
L15191 6993
" />
<path d="M14994 7190
L14994 7859
" />
<path d="M15526 6993
L15526 7859
" />
<path d="M15526 7859
L14994 7859
" />
<path d="M15191 6993
L14994 7190
" />
<path d="M12194 10459
L12529 10459
" />
<path d="M12726 10262
L12726 9593
" />
<path d="M12194 10459
L12194 9593
" />
<path d="M12194 9593
L12726 9593
" />
<path d="M12529 10459
L12726 10262
" />
<path d="M14136 12800
L14136 11836
" />
<path d="M13919 13025
L13584 13025
" />
<path d="M14136 12800
L13919 13025
" />
<path d="M13584 13025
L13584 11828
" />
<path d="M14136 11828
L13584 11828
" />
<path d="M12775 8969
L12775 9284
" />
<path d="M12145 8969
L12775 8969
" />
<path d="M12145 9284
L12145 8969
" />
<path d="M12775 9284
L12145 9284
" />
<path d="M12194 8659
L12529 8659
" />
<path d="M12726 8462
L12726 7793
" />
<path d="M12194 8659
L12194 7793
" />
<path d="M12194 7793
L12726 7793
" />
<path d="M12529 8659
L12726 8462
" />
<path d="M10168 13196
L11152 13196
" />
<path d="M10168 14456
L10168 13196
" />
<path d="M11152 14456
L10168 14456
" />
<path d="M11152 13196
L11152 14456
" />
<path d="M8690 10834
L8690 11818
" />
<path d="M7430 10834
L8690 10834
" />
<path d="M7430 11818
L7430 10834
" />
<path d="M8690 11818
L7430 11818
" />
<path d="M14768 11996
L15752 11996
" />
<path d="M14768 13256
L14768 11996
" />
<path d="M15752 13256
L14768 13256
" />
<path d="M15752 11996
L15752 13256
" />
</g> 
</svg>
