<?xml version="1.0" standalone="no"?>
 <!DOCTYPE svg PUBLIC "-//W3C//DTD SVG 1.1//EN" 
 "http://www.w3.org/Graphics/SVG/1.1/DTD/svg11.dtd"> 
<svg xmlns="http://www.w3.org/2000/svg" version="1.1" 
    width="5.80136cm" height="4.43484cm" viewBox="0 0 22840 17460 ">
<title>SVG Picture created as fly_led-B.SilkS.svg date 2017/03/24 21:05:44 </title>
  <desc>Picture generated by PCBNEW </desc>
<g style="fill:#000000; fill-opacity:1;stroke:#000000; stroke-opacity:1;
stroke-linecap:round; stroke-linejoin:round; "
 transform="translate(0 0) scale(1 1)">
</g>
<g style="fill:#840084; fill-opacity:0.0; 
stroke:#840084; stroke-width:-0.000393701; stroke-opacity:1; 
stroke-linecap:round; stroke-linejoin:round;">
</g>
<g style="fill:#840084; fill-opacity:0.0; 
stroke:#840084; stroke-width:78.7402; stroke-opacity:1; 
stroke-linecap:round; stroke-linejoin:round;">
<path d="M20235 9201
L17535 9201
" />
<path d="M18435 15001
L18635 15001
" />
<path d="M18435 11401
L18435 15001
" />
<path d="M18435 9901
L17035 9901
" />
<path d="M18435 11401
L18435 9901
" />
<path d="M15835 11401
L18435 11401
" />
<path d="M13135 7501
L15835 11401
" />
<path d="M10135 7501
L13135 7501
" />
<path d="M10135 10701
L9835 10701
" />
<path d="M10135 5201
L10135 10701
" />
<path d="M9635 4701
L10135 5201
" />
</g>
<g style="fill:#840084; fill-opacity:0.0; 
stroke:#840084; stroke-width:59.0551; stroke-opacity:1; 
stroke-linecap:round; stroke-linejoin:round;">
<path d="M20163 8857
L19769 8857
" />
<path d="M20013 8820
L20163 8707
" />
<path d="M19901 8707
L20051 8857
" />
<path d="M20163 8539
L19901 8539
" />
<path d="M19769 8539
L19788 8557
L19807 8539
L19788 8520
L19769 8539
L19807 8539
" />
<path d="M19901 8407
L19901 8257
" />
<path d="M19769 8351
L20107 8351
L20144 8332
L20163 8295
L20163 8257
" />
<path d="M20013 8126
L20013 7826
" />
<path d="M20144 7470
L20163 7507
L20163 7582
L20144 7620
L20126 7639
L20088 7657
L19976 7657
L19938 7639
L19919 7620
L19901 7582
L19901 7507
L19919 7470
" />
<path d="M20144 7151
L20163 7189
L20163 7264
L20144 7301
L20107 7320
L19957 7320
L19919 7301
L19901 7264
L19901 7189
L19919 7151
L19957 7132
L19994 7132
L20032 7320
" />
<path d="M19901 6964
L20163 6964
" />
<path d="M19938 6964
L19919 6945
L19901 6908
L19901 6851
L19919 6814
L19957 6795
L20163 6795
" />
<path d="M19901 6664
L19901 6514
" />
<path d="M19769 6608
L20107 6608
L20144 6589
L20163 6551
L20163 6514
" />
<path d="M20163 6383
L19901 6383
" />
<path d="M19976 6383
L19938 6364
L19919 6345
L19901 6308
L19901 6270
" />
<path d="M20144 5989
L20163 6026
L20163 6101
L20144 6139
L20107 6158
L19957 6158
L19919 6139
L19901 6101
L19901 6026
L19919 5989
L19957 5970
L19994 5970
L20032 6158
" />
<path d="M20126 5801
L20144 5783
L20163 5801
L20144 5820
L20126 5801
L20163 5801
" />
<path d="M19901 5614
L20294 5614
" />
<path d="M19919 5614
L19901 5576
L19901 5501
L19919 5464
L19938 5445
L19976 5426
L20088 5426
L20126 5445
L20144 5464
L20163 5501
L20163 5576
L20144 5614
" />
<path d="M20163 5258
L19901 5258
" />
<path d="M19976 5258
L19938 5239
L19919 5220
L19901 5183
L19901 5145
" />
<path d="M20163 4958
L20144 4995
L20126 5014
L20088 5033
L19976 5033
L19938 5014
L19919 4995
L19901 4958
L19901 4902
L19919 4864
L19938 4845
L19976 4827
L20088 4827
L20126 4845
L20144 4864
L20163 4902
L20163 4958
" />
<path d="M17169 9667
L17151 9686
L17095 9704
L17057 9704
L17001 9686
L16963 9648
L16945 9611
L16926 9536
L16926 9479
L16945 9404
L16963 9367
L17001 9329
L17057 9311
L17095 9311
L17151 9329
L17169 9348
" />
<path d="M17394 9704
L17357 9686
L17338 9667
L17319 9629
L17319 9517
L17338 9479
L17357 9461
L17394 9442
L17451 9442
L17488 9461
L17507 9479
L17526 9517
L17526 9629
L17507 9667
L17488 9686
L17451 9704
L17394 9704
" />
<path d="M17694 9442
L17694 9704
" />
<path d="M17694 9479
L17713 9461
L17751 9442
L17807 9442
L17844 9461
L17863 9498
L17863 9704
" />
<path d="M18051 9442
L18051 9704
" />
<path d="M18051 9479
L18069 9461
L18107 9442
L18163 9442
L18201 9461
L18219 9498
L18219 9704
" />
<path d="M18557 9686
L18519 9704
L18444 9704
L18407 9686
L18388 9648
L18388 9498
L18407 9461
L18444 9442
L18519 9442
L18557 9461
L18576 9498
L18576 9536
L18388 9573
" />
<path d="M18913 9686
L18876 9704
L18801 9704
L18763 9686
L18744 9667
L18726 9629
L18726 9517
L18744 9479
L18763 9461
L18801 9442
L18876 9442
L18913 9461
" />
<path d="M19026 9442
L19175 9442
" />
<path d="M19082 9311
L19082 9648
L19101 9686
L19138 9704
L19175 9704
" />
<path d="M19363 9704
L19325 9686
L19307 9667
L19288 9629
L19288 9517
L19307 9479
L19325 9461
L19363 9442
L19419 9442
L19457 9461
L19475 9479
L19494 9517
L19494 9629
L19475 9667
L19457 9686
L19419 9704
L19363 9704
" />
<path d="M19663 9704
L19663 9442
" />
<path d="M19663 9517
L19682 9479
L19700 9461
L19738 9442
L19775 9442
" />
<path d="M19888 9686
L19925 9704
L20000 9704
L20038 9686
L20057 9648
L20057 9629
L20038 9592
L20000 9573
L19944 9573
L19907 9554
L19888 9517
L19888 9498
L19907 9461
L19944 9442
L20000 9442
L20038 9461
" />
<path d="M20225 9667
L20244 9686
L20225 9704
L20207 9686
L20225 9667
L20225 9704
" />
<path d="M20225 9461
L20244 9479
L20225 9498
L20207 9479
L20225 9461
L20225 9498
" />
<path d="M18713 11151
L18713 10851
" />
<path d="M19363 11151
L19363 10851
" />
<path d="M19513 11001
L19213 11001
" />
<path d="M20144 11114
L20163 11058
L20163 10964
L20144 10926
L20125 10908
L20088 10889
L20050 10889
L20013 10908
L19994 10926
L19975 10964
L19956 11039
L19938 11076
L19919 11095
L19881 11114
L19844 11114
L19806 11095
L19788 11076
L19769 11039
L19769 10945
L19788 10889
" />
<path d="M18913 10306
L18913 9912
L19007 9912
L19063 9931
L19101 9968
L19119 10006
L19138 10081
L19138 10137
L19119 10212
L19101 10250
L19063 10287
L19007 10306
L18913 10306
" />
<path d="M19438 10100
L19494 10118
L19513 10137
L19532 10175
L19532 10231
L19513 10268
L19494 10287
L19457 10306
L19307 10306
L19307 9912
L19438 9912
L19476 9931
L19494 9950
L19513 9987
L19513 10025
L19494 10062
L19476 10081
L19438 10100
L19307 10100
" />
<path d="M19907 9931
L19869 9912
L19813 9912
L19757 9931
L19719 9968
L19701 10006
L19682 10081
L19682 10137
L19701 10212
L19719 10250
L19757 10287
L19813 10306
L19851 10306
L19907 10287
L19926 10268
L19926 10137
L19851 10137
" />
<path d="M18941 12255
L18810 12067
" />
<path d="M18716 12255
L18716 11861
L18866 11861
L18904 11880
L18923 11898
L18941 11936
L18941 11992
L18923 12030
L18904 12048
L18866 12067
L18716 12067
" />
<path d="M19335 12217
L19316 12236
L19260 12255
L19222 12255
L19166 12236
L19129 12198
L19110 12161
L19091 12086
L19091 12030
L19110 11955
L19129 11917
L19166 11880
L19222 11861
L19260 11861
L19316 11880
L19335 11898
" />
<path d="M19504 12255
L19504 11861
" />
<path d="M19504 12048
L19729 12048
" />
<path d="M19729 12255
L19729 11861
" />
<path d="M20122 12255
L19897 12255
" />
<path d="M20010 12255
L20010 11861
L19972 11917
L19935 11955
L19897 11973
" />
<path d="M18941 12904
L18810 12717
" />
<path d="M18716 12904
L18716 12510
L18866 12510
L18904 12529
L18923 12548
L18941 12585
L18941 12642
L18923 12679
L18904 12698
L18866 12717
L18716 12717
" />
<path d="M19335 12867
L19316 12885
L19260 12904
L19222 12904
L19166 12885
L19129 12848
L19110 12810
L19091 12735
L19091 12679
L19110 12604
L19129 12567
L19166 12529
L19222 12510
L19260 12510
L19316 12529
L19335 12548
" />
<path d="M19504 12904
L19504 12510
" />
<path d="M19504 12698
L19729 12698
" />
<path d="M19729 12904
L19729 12510
" />
<path d="M19897 12548
L19916 12529
L19954 12510
L20047 12510
L20085 12529
L20104 12548
L20122 12585
L20122 12623
L20104 12679
L19879 12904
L20122 12904
" />
<path d="M18969 13554
L18782 13554
L18782 13160
" />
<path d="M19101 13348
L19232 13348
" />
<path d="M19288 13554
L19101 13554
L19101 13160
L19288 13160
" />
<path d="M19457 13554
L19457 13160
L19551 13160
L19607 13179
L19644 13216
L19663 13254
L19682 13329
L19682 13385
L19663 13460
L19644 13498
L19607 13535
L19551 13554
L19457 13554
" />
<path d="M19832 13535
L19888 13554
L19982 13554
L20019 13535
L20038 13516
L20057 13479
L20057 13441
L20038 13404
L20019 13385
L19982 13366
L19907 13348
L19869 13329
L19851 13310
L19832 13273
L19832 13235
L19851 13198
L19869 13179
L19907 13160
L20000 13160
L20057 13179
" />
<path d="M18744 14185
L18801 14203
L18894 14203
L18932 14185
L18951 14166
L18969 14128
L18969 14091
L18951 14053
L18932 14035
L18894 14016
L18819 13997
L18782 13978
L18763 13960
L18744 13922
L18744 13885
L18763 13847
L18782 13828
L18819 13810
L18913 13810
L18969 13828
" />
<path d="M19363 14203
L19232 14016
" />
<path d="M19138 14203
L19138 13810
L19288 13810
L19326 13828
L19344 13847
L19363 13885
L19363 13941
L19344 13978
L19326 13997
L19288 14016
L19138 14016
" />
<path d="M19476 13810
L19607 14203
L19738 13810
" />
<path d="M20075 14203
L19851 14203
" />
<path d="M19963 14203
L19963 13810
L19926 13866
L19888 13903
L19851 13922
" />
<path d="M18744 14834
L18801 14853
L18894 14853
L18932 14834
L18951 14816
L18969 14778
L18969 14741
L18951 14703
L18932 14684
L18894 14666
L18819 14647
L18782 14628
L18763 14609
L18744 14572
L18744 14534
L18763 14497
L18782 14478
L18819 14459
L18913 14459
L18969 14478
" />
<path d="M19363 14853
L19232 14666
" />
<path d="M19138 14853
L19138 14459
L19288 14459
L19326 14478
L19344 14497
L19363 14534
L19363 14591
L19344 14628
L19326 14647
L19288 14666
L19138 14666
" />
<path d="M19476 14459
L19607 14853
L19738 14459
" />
<path d="M19851 14497
L19869 14478
L19907 14459
L20000 14459
L20038 14478
L20057 14497
L20075 14534
L20075 14572
L20057 14628
L19832 14853
L20075 14853
" />
<path d="M15504 13848
L15523 13830
L15560 13811
L15654 13811
L15691 13830
L15710 13848
L15729 13886
L15729 13923
L15710 13980
L15485 14205
L15729 14205
" />
<path d="M15879 14186
L15935 14205
L16029 14205
L16066 14186
L16085 14167
L16104 14130
L16104 14092
L16085 14055
L16066 14036
L16029 14017
L15954 13998
L15916 13980
L15898 13961
L15879 13923
L15879 13886
L15898 13848
L15916 13830
L15954 13811
L16047 13811
L16104 13830
" />
<path d="M16554 13792
L16216 14298
" />
<path d="M16647 13811
L16891 13811
L16760 13961
L16816 13961
L16854 13980
L16872 13998
L16891 14036
L16891 14130
L16872 14167
L16854 14186
L16816 14205
L16704 14205
L16666 14186
L16647 14167
" />
<path d="M17041 14186
L17097 14205
L17191 14205
L17229 14186
L17247 14167
L17266 14130
L17266 14092
L17247 14055
L17229 14036
L17191 14017
L17116 13998
L17079 13980
L17060 13961
L17041 13923
L17041 13886
L17060 13848
L17079 13830
L17116 13811
L17210 13811
L17266 13830
" />
<path d="M15794 14854
L15607 14854
L15607 14460
" />
<path d="M15926 14854
L15926 14592
" />
<path d="M15926 14460
L15907 14479
L15926 14498
L15944 14479
L15926 14460
L15926 14498
" />
<path d="M16113 14854
L16113 14460
L16263 14460
L16301 14479
L16319 14498
L16338 14535
L16338 14592
L16319 14629
L16301 14648
L16263 14667
L16113 14667
" />
<path d="M16563 14854
L16526 14835
L16507 14817
L16488 14779
L16488 14667
L16507 14629
L16526 14610
L16563 14592
L16619 14592
L16657 14610
L16676 14629
L16694 14667
L16694 14779
L16676 14817
L16657 14835
L16619 14854
L16563 14854
" />
<path d="M16863 14704
L17163 14704
" />
<path d="M17013 14854
L17013 14554
" />
</g>
<g style="fill:#840084; fill-opacity:0.0; 
stroke:#840084; stroke-width:47.2441; stroke-opacity:1; 
stroke-linecap:round; stroke-linejoin:round;">
<path d="M11796 13988
L11796 14264
" />
<path d="M11324 14264
L11324 13988
" />
<path d="M12598 11162
L12322 11162
" />
<path d="M12322 10690
L12598 10690
" />
<path d="M9598 13162
L9322 13162
" />
<path d="M9322 12690
L9598 12690
" />
<path d="M15122 8090
L15398 8090
" />
<path d="M15398 8562
L15122 8562
" />
<path d="M7822 9190
L8098 9190
" />
<path d="M8098 9662
L7822 9662
" />
<path d="M7822 10190
L8098 10190
" />
<path d="M8098 10662
L7822 10662
" />
<path d="M7822 8190
L8098 8190
" />
<path d="M8098 8662
L7822 8662
" />
<path d="M8498 12562
L8222 12562
" />
<path d="M8222 12090
L8498 12090
" />
<path d="M9422 10790
L9698 10790
" />
<path d="M9698 11262
L9422 11262
" />
<path d="M18198 7562
L17922 7562
" />
<path d="M17922 7090
L18198 7090
" />
<path d="M8906 14660
L9614 14660
" />
<path d="M9614 13392
L8650 13392
" />
<path d="M12859 14698
L12859 14332
" />
<path d="M12859 13454
L12859 13820
" />
<path d="M12859 13454
L12009 13454
" />
<path d="M12859 14698
L12284 14698
" />
</g>
<g style="fill:#840084; fill-opacity:0.0; 
stroke:#840084; stroke-width:59.0551; stroke-opacity:1; 
stroke-linecap:round; stroke-linejoin:round;">
<path d="M10463 4661
L10857 4661
" />
<path d="M10857 5192
L10463 5192
" />
<path d="M10857 6617
L10463 6617
" />
<path d="M10463 6086
L10857 6086
" />
<path d="M13994 7123
L13994 6729
" />
<path d="M14526 6729
L14526 7123
" />
<path d="M10857 7292
L10463 7292
" />
<path d="M10463 6761
L10857 6761
" />
<path d="M13294 7123
L13294 6729
" />
<path d="M13826 6729
L13826 7123
" />
<path d="M11663 12761
L12057 12761
" />
<path d="M12057 13292
L11663 13292
" />
<path d="M10463 8761
L10857 8761
" />
<path d="M10857 9292
L10463 9292
" />
<path d="M10463 9761
L10857 9761
" />
<path d="M10857 10292
L10463 10292
" />
<path d="M8557 13242
L8163 13242
" />
<path d="M8163 12711
L8557 12711
" />
<path d="M8326 13654
L8326 14048
" />
<path d="M7794 14048
L7794 13654
" />
<path d="M17157 9192
L16763 9192
" />
<path d="M16763 8661
L17157 8661
" />
<path d="M17557 10992
L17163 10992
" />
<path d="M17163 10461
L17557 10461
" />
<path d="M16557 10292
L16163 10292
" />
<path d="M16163 9761
L16557 9761
" />
<path d="M13388 10661
L13782 10661
" />
<path d="M13782 11192
L13388 11192
" />
<path d="M16557 10992
L16163 10992
" />
<path d="M16163 10461
L16557 10461
" />
<path d="M17157 7592
L16763 7592
" />
<path d="M16763 7061
L17157 7061
" />
</g>
<g style="fill:#840084; fill-opacity:0.0; 
stroke:#840084; stroke-width:47.2441; stroke-opacity:1; 
stroke-linecap:round; stroke-linejoin:round;">
<path d="M15536 6970
L14788 6970
" />
<path d="M14984 7883
L15536 7883
" />
<path d="M12184 10483
L12932 10483
" />
<path d="M12736 9570
L12184 9570
" />
<path d="M13561 11804
L13561 12170
" />
<path d="M13561 13048
L13561 12682
" />
<path d="M13561 13048
L14411 13048
" />
<path d="M13561 11804
L14136 11804
" />
</g>
<g style="fill:#840084; fill-opacity:1.0; 
stroke:#840084; stroke-width:3.93701; stroke-opacity:1; 
stroke-linecap:round; stroke-linejoin:round;">
<polyline style="fill-rule:evenodd;"
points="13522,4655
13584,4685
13646,4720
13697,4712
13740,4686
13855,4644
13993,4638
14123,4667
14169,4690
14235,4748
14304,4831
14359,4916
14385,4980
14385,4985
14372,5014
14342,4994
14307,4936
14292,4900
14218,4785
14103,4709
13963,4678
13815,4697
13770,4715
13708,4758
13685,4798
13693,4836
13726,4834
13797,4793
13803,4789
13917,4750
14038,4765
14145,4828
14221,4931
14229,4951
14237,5001
14216,5004
14182,4964
14168,4935
14099,4846
14002,4803
13896,4802
13796,4841
13720,4914
13686,5019
13685,5036
13693,5070
13728,5092
13802,5108
13927,5120
14131,5148
14309,5192
14449,5247
14532,5306
14560,5345
14567,5389
14553,5459
14522,5558
14450,5719
14355,5855
14247,5955
14138,6006
14104,6010
13964,6011
13804,6012
13685,6012
13502,6012
13404,6011
13329,6006
13327,6006
13246,6013
13218,6022
13159,6015
13072,5963
13046,5943
12924,5809
12831,5641
12781,5467
12779,5447
12782,5396
12896,5396
12901,5451
12942,5490
12992,5489
13014,5446
13017,5422
14293,5422
14307,5481
14349,5510
14352,5510
14393,5483
14407,5457
14408,5396
14375,5356
14328,5357
14314,5367
14293,5422
13017,5422
13018,5408
12996,5356
12948,5346
12903,5381
12896,5396
12782,5396
12784,5354
12832,5288
12856,5269
12955,5216
13098,5169
13261,5132
13421,5112
13477,5110
13566,5106
13607,5087
13618,5040
13618,5015
13587,4908
13501,4826
13444,4799
13350,4796
13246,4835
13160,4904
13135,4938
13101,4990
13087,4978
13086,4971
13113,4906
13181,4836
13270,4777
13358,4745
13380,4743
13478,4763
13546,4796
13613,4830
13647,4822
13634,4781
13611,4755
13547,4719
13447,4691
13406,4685
13256,4689
13140,4745
13045,4858
13020,4902
12981,4967
12956,4990
12953,4983
12975,4896
13034,4797
13114,4712
13141,4692
13256,4647
13393,4634
13522,4655
" /> 
<polyline style="fill-rule:evenodd;"
points="17090,4651
17127,4651
17154,4652
17174,4653
17187,4654
17195,4656
17200,4659
17202,4662
17204,4665
17206,4675
17211,4696
17217,4725
17224,4760
17231,4799
17235,4820
17243,4861
17250,4897
17256,4929
17261,4952
17265,4966
17266,4969
17273,4974
17289,4982
17312,4993
17341,5006
17371,5019
17403,5032
17432,5044
17458,5054
17477,5061
17487,5064
17487,5064
17494,5060
17510,5051
17533,5036
17562,5017
17595,4995
17622,4976
17657,4952
17690,4931
17717,4912
17738,4899
17752,4891
17756,4889
17763,4893
17777,4905
17796,4923
17820,4946
17846,4972
17873,4999
17900,5027
17925,5053
17947,5076
17964,5095
17975,5108
17979,5114
17976,5122
17967,5138
17952,5162
17931,5194
17902,5236
17867,5287
17850,5312
17834,5336
17821,5357
17812,5372
17810,5378
17812,5386
17819,5404
17828,5428
17840,5457
17853,5488
17867,5520
17880,5549
17891,5575
17900,5594
17905,5604
17906,5605
17913,5607
17930,5611
17956,5617
17989,5623
18028,5631
18054,5636
18095,5644
18133,5651
18165,5657
18189,5662
18204,5665
18207,5666
18210,5669
18212,5677
18214,5691
18215,5711
18216,5741
18216,5780
18216,5829
18216,5878
18216,5916
18215,5944
18214,5964
18213,5977
18211,5985
18209,5989
18205,5991
18194,5994
18175,5998
18150,6002
18138,6004
18077,6015
18028,6025
17988,6033
17958,6039
17937,6045
17922,6049
17914,6053
17912,6055
17908,6063
17900,6081
17889,6105
17877,6135
17864,6167
17851,6199
17839,6230
17828,6256
17821,6277
17817,6289
17816,6291
17820,6297
17829,6312
17844,6334
17863,6362
17884,6395
17897,6414
17921,6448
17941,6479
17959,6506
17971,6527
17978,6540
17979,6543
17974,6551
17962,6566
17943,6588
17917,6615
17887,6646
17870,6663
17836,6697
17810,6722
17790,6741
17775,6754
17765,6762
17758,6765
17752,6765
17747,6764
17747,6764
17738,6758
17720,6746
17696,6730
17666,6710
17633,6688
17625,6682
17592,6660
17563,6640
17538,6624
17520,6613
17510,6608
17509,6608
17500,6610
17484,6618
17461,6628
17446,6636
17421,6648
17400,6657
17388,6660
17384,6660
17381,6653
17373,6636
17362,6610
17348,6577
17331,6538
17313,6496
17307,6479
17287,6431
17267,6382
17247,6336
17230,6294
17215,6259
17204,6232
17203,6231
17192,6202
17182,6177
17175,6159
17172,6149
17172,6148
17177,6141
17190,6129
17208,6115
17212,6112
17266,6067
17309,6018
17340,5965
17359,5907
17368,5845
17368,5829
17363,5767
17347,5709
17319,5656
17279,5606
17279,5605
17232,5564
17180,5533
17124,5513
17066,5503
17007,5504
16948,5516
16892,5538
16840,5572
16823,5587
16779,5633
16747,5686
16726,5743
16717,5805
16716,5826
16721,5888
16734,5944
16758,5995
16793,6042
16839,6086
16866,6108
16886,6123
16901,6137
16909,6147
16910,6149
16908,6156
16901,6174
16891,6201
16877,6235
16861,6275
16843,6319
16828,6356
16808,6405
16788,6453
16770,6497
16754,6536
16740,6568
16731,6592
16727,6601
16715,6630
16706,6649
16696,6658
16684,6658
16666,6651
16641,6638
16638,6636
16614,6624
16593,6614
16580,6609
16575,6608
16568,6611
16552,6620
16529,6635
16500,6654
16467,6676
16448,6689
16414,6712
16383,6732
16358,6749
16338,6762
16327,6769
16325,6770
16319,6766
16306,6754
16287,6736
16262,6712
16234,6684
16212,6662
16182,6632
16155,6604
16133,6580
16116,6561
16106,6548
16104,6544
16107,6536
16117,6519
16132,6495
16150,6466
16173,6433
16185,6416
16208,6382
16229,6351
16246,6325
16258,6305
16265,6293
16266,6290
16264,6282
16258,6263
16248,6238
16237,6208
16224,6176
16210,6143
16197,6112
16186,6086
16177,6066
16171,6054
16170,6052
16162,6049
16143,6044
16116,6038
16082,6030
16043,6023
16022,6019
15981,6011
15945,6004
15914,5998
15890,5992
15877,5988
15874,5987
15871,5979
15869,5961
15867,5934
15866,5901
15866,5865
15865,5826
15866,5787
15867,5751
15868,5718
15870,5692
15872,5674
15875,5666
15875,5666
15883,5664
15902,5660
15929,5655
15964,5648
16003,5641
16029,5636
16070,5628
16107,5621
16138,5614
16161,5609
16175,5605
16179,5604
16183,5595
16192,5578
16203,5553
16215,5524
16229,5493
16242,5461
16254,5432
16263,5407
16270,5389
16272,5380
16272,5380
16269,5372
16259,5355
16245,5331
16226,5302
16204,5269
16190,5249
16167,5214
16146,5183
16128,5155
16114,5134
16107,5121
16105,5118
16106,5112
16113,5101
16127,5085
16147,5062
16175,5033
16211,4998
16241,4967
16269,4941
16292,4918
16311,4901
16323,4891
16327,4889
16334,4892
16350,4902
16373,4917
16402,4936
16435,4958
16458,4974
16493,4998
16525,5020
16553,5038
16574,5052
16587,5060
16591,5062
16600,5060
16617,5055
16642,5046
16671,5035
16703,5023
16734,5011
16763,4998
16788,4988
16806,4979
16814,4974
16817,4966
16822,4948
16829,4920
16836,4886
16844,4847
16850,4815
16858,4773
16865,4735
16872,4702
16877,4677
16881,4662
16882,4657
16889,4655
16907,4654
16935,4653
16970,4652
17012,4651
17042,4651
17090,4651
" /> 
</g>
<g style="fill:#840084; fill-opacity:1.0; 
stroke:#840084; stroke-width:47.2441; stroke-opacity:1; 
stroke-linecap:round; stroke-linejoin:round;">
</g>
<g style="fill:#840084; fill-opacity:0.0; 
stroke:#840084; stroke-width:47.2441; stroke-opacity:1; 
stroke-linecap:round; stroke-linejoin:round;">
<path d="M12598 9362
L12322 9362
" />
<path d="M12322 8890
L12598 8890
" />
<path d="M12184 8683
L12932 8683
" />
<path d="M12736 7770
L12184 7770
" />
<path d="M11243 14220
L11243 13433
" />
<path d="M10077 13433
L10077 14220
" />
<path d="M7666 11909
L8454 11909
" />
<path d="M8454 10744
L7666 10744
" />
<path d="M15843 13020
L15843 12233
" />
<path d="M14677 12233
L14677 13020
" />
</g> 
</svg>
