<?xml version="1.0" standalone="no"?>
 <!DOCTYPE svg PUBLIC "-//W3C//DTD SVG 1.1//EN" 
 "http://www.w3.org/Graphics/SVG/1.1/DTD/svg11.dtd"> 
<svg xmlns="http://www.w3.org/2000/svg" version="1.1" 
    width="5.80136cm" height="4.43484cm" viewBox="0 0 22840 17460 ">
<title>SVG Picture created as fly_led-B.Mask.svg date 2017/03/24 21:05:44 </title>
  <desc>Picture generated by PCBNEW </desc>
<g style="fill:#000000; fill-opacity:1;stroke:#000000; stroke-opacity:1;
stroke-linecap:round; stroke-linejoin:round; "
 transform="translate(0 0) scale(1 1)">
</g>
<g style="fill:#840000; fill-opacity:0.0; 
stroke:#840000; stroke-width:-0.000393701; stroke-opacity:1; 
stroke-linecap:round; stroke-linejoin:round;">
</g>
<g style="fill:#840000; fill-opacity:0.0; 
stroke:#840000; stroke-width:0; stroke-opacity:1; 
stroke-linecap:round; stroke-linejoin:round;">
</g>
<g style="fill:#840000; fill-opacity:1.0; 
stroke:#840000; stroke-width:0; stroke-opacity:1; 
stroke-linecap:round; stroke-linejoin:round;">
<polyline style="fill-rule:evenodd;"
points="8934,5102
9486,5102
9486,4551
8934,4551
8934,5102
" /> 
</g>
<g style="fill:#840000; fill-opacity:1.0; 
stroke:#840000; stroke-width:551.181; stroke-opacity:1; 
stroke-linecap:round; stroke-linejoin:round;">
</g>
<g style="fill:#840000; fill-opacity:0.0; 
stroke:#840000; stroke-width:551.181; stroke-opacity:1; 
stroke-linecap:round; stroke-linejoin:round;">
<path d="M8710 4826
L8710 4826
" />
<path d="M8210 4826
L8210 4826
" />
<path d="M7710 4826
L7710 4826
" />
<path d="M7210 4826
L7210 4826
" />
</g>
<g style="fill:#008400; fill-opacity:0.0; 
stroke:#008400; stroke-width:551.181; stroke-opacity:1; 
stroke-linecap:round; stroke-linejoin:round;">
</g>
<g style="fill:#008400; fill-opacity:0.0; 
stroke:#008400; stroke-width:0; stroke-opacity:1; 
stroke-linecap:round; stroke-linejoin:round;">
</g>
<g style="fill:#008400; fill-opacity:1.0; 
stroke:#008400; stroke-width:0; stroke-opacity:1; 
stroke-linecap:round; stroke-linejoin:round;">
<polyline style="fill-rule:evenodd;"
points="11786,13595
11334,13595
11334,14067
11786,14067
11786,13595
" /> 
<polyline style="fill-rule:evenodd;"
points="11786,14185
11334,14185
11334,14658
11786,14658
11786,14185
" /> 
<polyline style="fill-rule:evenodd;"
points="12991,11153
12991,10700
12519,10700
12519,11153
12991,11153
" /> 
<polyline style="fill-rule:evenodd;"
points="12401,11153
12401,10700
11928,10700
11928,11153
12401,11153
" /> 
<polyline style="fill-rule:evenodd;"
points="9991,13153
9991,12700
9519,12700
9519,13153
9991,13153
" /> 
<polyline style="fill-rule:evenodd;"
points="9401,13153
9401,12700
8928,12700
8928,13153
9401,13153
" /> 
<polyline style="fill-rule:evenodd;"
points="14728,8100
14728,8553
15201,8553
15201,8100
14728,8100
" /> 
<polyline style="fill-rule:evenodd;"
points="15319,8100
15319,8553
15791,8553
15791,8100
15319,8100
" /> 
<polyline style="fill-rule:evenodd;"
points="7428,9200
7428,9653
7901,9653
7901,9200
7428,9200
" /> 
<polyline style="fill-rule:evenodd;"
points="8019,9200
8019,9653
8491,9653
8491,9200
8019,9200
" /> 
<polyline style="fill-rule:evenodd;"
points="7428,10200
7428,10653
7901,10653
7901,10200
7428,10200
" /> 
<polyline style="fill-rule:evenodd;"
points="8019,10200
8019,10653
8491,10653
8491,10200
8019,10200
" /> 
<polyline style="fill-rule:evenodd;"
points="7428,8200
7428,8653
7901,8653
7901,8200
7428,8200
" /> 
<polyline style="fill-rule:evenodd;"
points="8019,8200
8019,8653
8491,8653
8491,8200
8019,8200
" /> 
<polyline style="fill-rule:evenodd;"
points="8891,12553
8891,12100
8419,12100
8419,12553
8891,12553
" /> 
<polyline style="fill-rule:evenodd;"
points="8301,12553
8301,12100
7828,12100
7828,12553
8301,12553
" /> 
<polyline style="fill-rule:evenodd;"
points="9028,10800
9028,11253
9501,11253
9501,10800
9028,10800
" /> 
<polyline style="fill-rule:evenodd;"
points="9619,10800
9619,11253
10091,11253
10091,10800
9619,10800
" /> 
<polyline style="fill-rule:evenodd;"
points="18591,7553
18591,7100
18119,7100
18119,7553
18591,7553
" /> 
<polyline style="fill-rule:evenodd;"
points="18001,7553
18001,7100
17528,7100
17528,7553
18001,7553
" /> 
<polyline style="fill-rule:evenodd;"
points="8539,13446
8539,13859
9114,13859
9114,13446
8539,13446
" /> 
<polyline style="fill-rule:evenodd;"
points="8539,13820
8539,14233
9114,14233
9114,13820
8539,13820
" /> 
<polyline style="fill-rule:evenodd;"
points="8539,14194
8539,14607
9114,14607
9114,14194
8539,14194
" /> 
<polyline style="fill-rule:evenodd;"
points="9406,14194
9406,14607
9980,14607
9980,14194
9406,14194
" /> 
<polyline style="fill-rule:evenodd;"
points="9406,13446
9406,13859
9980,13859
9980,13446
9406,13446
" /> 
<polyline style="fill-rule:evenodd;"
points="9406,13820
9406,14233
9980,14233
9980,13820
9406,13820
" /> 
<polyline style="fill-rule:evenodd;"
points="11910,13466
11910,13938
12422,13938
12422,13466
11910,13466
" /> 
<polyline style="fill-rule:evenodd;"
points="11910,14214
11910,14687
12422,14687
12422,14214
11910,14214
" /> 
<polyline style="fill-rule:evenodd;"
points="12698,13840
12698,14312
13210,14312
13210,13840
12698,13840
" /> 
<polyline style="fill-rule:evenodd;"
points="11132,5182
11132,4670
10778,4670
10778,5182
11132,5182
" /> 
<polyline style="fill-rule:evenodd;"
points="10542,5182
10542,4670
10188,4670
10188,5182
10542,5182
" /> 
<polyline style="fill-rule:evenodd;"
points="10188,6095
10188,6607
10542,6607
10542,6095
10188,6095
" /> 
<polyline style="fill-rule:evenodd;"
points="10778,6095
10778,6607
11132,6607
11132,6095
10778,6095
" /> 
<polyline style="fill-rule:evenodd;"
points="14516,6454
14004,6454
14004,6808
14516,6808
14516,6454
" /> 
<polyline style="fill-rule:evenodd;"
points="14516,7044
14004,7044
14004,7399
14516,7399
14516,7044
" /> 
<polyline style="fill-rule:evenodd;"
points="10188,6770
10188,7282
10542,7282
10542,6770
10188,6770
" /> 
<polyline style="fill-rule:evenodd;"
points="10778,6770
10778,7282
11132,7282
11132,6770
10778,6770
" /> 
<polyline style="fill-rule:evenodd;"
points="13816,6454
13304,6454
13304,6808
13816,6808
13816,6454
" /> 
<polyline style="fill-rule:evenodd;"
points="13816,7044
13304,7044
13304,7399
13816,7399
13816,7044
" /> 
<polyline style="fill-rule:evenodd;"
points="12332,13282
12332,12770
11978,12770
11978,13282
12332,13282
" /> 
<polyline style="fill-rule:evenodd;"
points="11742,13282
11742,12770
11388,12770
11388,13282
11742,13282
" /> 
<polyline style="fill-rule:evenodd;"
points="11132,9282
11132,8770
10778,8770
10778,9282
11132,9282
" /> 
<polyline style="fill-rule:evenodd;"
points="10542,9282
10542,8770
10188,8770
10188,9282
10542,9282
" /> 
<polyline style="fill-rule:evenodd;"
points="11132,10282
11132,9770
10778,9770
10778,10282
11132,10282
" /> 
<polyline style="fill-rule:evenodd;"
points="10542,10282
10542,9770
10188,9770
10188,10282
10542,10282
" /> 
<polyline style="fill-rule:evenodd;"
points="7888,12720
7888,13232
8242,13232
8242,12720
7888,12720
" /> 
<polyline style="fill-rule:evenodd;"
points="8478,12720
8478,13232
8832,13232
8832,12720
8478,12720
" /> 
<polyline style="fill-rule:evenodd;"
points="7804,14324
8316,14324
8316,13969
7804,13969
7804,14324
" /> 
<polyline style="fill-rule:evenodd;"
points="7804,13733
8316,13733
8316,13379
7804,13379
7804,13733
" /> 
<polyline style="fill-rule:evenodd;"
points="16488,8670
16488,9182
16842,9182
16842,8670
16488,8670
" /> 
<polyline style="fill-rule:evenodd;"
points="17078,8670
17078,9182
17432,9182
17432,8670
17078,8670
" /> 
<polyline style="fill-rule:evenodd;"
points="16888,10470
16888,10982
17242,10982
17242,10470
16888,10470
" /> 
<polyline style="fill-rule:evenodd;"
points="17478,10470
17478,10982
17832,10982
17832,10470
17478,10470
" /> 
<polyline style="fill-rule:evenodd;"
points="15888,9770
15888,10282
16242,10282
16242,9770
15888,9770
" /> 
<polyline style="fill-rule:evenodd;"
points="16478,9770
16478,10282
16832,10282
16832,9770
16478,9770
" /> 
<polyline style="fill-rule:evenodd;"
points="14057,11182
14057,10670
13703,10670
13703,11182
14057,11182
" /> 
<polyline style="fill-rule:evenodd;"
points="13467,11182
13467,10670
13113,10670
13113,11182
13467,11182
" /> 
<polyline style="fill-rule:evenodd;"
points="15888,10470
15888,10982
16242,10982
16242,10470
15888,10470
" /> 
<polyline style="fill-rule:evenodd;"
points="16478,10470
16478,10982
16832,10982
16832,10470
16478,10470
" /> 
<polyline style="fill-rule:evenodd;"
points="16488,7070
16488,7582
16842,7582
16842,7070
16488,7070
" /> 
<polyline style="fill-rule:evenodd;"
points="17078,7070
17078,7582
17432,7582
17432,7070
17078,7070
" /> 
<polyline style="fill-rule:evenodd;"
points="14679,7013
14679,7328
15093,7328
15093,7013
14679,7013
" /> 
<polyline style="fill-rule:evenodd;"
points="14679,7525
14679,7840
15093,7840
15093,7525
14679,7525
" /> 
<polyline style="fill-rule:evenodd;"
points="15427,7269
15427,7584
15841,7584
15841,7269
15427,7269
" /> 
<polyline style="fill-rule:evenodd;"
points="14679,7269
14679,7584
15093,7584
15093,7269
14679,7269
" /> 
<polyline style="fill-rule:evenodd;"
points="15427,7525
15427,7840
15841,7840
15841,7525
15427,7525
" /> 
<polyline style="fill-rule:evenodd;"
points="15427,7013
15427,7328
15841,7328
15841,7013
15427,7013
" /> 
<polyline style="fill-rule:evenodd;"
points="13041,10440
13041,10125
12627,10125
12627,10440
13041,10440
" /> 
<polyline style="fill-rule:evenodd;"
points="13041,9928
13041,9613
12627,9613
12627,9928
13041,9928
" /> 
<polyline style="fill-rule:evenodd;"
points="12293,10184
12293,9869
11879,9869
11879,10184
12293,10184
" /> 
<polyline style="fill-rule:evenodd;"
points="13041,10184
13041,9869
12627,9869
12627,10184
13041,10184
" /> 
<polyline style="fill-rule:evenodd;"
points="12293,9928
12293,9613
11879,9613
11879,9928
12293,9928
" /> 
<polyline style="fill-rule:evenodd;"
points="12293,10440
12293,10125
11879,10125
11879,10440
12293,10440
" /> 
<polyline style="fill-rule:evenodd;"
points="14510,13037
14510,12564
13998,12564
13998,13037
14510,13037
" /> 
<polyline style="fill-rule:evenodd;"
points="14510,12288
14510,11816
13998,11816
13998,12288
14510,12288
" /> 
<polyline style="fill-rule:evenodd;"
points="13722,12662
13722,12190
13210,12190
13210,12662
13722,12662
" /> 
</g>
<g style="fill:#840000; fill-opacity:1.0; 
stroke:#840000; stroke-width:0; stroke-opacity:1; 
stroke-linecap:round; stroke-linejoin:round;">
<polyline style="fill-rule:evenodd;"
points="14497,14690
15323,14690
15323,13863
14497,13863
14497,14690
" /> 
</g>
<g style="fill:#840000; fill-opacity:1.0; 
stroke:#840000; stroke-width:826.772; stroke-opacity:1; 
stroke-linecap:round; stroke-linejoin:round;">
</g>
<g style="fill:#840000; fill-opacity:0.0; 
stroke:#840000; stroke-width:826.772; stroke-opacity:1; 
stroke-linecap:round; stroke-linejoin:round;">
<path d="M13910 14276
L13910 14276
" />
</g>
<g style="fill:#008400; fill-opacity:0.0; 
stroke:#008400; stroke-width:826.772; stroke-opacity:1; 
stroke-linecap:round; stroke-linejoin:round;">
</g>
<g style="fill:#008400; fill-opacity:0.0; 
stroke:#008400; stroke-width:0; stroke-opacity:1; 
stroke-linecap:round; stroke-linejoin:round;">
</g>
<g style="fill:#008400; fill-opacity:1.0; 
stroke:#008400; stroke-width:0; stroke-opacity:1; 
stroke-linecap:round; stroke-linejoin:round;">
<polyline style="fill-rule:evenodd;"
points="12991,9353
12991,8900
12519,8900
12519,9353
12991,9353
" /> 
<polyline style="fill-rule:evenodd;"
points="12401,9353
12401,8900
11928,8900
11928,9353
12401,9353
" /> 
<polyline style="fill-rule:evenodd;"
points="13041,8640
13041,8325
12627,8325
12627,8640
13041,8640
" /> 
<polyline style="fill-rule:evenodd;"
points="13041,8128
13041,7813
12627,7813
12627,8128
13041,8128
" /> 
<polyline style="fill-rule:evenodd;"
points="12293,8384
12293,8069
11879,8069
11879,8384
12293,8384
" /> 
<polyline style="fill-rule:evenodd;"
points="13041,8384
13041,8069
12627,8069
12627,8384
13041,8384
" /> 
<polyline style="fill-rule:evenodd;"
points="12293,8128
12293,7813
11879,7813
11879,8128
12293,8128
" /> 
<polyline style="fill-rule:evenodd;"
points="12293,8640
12293,8325
11879,8325
11879,8640
12293,8640
" /> 
</g>
<g style="fill:#840000; fill-opacity:1.0; 
stroke:#840000; stroke-width:0; stroke-opacity:1; 
stroke-linecap:round; stroke-linejoin:round;">
<polyline style="fill-rule:evenodd;"
points="9047,6440
9873,6440
9873,5613
9047,5613
9047,6440
" /> 
</g>
<g style="fill:#840000; fill-opacity:1.0; 
stroke:#840000; stroke-width:826.772; stroke-opacity:1; 
stroke-linecap:round; stroke-linejoin:round;">
</g>
<g style="fill:#840000; fill-opacity:0.0; 
stroke:#840000; stroke-width:826.772; stroke-opacity:1; 
stroke-linecap:round; stroke-linejoin:round;">
<path d="M8460 6026
L8460 6026
" />
<path d="M7460 6026
L7460 6026
" />
</g>
<g style="fill:#840000; fill-opacity:0.0; 
stroke:#840000; stroke-width:0; stroke-opacity:1; 
stroke-linecap:round; stroke-linejoin:round;">
</g>
<g style="fill:#840000; fill-opacity:1.0; 
stroke:#840000; stroke-width:0; stroke-opacity:1; 
stroke-linecap:round; stroke-linejoin:round;">
<polyline style="fill-rule:evenodd;"
points="9047,7440
9873,7440
9873,6613
9047,6613
9047,7440
" /> 
</g>
<g style="fill:#840000; fill-opacity:1.0; 
stroke:#840000; stroke-width:826.772; stroke-opacity:1; 
stroke-linecap:round; stroke-linejoin:round;">
</g>
<g style="fill:#840000; fill-opacity:0.0; 
stroke:#840000; stroke-width:826.772; stroke-opacity:1; 
stroke-linecap:round; stroke-linejoin:round;">
<path d="M8460 7026
L8460 7026
" />
<path d="M7460 7026
L7460 7026
" />
</g>
<g style="fill:#840000; fill-opacity:0.0; 
stroke:#840000; stroke-width:0; stroke-opacity:1; 
stroke-linecap:round; stroke-linejoin:round;">
</g>
<g style="fill:#840000; fill-opacity:1.0; 
stroke:#840000; stroke-width:0; stroke-opacity:1; 
stroke-linecap:round; stroke-linejoin:round;">
<polyline style="fill-rule:evenodd;"
points="9047,9440
9873,9440
9873,8613
9047,8613
9047,9440
" /> 
</g>
<g style="fill:#840000; fill-opacity:1.0; 
stroke:#840000; stroke-width:826.772; stroke-opacity:1; 
stroke-linecap:round; stroke-linejoin:round;">
</g>
<g style="fill:#840000; fill-opacity:0.0; 
stroke:#840000; stroke-width:826.772; stroke-opacity:1; 
stroke-linecap:round; stroke-linejoin:round;">
<path d="M8460 9026
L8460 9026
" />
<path d="M7460 9026
L7460 9026
" />
</g>
<g style="fill:#840000; fill-opacity:0.0; 
stroke:#840000; stroke-width:0; stroke-opacity:1; 
stroke-linecap:round; stroke-linejoin:round;">
</g>
<g style="fill:#840000; fill-opacity:1.0; 
stroke:#840000; stroke-width:0; stroke-opacity:1; 
stroke-linecap:round; stroke-linejoin:round;">
<polyline style="fill-rule:evenodd;"
points="9047,10440
9873,10440
9873,9613
9047,9613
9047,10440
" /> 
</g>
<g style="fill:#840000; fill-opacity:1.0; 
stroke:#840000; stroke-width:826.772; stroke-opacity:1; 
stroke-linecap:round; stroke-linejoin:round;">
</g>
<g style="fill:#840000; fill-opacity:0.0; 
stroke:#840000; stroke-width:826.772; stroke-opacity:1; 
stroke-linecap:round; stroke-linejoin:round;">
<path d="M8460 10026
L8460 10026
" />
<path d="M7460 10026
L7460 10026
" />
</g>
<g style="fill:#840000; fill-opacity:0.0; 
stroke:#840000; stroke-width:0; stroke-opacity:1; 
stroke-linecap:round; stroke-linejoin:round;">
</g>
<g style="fill:#840000; fill-opacity:1.0; 
stroke:#840000; stroke-width:0; stroke-opacity:1; 
stroke-linecap:round; stroke-linejoin:round;">
<polyline style="fill-rule:evenodd;"
points="9047,8440
9873,8440
9873,7613
9047,7613
9047,8440
" /> 
</g>
<g style="fill:#840000; fill-opacity:1.0; 
stroke:#840000; stroke-width:826.772; stroke-opacity:1; 
stroke-linecap:round; stroke-linejoin:round;">
</g>
<g style="fill:#840000; fill-opacity:0.0; 
stroke:#840000; stroke-width:826.772; stroke-opacity:1; 
stroke-linecap:round; stroke-linejoin:round;">
<path d="M8460 8026
L8460 8026
" />
<path d="M7460 8026
L7460 8026
" />
</g>
<g style="fill:#008400; fill-opacity:0.0; 
stroke:#008400; stroke-width:826.772; stroke-opacity:1; 
stroke-linecap:round; stroke-linejoin:round;">
</g>
<g style="fill:#008400; fill-opacity:0.0; 
stroke:#008400; stroke-width:0; stroke-opacity:1; 
stroke-linecap:round; stroke-linejoin:round;">
</g>
<g style="fill:#008400; fill-opacity:1.0; 
stroke:#008400; stroke-width:0; stroke-opacity:1; 
stroke-linecap:round; stroke-linejoin:round;">
<polyline style="fill-rule:evenodd;"
points="11231,12960
10089,12960
10089,13511
11231,13511
11231,12960
" /> 
<polyline style="fill-rule:evenodd;"
points="11231,14141
10089,14141
10089,14692
11231,14692
11231,14141
" /> 
<polyline style="fill-rule:evenodd;"
points="8926,11897
8926,10755
8375,10755
8375,11897
8926,11897
" /> 
<polyline style="fill-rule:evenodd;"
points="7745,11897
7745,10755
7194,10755
7194,11897
7745,11897
" /> 
<polyline style="fill-rule:evenodd;"
points="15831,11760
14689,11760
14689,12311
15831,12311
15831,11760
" /> 
<polyline style="fill-rule:evenodd;"
points="15831,12941
14689,12941
14689,13492
15831,13492
15831,12941
" /> 
</g> 
</svg>
