<?xml version="1.0" standalone="no"?>
 <!DOCTYPE svg PUBLIC "-//W3C//DTD SVG 1.1//EN" 
 "http://www.w3.org/Graphics/SVG/1.1/DTD/svg11.dtd"> 
<svg xmlns="http://www.w3.org/2000/svg" version="1.1" 
    width="5.80136cm" height="4.43484cm" viewBox="0 0 22840 17460 ">
<title>SVG Picture created as fly_led-Dwgs.User.svg date 2017/03/24 21:05:44 </title>
  <desc>Picture generated by PCBNEW </desc>
<g style="fill:#000000; fill-opacity:1;stroke:#000000; stroke-opacity:1;
stroke-linecap:round; stroke-linejoin:round; "
 transform="translate(0 0) scale(1 1)">
</g>
<g style="fill:#C2C2C2; fill-opacity:0.0; 
stroke:#C2C2C2; stroke-width:-0.000393701; stroke-opacity:1; 
stroke-linecap:round; stroke-linejoin:round;">
</g>
<g style="fill:#C2C2C2; fill-opacity:0.0; 
stroke:#C2C2C2; stroke-width:118.11; stroke-opacity:1; 
stroke-linecap:round; stroke-linejoin:round;">
<path d="M2822 12170
L2850 12142
L2878 12086
L2878 11946
L2850 11889
L2822 11861
L2765 11833
L2709 11833
L2625 11861
L2287 12199
L2287 11833
" />
<path d="M2287 11552
L2287 11439
L2315 11383
L2344 11355
L2428 11299
L2540 11271
L2765 11271
L2822 11299
L2850 11327
L2878 11383
L2878 11496
L2850 11552
L2822 11580
L2765 11608
L2625 11608
L2568 11580
L2540 11552
L2512 11496
L2512 11383
L2540 11327
L2568 11299
L2625 11271
" />
<path d="M2315 10989
L2287 10989
L2231 11017
L2203 11046
" />
<path d="M2878 10624
L2878 10568
L2850 10511
L2822 10483
L2765 10455
L2653 10427
L2512 10427
L2400 10455
L2344 10483
L2315 10511
L2287 10568
L2287 10624
L2315 10680
L2344 10708
L2400 10736
L2512 10764
L2653 10764
L2765 10736
L2822 10708
L2850 10680
L2878 10624
" />
<path d="M2878 10061
L2878 10005
L2850 9949
L2822 9921
L2765 9893
L2653 9865
L2512 9865
L2400 9893
L2344 9921
L2315 9949
L2287 10005
L2287 10061
L2315 10118
L2344 10146
L2400 10174
L2512 10202
L2653 10202
L2765 10174
L2822 10146
L2850 10118
L2878 10061
" />
<path d="M2878 9499
L2878 9443
L2850 9386
L2822 9358
L2765 9330
L2653 9302
L2512 9302
L2400 9330
L2344 9358
L2315 9386
L2287 9443
L2287 9499
L2315 9555
L2344 9583
L2400 9611
L2512 9640
L2653 9640
L2765 9611
L2822 9583
L2850 9555
L2878 9499
" />
<path d="M2287 8599
L2681 8599
" />
<path d="M2625 8599
L2653 8571
L2681 8515
L2681 8430
L2653 8374
L2597 8346
L2287 8346
" />
<path d="M2597 8346
L2653 8318
L2681 8262
L2681 8177
L2653 8121
L2597 8093
L2287 8093
" />
<path d="M2287 7812
L2681 7812
" />
<path d="M2625 7812
L2653 7784
L2681 7727
L2681 7643
L2653 7587
L2597 7559
L2287 7559
" />
<path d="M2597 7559
L2653 7530
L2681 7474
L2681 7390
L2653 7334
L2597 7305
L2287 7305
" />
<path d="M3086 15433
L3086 4015
" />
<path d="M6629 15433
L2023 15433
" />
<path d="M6629 4015
L2023 4015
" />
<path d="M3086 4015
L2855 4459
" />
<path d="M3086 4015
L3317 4459
" />
<path d="M3086 15433
L2855 14989
" />
<path d="M3086 15433
L3317 14989
" />
<path d="M16191 208
L15825 208
L16022 433
L15937 433
L15881 461
L15853 489
L15825 545
L15825 686
L15853 742
L15881 770
L15937 798
L16106 798
L16162 770
L16191 742
" />
<path d="M15319 208
L15431 208
L15488 236
L15516 264
L15572 348
L15600 461
L15600 686
L15572 742
L15544 770
L15488 798
L15375 798
L15319 770
L15291 742
L15263 686
L15263 545
L15291 489
L15319 461
L15375 433
L15488 433
L15544 461
L15572 489
L15600 545
" />
<path d="M14981 770
L14981 798
L15009 854
L15038 883
" />
<path d="M14616 208
L14559 208
L14503 236
L14475 264
L14447 320
L14419 433
L14419 573
L14447 686
L14475 742
L14503 770
L14559 798
L14616 798
L14672 770
L14700 742
L14728 686
L14756 573
L14756 433
L14728 320
L14700 264
L14672 236
L14616 208
" />
<path d="M14053 208
L13997 208
L13941 236
L13913 264
L13885 320
L13856 433
L13856 573
L13885 686
L13913 742
L13941 770
L13997 798
L14053 798
L14110 770
L14138 742
L14166 686
L14194 573
L14194 433
L14166 320
L14138 264
L14110 236
L14053 208
" />
<path d="M13491 208
L13435 208
L13378 236
L13350 264
L13322 320
L13294 433
L13294 573
L13322 686
L13350 742
L13378 770
L13435 798
L13491 798
L13547 770
L13575 742
L13603 686
L13631 573
L13631 433
L13603 320
L13575 264
L13547 236
L13491 208
" />
<path d="M12591 798
L12591 404
" />
<path d="M12591 461
L12563 433
L12507 404
L12422 404
L12366 433
L12338 489
L12338 798
" />
<path d="M12338 489
L12310 433
L12254 404
L12169 404
L12113 433
L12085 489
L12085 798
" />
<path d="M11804 798
L11804 404
" />
<path d="M11804 461
L11775 433
L11719 404
L11635 404
L11579 433
L11550 489
L11550 798
" />
<path d="M11550 489
L11522 433
L11466 404
L11382 404
L11326 433
L11297 489
L11297 798
" />
<path d="M20802 1062
L6629 1062
" />
<path d="M20802 4015
L20802 0
" />
<path d="M6629 4015
L6629 0
" />
<path d="M6629 1062
L7073 1293
" />
<path d="M6629 1062
L7073 832
" />
<path d="M20802 1062
L20359 1293
" />
<path d="M20802 1062
L20359 832
" />
</g>
<g style="fill:#C2C200; fill-opacity:0.0; 
stroke:#C2C200; stroke-width:118.11; stroke-opacity:1; 
stroke-linecap:round; stroke-linejoin:round;">
</g>
<g style="fill:#C2C200; fill-opacity:0.0; 
stroke:#C2C200; stroke-width:59.0551; stroke-opacity:1; 
stroke-linecap:round; stroke-linejoin:round;">
<path d="M7088 13458
L7088 13645
L7482 13645
" />
<path d="M7088 13120
L7088 13345
" />
<path d="M7088 13233
L7482 13233
L7426 13270
L7388 13308
L7370 13345
" />
<path d="M7482 12876
L7482 12839
L7463 12801
L7445 12783
L7407 12764
L7332 12745
L7238 12745
L7163 12764
L7126 12783
L7107 12801
L7088 12839
L7088 12876
L7107 12914
L7126 12933
L7163 12951
L7238 12970
L7332 12970
L7407 12951
L7445 12933
L7463 12914
L7482 12876
" />
<path d="M7088 12370
L7088 12595
" />
<path d="M7088 12483
L7482 12483
L7426 12520
L7388 12558
L7370 12595
" />
</g>
<g style="fill:#840000; fill-opacity:0.0; 
stroke:#840000; stroke-width:59.0551; stroke-opacity:1; 
stroke-linecap:round; stroke-linejoin:round;">
<path d="M11457 16902
L11438 16921
L11419 16977
L11419 17015
L11438 17071
L11475 17109
L11513 17127
L11588 17146
L11644 17146
L11719 17127
L11757 17109
L11794 17071
L11813 17015
L11813 16977
L11794 16921
L11775 16902
" />
<path d="M11419 16528
L11419 16752
" />
<path d="M11419 16640
L11813 16640
L11757 16677
L11719 16715
L11700 16752
" />
<path d="M11813 16284
L11813 16246
L11794 16209
L11775 16190
L11738 16171
L11663 16153
L11569 16153
L11494 16171
L11457 16190
L11438 16209
L11419 16246
L11419 16284
L11438 16321
L11457 16340
L11494 16359
L11569 16378
L11663 16378
L11738 16359
L11775 16340
L11794 16321
L11813 16284
" />
<path d="M11419 15778
L11419 16003
" />
<path d="M11419 15890
L11813 15890
L11757 15928
L11719 15965
L11700 16003
" />
<path d="M12727 11583
L12745 11602
L12802 11620
L12839 11620
L12895 11602
L12933 11564
L12952 11527
L12970 11452
L12970 11395
L12952 11320
L12933 11283
L12895 11245
L12839 11227
L12802 11227
L12745 11245
L12727 11264
" />
<path d="M12352 11620
L12577 11620
" />
<path d="M12464 11620
L12464 11227
L12502 11283
L12539 11320
L12577 11339
" />
<path d="M12108 11227
L12071 11227
L12033 11245
L12014 11264
L11996 11302
L11977 11377
L11977 11470
L11996 11545
L12014 11583
L12033 11602
L12071 11620
L12108 11620
L12146 11602
L12164 11583
L12183 11545
L12202 11470
L12202 11377
L12183 11302
L12164 11264
L12146 11245
L12108 11227
" />
<path d="M11846 11227
L11602 11227
L11733 11377
L11677 11377
L11639 11395
L11621 11414
L11602 11452
L11602 11545
L11621 11583
L11639 11602
L11677 11620
L11789 11620
L11827 11602
L11846 11583
" />
</g>
<g style="fill:#C2C200; fill-opacity:0.0; 
stroke:#C2C200; stroke-width:59.0551; stroke-opacity:1; 
stroke-linecap:round; stroke-linejoin:round;">
<path d="M5837 7646
L5856 7665
L5912 7683
L5949 7683
L6006 7665
L6043 7627
L6062 7590
L6081 7515
L6081 7458
L6062 7383
L6043 7346
L6006 7308
L5949 7290
L5912 7290
L5856 7308
L5837 7327
" />
<path d="M5462 7683
L5687 7683
" />
<path d="M5574 7683
L5574 7290
L5612 7346
L5649 7383
L5687 7402
" />
<path d="M5218 7290
L5181 7290
L5143 7308
L5125 7327
L5106 7365
L5087 7440
L5087 7533
L5106 7608
L5125 7646
L5143 7665
L5181 7683
L5218 7683
L5256 7665
L5275 7646
L5293 7608
L5312 7533
L5312 7440
L5293 7365
L5275 7327
L5256 7308
L5218 7290
" />
<path d="M4750 7421
L4750 7683
" />
<path d="M4843 7271
L4937 7552
L4693 7552
" />
</g>
<g style="fill:#840000; fill-opacity:0.0; 
stroke:#840000; stroke-width:59.0551; stroke-opacity:1; 
stroke-linecap:round; stroke-linejoin:round;">
<path d="M10758 12469
L10777 12487
L10833 12506
L10871 12506
L10927 12487
L10964 12450
L10983 12412
L11002 12337
L11002 12281
L10983 12206
L10964 12169
L10927 12131
L10871 12112
L10833 12112
L10777 12131
L10758 12150
" />
<path d="M10383 12506
L10608 12506
" />
<path d="M10496 12506
L10496 12112
L10533 12169
L10571 12206
L10608 12225
" />
<path d="M10140 12112
L10102 12112
L10065 12131
L10046 12150
L10027 12187
L10008 12262
L10008 12356
L10027 12431
L10046 12469
L10065 12487
L10102 12506
L10140 12506
L10177 12487
L10196 12469
L10215 12431
L10233 12356
L10233 12262
L10215 12187
L10196 12150
L10177 12131
L10140 12112
" />
<path d="M9652 12112
L9840 12112
L9858 12300
L9840 12281
L9802 12262
L9708 12262
L9671 12281
L9652 12300
L9633 12337
L9633 12431
L9652 12469
L9671 12487
L9708 12506
L9802 12506
L9840 12487
L9858 12469
" />
</g>
<g style="fill:#C2C200; fill-opacity:0.0; 
stroke:#C2C200; stroke-width:59.0551; stroke-opacity:1; 
stroke-linecap:round; stroke-linejoin:round;">
<path d="M22372 14043
L22391 14062
L22447 14081
L22485 14081
L22541 14062
L22579 14025
L22597 13987
L22616 13912
L22616 13856
L22597 13781
L22579 13743
L22541 13706
L22485 13687
L22447 13687
L22391 13706
L22372 13725
" />
<path d="M21997 14081
L22222 14081
" />
<path d="M22110 14081
L22110 13687
L22147 13743
L22185 13781
L22222 13800
" />
<path d="M21754 13687
L21716 13687
L21679 13706
L21660 13725
L21641 13762
L21622 13837
L21622 13931
L21641 14006
L21660 14043
L21679 14062
L21716 14081
L21754 14081
L21791 14062
L21810 14043
L21829 14006
L21847 13931
L21847 13837
L21829 13762
L21810 13725
L21791 13706
L21754 13687
" />
<path d="M21285 13687
L21360 13687
L21397 13706
L21416 13725
L21454 13781
L21472 13856
L21472 14006
L21454 14043
L21435 14062
L21397 14081
L21322 14081
L21285 14062
L21266 14043
L21248 14006
L21248 13912
L21266 13875
L21285 13856
L21322 13837
L21397 13837
L21435 13856
L21454 13875
L21472 13912
" />
</g>
<g style="fill:#840000; fill-opacity:0.0; 
stroke:#840000; stroke-width:59.0551; stroke-opacity:1; 
stroke-linecap:round; stroke-linejoin:round;">
<path d="M15679 9024
L15698 9043
L15754 9061
L15792 9061
L15848 9043
L15886 9005
L15904 8968
L15923 8893
L15923 8836
L15904 8761
L15886 8724
L15848 8686
L15792 8668
L15754 8668
L15698 8686
L15679 8705
" />
<path d="M15304 9061
L15529 9061
" />
<path d="M15417 9061
L15417 8668
L15454 8724
L15492 8761
L15529 8780
" />
<path d="M15061 8668
L15023 8668
L14986 8686
L14967 8705
L14948 8743
L14930 8818
L14930 8911
L14948 8986
L14967 9024
L14986 9043
L15023 9061
L15061 9061
L15098 9043
L15117 9024
L15136 8986
L15155 8911
L15155 8818
L15136 8743
L15117 8705
L15098 8686
L15061 8668
" />
<path d="M14798 8668
L14536 8668
L14705 9061
" />
<path d="M4754 9516
L4773 9535
L4829 9553
L4867 9553
L4923 9535
L4960 9497
L4979 9460
L4998 9385
L4998 9328
L4979 9253
L4960 9216
L4923 9178
L4867 9160
L4829 9160
L4773 9178
L4754 9197
" />
<path d="M4379 9553
L4604 9553
" />
<path d="M4492 9553
L4492 9160
L4529 9216
L4567 9253
L4604 9272
" />
<path d="M4136 9160
L4098 9160
L4061 9178
L4042 9197
L4023 9235
L4004 9310
L4004 9403
L4023 9478
L4042 9516
L4061 9535
L4098 9553
L4136 9553
L4173 9535
L4192 9516
L4211 9478
L4229 9403
L4229 9310
L4211 9235
L4192 9197
L4173 9178
L4136 9160
" />
<path d="M3779 9328
L3817 9310
L3836 9291
L3854 9253
L3854 9235
L3836 9197
L3817 9178
L3779 9160
L3704 9160
L3667 9178
L3648 9197
L3629 9235
L3629 9253
L3648 9291
L3667 9310
L3704 9328
L3779 9328
L3817 9347
L3836 9366
L3854 9403
L3854 9478
L3836 9516
L3817 9535
L3779 9553
L3704 9553
L3667 9535
L3648 9516
L3629 9478
L3629 9403
L3648 9366
L3667 9347
L3704 9328
" />
<path d="M4754 10599
L4773 10617
L4829 10636
L4867 10636
L4923 10617
L4960 10580
L4979 10542
L4998 10467
L4998 10411
L4979 10336
L4960 10299
L4923 10261
L4867 10242
L4829 10242
L4773 10261
L4754 10280
" />
<path d="M4379 10636
L4604 10636
" />
<path d="M4492 10636
L4492 10242
L4529 10299
L4567 10336
L4604 10355
" />
<path d="M4136 10242
L4098 10242
L4061 10261
L4042 10280
L4023 10317
L4004 10392
L4004 10486
L4023 10561
L4042 10599
L4061 10617
L4098 10636
L4136 10636
L4173 10617
L4192 10599
L4211 10561
L4229 10486
L4229 10392
L4211 10317
L4192 10280
L4173 10261
L4136 10242
" />
<path d="M3817 10636
L3742 10636
L3704 10617
L3686 10599
L3648 10542
L3629 10467
L3629 10317
L3648 10280
L3667 10261
L3704 10242
L3779 10242
L3817 10261
L3836 10280
L3854 10317
L3854 10411
L3836 10449
L3817 10467
L3779 10486
L3704 10486
L3667 10467
L3648 10449
L3629 10411
" />
<path d="M4754 8532
L4773 8550
L4829 8569
L4867 8569
L4923 8550
L4960 8513
L4979 8475
L4998 8400
L4998 8344
L4979 8269
L4960 8232
L4923 8194
L4867 8175
L4829 8175
L4773 8194
L4754 8213
" />
<path d="M4379 8569
L4604 8569
" />
<path d="M4492 8569
L4492 8175
L4529 8232
L4567 8269
L4604 8288
" />
<path d="M4004 8569
L4229 8569
" />
<path d="M4117 8569
L4117 8175
L4154 8232
L4192 8269
L4229 8288
" />
<path d="M3761 8175
L3723 8175
L3686 8194
L3667 8213
L3648 8250
L3629 8325
L3629 8419
L3648 8494
L3667 8532
L3686 8550
L3723 8569
L3761 8569
L3798 8550
L3817 8532
L3836 8494
L3854 8419
L3854 8325
L3836 8250
L3817 8213
L3798 8194
L3761 8175
" />
<path d="M5935 12469
L5954 12487
L6010 12506
L6048 12506
L6104 12487
L6142 12450
L6160 12412
L6179 12337
L6179 12281
L6160 12206
L6142 12169
L6104 12131
L6048 12112
L6010 12112
L5954 12131
L5935 12150
" />
<path d="M5560 12506
L5785 12506
" />
<path d="M5673 12506
L5673 12112
L5710 12169
L5748 12206
L5785 12225
" />
<path d="M5185 12506
L5410 12506
" />
<path d="M5298 12506
L5298 12112
L5335 12169
L5373 12206
L5410 12225
" />
<path d="M4810 12506
L5035 12506
" />
<path d="M4923 12506
L4923 12112
L4960 12169
L4998 12206
L5035 12225
" />
<path d="M10758 11780
L10777 11798
L10833 11817
L10871 11817
L10927 11798
L10964 11761
L10983 11723
L11002 11648
L11002 11592
L10983 11517
L10964 11480
L10927 11442
L10871 11423
L10833 11423
L10777 11442
L10758 11461
" />
<path d="M10383 11817
L10608 11817
" />
<path d="M10496 11817
L10496 11423
L10533 11480
L10571 11517
L10608 11536
" />
<path d="M10008 11817
L10233 11817
" />
<path d="M10121 11817
L10121 11423
L10158 11480
L10196 11517
L10233 11536
" />
<path d="M9858 11461
L9840 11442
L9802 11423
L9708 11423
L9671 11442
L9652 11461
L9633 11498
L9633 11536
L9652 11592
L9877 11817
L9633 11817
" />
</g>
<g style="fill:#C2C200; fill-opacity:0.0; 
stroke:#C2C200; stroke-width:59.0551; stroke-opacity:1; 
stroke-linecap:round; stroke-linejoin:round;">
<path d="M22372 12961
L22391 12980
L22447 12998
L22485 12998
L22541 12980
L22579 12942
L22597 12905
L22616 12830
L22616 12773
L22597 12698
L22579 12661
L22541 12623
L22485 12605
L22447 12605
L22391 12623
L22372 12642
" />
<path d="M21997 12998
L22222 12998
" />
<path d="M22110 12998
L22110 12605
L22147 12661
L22185 12698
L22222 12717
" />
<path d="M21622 12998
L21847 12998
" />
<path d="M21735 12998
L21735 12605
L21772 12661
L21810 12698
L21847 12717
" />
<path d="M21285 12736
L21285 12998
" />
<path d="M21379 12586
L21472 12867
L21229 12867
" />
<path d="M22471 11484
L22490 11503
L22546 11522
L22583 11522
L22640 11503
L22677 11466
L22696 11428
L22715 11353
L22715 11297
L22696 11222
L22677 11184
L22640 11147
L22583 11128
L22546 11128
L22490 11147
L22471 11166
" />
<path d="M22096 11522
L22321 11522
" />
<path d="M22208 11522
L22208 11128
L22246 11184
L22283 11222
L22321 11241
" />
<path d="M21721 11522
L21946 11522
" />
<path d="M21833 11522
L21833 11128
L21871 11184
L21908 11222
L21946 11241
" />
<path d="M21383 11128
L21458 11128
L21496 11147
L21515 11166
L21552 11222
L21571 11297
L21571 11447
L21552 11484
L21533 11503
L21496 11522
L21421 11522
L21383 11503
L21365 11484
L21346 11447
L21346 11353
L21365 11316
L21383 11297
L21421 11278
L21496 11278
L21533 11297
L21552 11316
L21571 11353
" />
</g>
<g style="fill:#840000; fill-opacity:0.0; 
stroke:#840000; stroke-width:59.0551; stroke-opacity:1; 
stroke-linecap:round; stroke-linejoin:round;">
<path d="M19912 7843
L19930 7861
L19987 7880
L20024 7880
L20080 7861
L20118 7824
L20137 7786
L20155 7711
L20155 7655
L20137 7580
L20118 7543
L20080 7505
L20024 7486
L19987 7486
L19930 7505
L19912 7524
" />
<path d="M19537 7880
L19762 7880
" />
<path d="M19649 7880
L19649 7486
L19687 7543
L19724 7580
L19762 7599
" />
<path d="M19162 7880
L19387 7880
" />
<path d="M19274 7880
L19274 7486
L19312 7543
L19349 7580
L19387 7599
" />
<path d="M19031 7486
L18768 7486
L18937 7880
" />
<path d="M9057 17127
L9451 17127
L9451 17034
L9432 16977
L9394 16940
L9357 16921
L9282 16902
L9226 16902
L9151 16921
L9113 16940
L9076 16977
L9057 17034
L9057 17127
" />
<path d="M9057 16528
L9057 16752
" />
<path d="M9057 16640
L9451 16640
L9394 16677
L9357 16715
L9338 16752
" />
<path d="M9451 16284
L9451 16246
L9432 16209
L9413 16190
L9376 16171
L9301 16153
L9207 16153
L9132 16171
L9094 16190
L9076 16209
L9057 16246
L9057 16284
L9076 16321
L9094 16340
L9132 16359
L9207 16378
L9301 16378
L9376 16359
L9413 16340
L9432 16321
L9451 16284
" />
<path d="M9057 15778
L9057 16003
" />
<path d="M9057 15890
L9451 15890
L9394 15928
L9357 15965
L9338 16003
" />
</g>
<g style="fill:#008484; fill-opacity:0.0; 
stroke:#008484; stroke-width:59.0551; stroke-opacity:1; 
stroke-linecap:round; stroke-linejoin:round;">
</g>
<g style="fill:#008484; fill-opacity:0.0; 
stroke:#008484; stroke-width:78.7402; stroke-opacity:1; 
stroke-linecap:round; stroke-linejoin:round;">
<path d="M11822 3549
L12010 3549
L12010 3156
" />
<path d="M11691 3343
L11560 3343
" />
<path d="M11503 3549
L11691 3549
L11691 3156
L11503 3156
" />
<path d="M11335 3549
L11335 3156
L11241 3156
L11185 3175
L11147 3212
L11128 3249
L11110 3324
L11110 3381
L11128 3456
L11147 3493
L11185 3531
L11241 3549
L11335 3549
" />
<path d="M10735 3549
L10960 3549
" />
<path d="M10847 3549
L10847 3156
L10885 3212
L10922 3249
L10960 3268
" />
<path d="M10491 3156
L10454 3156
L10416 3175
L10397 3193
L10379 3231
L10360 3306
L10360 3399
L10379 3474
L10397 3512
L10416 3531
L10454 3549
L10491 3549
L10529 3531
L10547 3512
L10566 3474
L10585 3399
L10585 3306
L10566 3231
L10547 3193
L10529 3175
L10491 3156
" />
<path d="M9985 3549
L10210 3549
" />
<path d="M10097 3549
L10097 3156
L10135 3212
L10172 3249
L10210 3268
" />
</g>
<g style="fill:#840000; fill-opacity:0.0; 
stroke:#840000; stroke-width:78.7402; stroke-opacity:1; 
stroke-linecap:round; stroke-linejoin:round;">
</g>
<g style="fill:#840000; fill-opacity:0.0; 
stroke:#840000; stroke-width:59.0551; stroke-opacity:1; 
stroke-linecap:round; stroke-linejoin:round;">
<path d="M12661 16973
L12680 17010
L12717 17048
L12774 17104
L12792 17142
L12792 17179
" />
<path d="M12699 17160
L12717 17198
L12755 17235
L12830 17254
L12961 17254
L13036 17235
L13074 17198
L13092 17160
L13092 17085
L13074 17048
L13036 17010
L12961 16992
L12830 16992
L12755 17010
L12717 17048
L12699 17085
L12699 17160
" />
<path d="M12699 16617
L12699 16842
" />
<path d="M12699 16729
L13092 16729
L13036 16767
L12999 16804
L12980 16842
" />
<path d="M13092 16373
L13092 16335
L13074 16298
L13055 16279
L13017 16260
L12942 16242
L12849 16242
L12774 16260
L12736 16279
L12717 16298
L12699 16335
L12699 16373
L12717 16410
L12736 16429
L12774 16448
L12849 16467
L12942 16467
L13017 16448
L13055 16429
L13074 16410
L13092 16373
" />
<path d="M12699 15867
L12699 16092
" />
<path d="M12699 15979
L13092 15979
L13036 16017
L12999 16054
L12980 16092
" />
<path d="M5935 4731
L6067 4543
" />
<path d="M6160 4731
L6160 4337
L6010 4337
L5973 4356
L5954 4374
L5935 4412
L5935 4468
L5954 4506
L5973 4524
L6010 4543
L6160 4543
" />
<path d="M5560 4731
L5785 4731
" />
<path d="M5673 4731
L5673 4337
L5710 4393
L5748 4431
L5785 4449
" />
<path d="M5317 4337
L5279 4337
L5242 4356
L5223 4374
L5204 4412
L5185 4487
L5185 4581
L5204 4656
L5223 4693
L5242 4712
L5279 4731
L5317 4731
L5354 4712
L5373 4693
L5392 4656
L5410 4581
L5410 4487
L5392 4412
L5373 4374
L5354 4356
L5317 4337
" />
<path d="M4810 4731
L5035 4731
" />
<path d="M4923 4731
L4923 4337
L4960 4393
L4998 4431
L5035 4449
" />
</g>
<g style="fill:#C2C200; fill-opacity:0.0; 
stroke:#C2C200; stroke-width:59.0551; stroke-opacity:1; 
stroke-linecap:round; stroke-linejoin:round;">
<path d="M12108 17001
L12295 17132
" />
<path d="M12108 17226
L12502 17226
L12502 17076
L12483 17038
L12464 17020
L12427 17001
L12370 17001
L12333 17020
L12314 17038
L12295 17076
L12295 17226
" />
<path d="M12108 16626
L12108 16851
" />
<path d="M12108 16738
L12502 16738
L12445 16776
L12408 16813
L12389 16851
" />
<path d="M12502 16382
L12502 16345
L12483 16307
L12464 16288
L12427 16270
L12352 16251
L12258 16251
L12183 16270
L12146 16288
L12127 16307
L12108 16345
L12108 16382
L12127 16420
L12146 16438
L12183 16457
L12258 16476
L12352 16476
L12427 16457
L12464 16438
L12483 16420
L12502 16382
" />
<path d="M12464 16101
L12483 16082
L12502 16045
L12502 15951
L12483 15914
L12464 15895
L12427 15876
L12389 15876
L12333 15895
L12108 16120
L12108 15876
" />
</g>
<g style="fill:#840000; fill-opacity:0.0; 
stroke:#840000; stroke-width:59.0551; stroke-opacity:1; 
stroke-linecap:round; stroke-linejoin:round;">
<path d="M5837 6502
L5968 6315
" />
<path d="M6062 6502
L6062 6109
L5912 6109
L5874 6127
L5856 6146
L5837 6183
L5837 6240
L5856 6277
L5874 6296
L5912 6315
L6062 6315
" />
<path d="M5462 6502
L5687 6502
" />
<path d="M5574 6502
L5574 6109
L5612 6165
L5649 6202
L5687 6221
" />
<path d="M5218 6109
L5181 6109
L5143 6127
L5125 6146
L5106 6183
L5087 6258
L5087 6352
L5106 6427
L5125 6465
L5143 6483
L5181 6502
L5218 6502
L5256 6483
L5275 6465
L5293 6427
L5312 6352
L5312 6258
L5293 6183
L5275 6146
L5256 6127
L5218 6109
" />
<path d="M4956 6109
L4712 6109
L4843 6258
L4787 6258
L4750 6277
L4731 6296
L4712 6333
L4712 6427
L4731 6465
L4750 6483
L4787 6502
L4900 6502
L4937 6483
L4956 6465
" />
<path d="M14077 5879
L14264 6010
" />
<path d="M14077 6104
L14470 6104
L14470 5954
L14451 5916
L14433 5898
L14395 5879
L14339 5879
L14301 5898
L14283 5916
L14264 5954
L14264 6104
" />
<path d="M14077 5504
L14077 5729
" />
<path d="M14077 5616
L14470 5616
L14414 5654
L14376 5691
L14358 5729
" />
<path d="M14470 5260
L14470 5223
L14451 5185
L14433 5166
L14395 5148
L14320 5129
L14227 5129
L14152 5148
L14114 5166
L14095 5185
L14077 5223
L14077 5260
L14095 5298
L14114 5316
L14152 5335
L14227 5354
L14320 5354
L14395 5335
L14433 5316
L14451 5298
L14470 5260
" />
<path d="M14339 4791
L14077 4791
" />
<path d="M14489 4885
L14208 4979
L14208 4735
" />
<path d="M5837 7093
L5968 6905
" />
<path d="M6062 7093
L6062 6699
L5912 6699
L5874 6718
L5856 6737
L5837 6774
L5837 6830
L5856 6868
L5874 6887
L5912 6905
L6062 6905
" />
<path d="M5462 7093
L5687 7093
" />
<path d="M5574 7093
L5574 6699
L5612 6755
L5649 6793
L5687 6812
" />
<path d="M5218 6699
L5181 6699
L5143 6718
L5125 6737
L5106 6774
L5087 6849
L5087 6943
L5106 7018
L5125 7055
L5143 7074
L5181 7093
L5218 7093
L5256 7074
L5275 7055
L5293 7018
L5312 6943
L5312 6849
L5293 6774
L5275 6737
L5256 6718
L5218 6699
" />
<path d="M4731 6699
L4918 6699
L4937 6887
L4918 6868
L4881 6849
L4787 6849
L4750 6868
L4731 6887
L4712 6924
L4712 7018
L4731 7055
L4750 7074
L4787 7093
L4881 7093
L4918 7074
L4937 7055
" />
<path d="M13388 5977
L13575 6109
" />
<path d="M13388 6202
L13781 6202
L13781 6052
L13763 6015
L13744 5996
L13706 5977
L13650 5977
L13613 5996
L13594 6015
L13575 6052
L13575 6202
" />
<path d="M13388 5602
L13388 5827
" />
<path d="M13388 5715
L13781 5715
L13725 5752
L13688 5790
L13669 5827
" />
<path d="M13781 5359
L13781 5321
L13763 5284
L13744 5265
L13706 5246
L13631 5227
L13538 5227
L13463 5246
L13425 5265
L13406 5284
L13388 5321
L13388 5359
L13406 5396
L13425 5415
L13463 5434
L13538 5452
L13631 5452
L13706 5434
L13744 5415
L13763 5396
L13781 5359
" />
<path d="M13781 4890
L13781 4965
L13763 5002
L13744 5021
L13688 5059
L13613 5077
L13463 5077
L13425 5059
L13406 5040
L13388 5002
L13388 4927
L13406 4890
L13425 4871
L13463 4852
L13556 4852
L13594 4871
L13613 4890
L13631 4927
L13631 5002
L13613 5040
L13594 5059
L13556 5077
" />
<path d="M12628 12605
L12760 12417
" />
<path d="M12853 12605
L12853 12211
L12703 12211
L12666 12230
L12647 12248
L12628 12286
L12628 12342
L12647 12380
L12666 12398
L12703 12417
L12853 12417
" />
<path d="M12253 12605
L12478 12605
" />
<path d="M12366 12605
L12366 12211
L12403 12267
L12441 12305
L12478 12323
" />
<path d="M12010 12211
L11972 12211
L11935 12230
L11916 12248
L11897 12286
L11878 12361
L11878 12455
L11897 12530
L11916 12567
L11935 12586
L11972 12605
L12010 12605
L12047 12586
L12066 12567
L12085 12530
L12103 12455
L12103 12361
L12085 12286
L12066 12248
L12047 12230
L12010 12211
" />
<path d="M11747 12211
L11485 12211
L11653 12605
" />
</g>
<g style="fill:#C2C200; fill-opacity:0.0; 
stroke:#C2C200; stroke-width:59.0551; stroke-opacity:1; 
stroke-linecap:round; stroke-linejoin:round;">
<path d="M15947 17001
L16134 17132
" />
<path d="M15947 17226
L16340 17226
L16340 17076
L16322 17038
L16303 17020
L16265 17001
L16209 17001
L16172 17020
L16153 17038
L16134 17076
L16134 17226
" />
<path d="M15947 16626
L15947 16851
" />
<path d="M15947 16738
L16340 16738
L16284 16776
L16247 16813
L16228 16851
" />
<path d="M16340 16382
L16340 16345
L16322 16307
L16303 16288
L16265 16270
L16190 16251
L16097 16251
L16022 16270
L15984 16288
L15965 16307
L15947 16345
L15947 16382
L15965 16420
L15984 16438
L16022 16457
L16097 16476
L16190 16476
L16265 16457
L16303 16438
L16322 16420
L16340 16382
" />
<path d="M16172 16026
L16190 16064
L16209 16082
L16247 16101
L16265 16101
L16303 16082
L16322 16064
L16340 16026
L16340 15951
L16322 15914
L16303 15895
L16265 15876
L16247 15876
L16209 15895
L16190 15914
L16172 15951
L16172 16026
L16153 16064
L16134 16082
L16097 16101
L16022 16101
L15984 16082
L15965 16064
L15947 16026
L15947 15951
L15965 15914
L15984 15895
L16022 15876
L16097 15876
L16134 15895
L16153 15914
L16172 15951
" />
<path d="M17128 17001
L17315 17132
" />
<path d="M17128 17226
L17521 17226
L17521 17076
L17503 17038
L17484 17020
L17446 17001
L17390 17001
L17353 17020
L17334 17038
L17315 17076
L17315 17226
" />
<path d="M17128 16626
L17128 16851
" />
<path d="M17128 16738
L17521 16738
L17465 16776
L17428 16813
L17409 16851
" />
<path d="M17521 16382
L17521 16345
L17503 16307
L17484 16288
L17446 16270
L17371 16251
L17278 16251
L17203 16270
L17165 16288
L17146 16307
L17128 16345
L17128 16382
L17146 16420
L17165 16438
L17203 16457
L17278 16476
L17371 16476
L17446 16457
L17484 16438
L17503 16420
L17521 16382
" />
<path d="M17128 16064
L17128 15989
L17146 15951
L17165 15932
L17221 15895
L17296 15876
L17446 15876
L17484 15895
L17503 15914
L17521 15951
L17521 16026
L17503 16064
L17484 16082
L17446 16101
L17353 16101
L17315 16082
L17296 16064
L17278 16026
L17278 15951
L17296 15914
L17315 15895
L17353 15876
" />
<path d="M18604 17099
L18792 17231
" />
<path d="M18604 17324
L18998 17324
L18998 17174
L18979 17137
L18960 17118
L18923 17099
L18867 17099
L18829 17118
L18810 17137
L18792 17174
L18792 17324
" />
<path d="M18604 16724
L18604 16949
" />
<path d="M18604 16837
L18998 16837
L18942 16874
L18904 16912
L18885 16949
" />
<path d="M18604 16349
L18604 16574
" />
<path d="M18604 16462
L18998 16462
L18942 16499
L18904 16537
L18885 16574
" />
<path d="M18998 16106
L18998 16068
L18979 16031
L18960 16012
L18923 15993
L18848 15974
L18754 15974
L18679 15993
L18642 16012
L18623 16031
L18604 16068
L18604 16106
L18623 16143
L18642 16162
L18679 16181
L18754 16199
L18848 16199
L18923 16181
L18960 16162
L18979 16143
L18998 16106
" />
</g>
<g style="fill:#840000; fill-opacity:0.0; 
stroke:#840000; stroke-width:59.0551; stroke-opacity:1; 
stroke-linecap:round; stroke-linejoin:round;">
<path d="M4754 9061
L4885 8874
" />
<path d="M4979 9061
L4979 8668
L4829 8668
L4792 8686
L4773 8705
L4754 8743
L4754 8799
L4773 8836
L4792 8855
L4829 8874
L4979 8874
" />
<path d="M4379 9061
L4604 9061
" />
<path d="M4492 9061
L4492 8668
L4529 8724
L4567 8761
L4604 8780
" />
<path d="M4004 9061
L4229 9061
" />
<path d="M4117 9061
L4117 8668
L4154 8724
L4192 8761
L4229 8780
" />
<path d="M3629 9061
L3854 9061
" />
<path d="M3742 9061
L3742 8668
L3779 8724
L3817 8761
L3854 8780
" />
<path d="M4754 10144
L4885 9956
" />
<path d="M4979 10144
L4979 9750
L4829 9750
L4792 9769
L4773 9788
L4754 9825
L4754 9881
L4773 9919
L4792 9938
L4829 9956
L4979 9956
" />
<path d="M4379 10144
L4604 10144
" />
<path d="M4492 10144
L4492 9750
L4529 9806
L4567 9844
L4604 9863
" />
<path d="M4004 10144
L4229 10144
" />
<path d="M4117 10144
L4117 9750
L4154 9806
L4192 9844
L4229 9863
" />
<path d="M3854 9788
L3836 9769
L3798 9750
L3704 9750
L3667 9769
L3648 9788
L3629 9825
L3629 9863
L3648 9919
L3873 10144
L3629 10144
" />
</g>
<g style="fill:#C2C200; fill-opacity:0.0; 
stroke:#C2C200; stroke-width:59.0551; stroke-opacity:1; 
stroke-linecap:round; stroke-linejoin:round;">
<path d="M4136 7749
L4323 7880
" />
<path d="M4136 7974
L4529 7974
L4529 7824
L4511 7786
L4492 7768
L4454 7749
L4398 7749
L4361 7768
L4342 7786
L4323 7824
L4323 7974
" />
<path d="M4136 7374
L4136 7599
" />
<path d="M4136 7486
L4529 7486
L4473 7524
L4436 7561
L4417 7599
" />
<path d="M4136 6999
L4136 7224
" />
<path d="M4136 7112
L4529 7112
L4473 7149
L4436 7186
L4417 7224
" />
<path d="M4529 6868
L4529 6624
L4379 6755
L4379 6699
L4361 6662
L4342 6643
L4304 6624
L4211 6624
L4173 6643
L4154 6662
L4136 6699
L4136 6812
L4154 6849
L4173 6868
" />
</g>
<g style="fill:#840000; fill-opacity:0.0; 
stroke:#840000; stroke-width:59.0551; stroke-opacity:1; 
stroke-linecap:round; stroke-linejoin:round;">
<path d="M5935 13097
L6067 12909
" />
<path d="M6160 13097
L6160 12703
L6010 12703
L5973 12722
L5954 12740
L5935 12778
L5935 12834
L5954 12872
L5973 12890
L6010 12909
L6160 12909
" />
<path d="M5560 13097
L5785 13097
" />
<path d="M5673 13097
L5673 12703
L5710 12759
L5748 12797
L5785 12815
" />
<path d="M5185 13097
L5410 13097
" />
<path d="M5298 13097
L5298 12703
L5335 12759
L5373 12797
L5410 12815
" />
<path d="M4848 12834
L4848 13097
" />
<path d="M4942 12684
L5035 12965
L4792 12965
" />
<path d="M5935 13884
L6067 13697
" />
<path d="M6160 13884
L6160 13490
L6010 13490
L5973 13509
L5954 13528
L5935 13565
L5935 13622
L5954 13659
L5973 13678
L6010 13697
L6160 13697
" />
<path d="M5560 13884
L5785 13884
" />
<path d="M5673 13884
L5673 13490
L5710 13547
L5748 13584
L5785 13603
" />
<path d="M5185 13884
L5410 13884
" />
<path d="M5298 13884
L5298 13490
L5335 13547
L5373 13584
L5410 13603
" />
<path d="M4829 13490
L5017 13490
L5035 13678
L5017 13659
L4979 13640
L4885 13640
L4848 13659
L4829 13678
L4810 13715
L4810 13809
L4829 13847
L4848 13865
L4885 13884
L4979 13884
L5017 13865
L5035 13847
" />
<path d="M18829 9061
L18960 8874
" />
<path d="M19054 9061
L19054 8668
L18904 8668
L18867 8686
L18848 8705
L18829 8743
L18829 8799
L18848 8836
L18867 8855
L18904 8874
L19054 8874
" />
<path d="M18454 9061
L18679 9061
" />
<path d="M18567 9061
L18567 8668
L18604 8724
L18642 8761
L18679 8780
" />
<path d="M18079 9061
L18304 9061
" />
<path d="M18192 9061
L18192 8668
L18229 8724
L18267 8761
L18304 8780
" />
<path d="M17742 8668
L17817 8668
L17854 8686
L17873 8705
L17910 8761
L17929 8836
L17929 8986
L17910 9024
L17892 9043
L17854 9061
L17779 9061
L17742 9043
L17723 9024
L17704 8986
L17704 8893
L17723 8855
L17742 8836
L17779 8818
L17854 8818
L17892 8836
L17910 8855
L17929 8893
" />
<path d="M18337 11522
L18468 11334
" />
<path d="M18562 11522
L18562 11128
L18412 11128
L18374 11147
L18356 11166
L18337 11203
L18337 11259
L18356 11297
L18374 11316
L18412 11334
L18562 11334
" />
<path d="M17962 11522
L18187 11522
" />
<path d="M18074 11522
L18074 11128
L18112 11184
L18149 11222
L18187 11241
" />
<path d="M17587 11522
L17812 11522
" />
<path d="M17700 11522
L17700 11128
L17737 11184
L17775 11222
L17812 11241
" />
<path d="M17456 11128
L17193 11128
L17362 11522
" />
<path d="M18140 10144
L18271 9956
" />
<path d="M18365 10144
L18365 9750
L18215 9750
L18178 9769
L18159 9788
L18140 9825
L18140 9881
L18159 9919
L18178 9938
L18215 9956
L18365 9956
" />
<path d="M17765 10144
L17990 10144
" />
<path d="M17878 10144
L17878 9750
L17915 9806
L17953 9844
L17990 9863
" />
<path d="M17390 10144
L17615 10144
" />
<path d="M17503 10144
L17503 9750
L17540 9806
L17578 9844
L17615 9863
" />
<path d="M17165 9919
L17203 9900
L17221 9881
L17240 9844
L17240 9825
L17221 9788
L17203 9769
L17165 9750
L17090 9750
L17053 9769
L17034 9788
L17015 9825
L17015 9844
L17034 9881
L17053 9900
L17090 9919
L17165 9919
L17203 9938
L17221 9956
L17240 9994
L17240 10069
L17221 10106
L17203 10125
L17165 10144
L17090 10144
L17053 10125
L17034 10106
L17015 10069
L17015 9994
L17034 9956
L17053 9938
L17090 9919
" />
<path d="M14892 10439
L15023 10252
" />
<path d="M15117 10439
L15117 10046
L14967 10046
L14930 10064
L14911 10083
L14892 10121
L14892 10177
L14911 10214
L14930 10233
L14967 10252
L15117 10252
" />
<path d="M14517 10439
L14742 10439
" />
<path d="M14630 10439
L14630 10046
L14667 10102
L14705 10139
L14742 10158
" />
<path d="M14142 10439
L14367 10439
" />
<path d="M14255 10439
L14255 10046
L14292 10102
L14330 10139
L14367 10158
" />
<path d="M13955 10439
L13880 10439
L13842 10420
L13823 10402
L13786 10345
L13767 10270
L13767 10121
L13786 10083
L13805 10064
L13842 10046
L13917 10046
L13955 10064
L13973 10083
L13992 10121
L13992 10214
L13973 10252
L13955 10270
L13917 10289
L13842 10289
L13805 10270
L13786 10252
L13767 10214
" />
<path d="M16565 11522
L16697 11334
" />
<path d="M16790 11522
L16790 11128
L16640 11128
L16603 11147
L16584 11166
L16565 11203
L16565 11259
L16584 11297
L16603 11316
L16640 11334
L16790 11334
" />
<path d="M16190 11522
L16415 11522
" />
<path d="M16303 11522
L16303 11128
L16340 11184
L16378 11222
L16415 11241
" />
<path d="M16040 11166
L16022 11147
L15984 11128
L15890 11128
L15853 11147
L15834 11166
L15815 11203
L15815 11241
L15834 11297
L16059 11522
L15815 11522
" />
<path d="M15572 11128
L15534 11128
L15497 11147
L15478 11166
L15459 11203
L15440 11278
L15440 11372
L15459 11447
L15478 11484
L15497 11503
L15534 11522
L15572 11522
L15609 11503
L15628 11484
L15647 11447
L15665 11372
L15665 11278
L15647 11203
L15628 11166
L15609 11147
L15572 11128
" />
<path d="M17550 6797
L17681 6610
" />
<path d="M17775 6797
L17775 6404
L17625 6404
L17587 6423
L17568 6441
L17550 6479
L17550 6535
L17568 6573
L17587 6591
L17625 6610
L17775 6610
" />
<path d="M17175 6797
L17400 6797
" />
<path d="M17287 6797
L17287 6404
L17325 6460
L17362 6498
L17400 6516
" />
<path d="M17025 6441
L17006 6423
L16968 6404
L16875 6404
L16837 6423
L16818 6441
L16800 6479
L16800 6516
L16818 6573
L17043 6797
L16800 6797
" />
<path d="M16425 6797
L16650 6797
" />
<path d="M16537 6797
L16537 6404
L16575 6460
L16612 6498
L16650 6516
" />
</g>
<g style="fill:#C2C200; fill-opacity:0.0; 
stroke:#C2C200; stroke-width:59.0551; stroke-opacity:1; 
stroke-linecap:round; stroke-linejoin:round;">
<path d="M22372 9849
L22504 9661
" />
<path d="M22597 9849
L22597 9455
L22447 9455
L22410 9474
L22391 9492
L22372 9530
L22372 9586
L22391 9624
L22410 9642
L22447 9661
L22597 9661
" />
<path d="M21997 9849
L22222 9849
" />
<path d="M22110 9849
L22110 9455
L22147 9511
L22185 9549
L22222 9567
" />
<path d="M21847 9492
L21829 9474
L21791 9455
L21697 9455
L21660 9474
L21641 9492
L21622 9530
L21622 9567
L21641 9624
L21866 9849
L21622 9849
" />
<path d="M21472 9492
L21454 9474
L21416 9455
L21322 9455
L21285 9474
L21266 9492
L21248 9530
L21248 9567
L21266 9624
L21491 9849
L21248 9849
" />
</g>
<g style="fill:#840000; fill-opacity:0.0; 
stroke:#840000; stroke-width:59.0551; stroke-opacity:1; 
stroke-linecap:round; stroke-linejoin:round;">
<path d="M15637 6404
L15637 6722
L15619 6760
L15600 6779
L15562 6797
L15487 6797
L15450 6779
L15431 6760
L15412 6722
L15412 6404
" />
<path d="M15019 6797
L15244 6797
" />
<path d="M15131 6797
L15131 6404
L15169 6460
L15206 6498
L15244 6516
" />
<path d="M13866 9455
L13866 9774
L13847 9811
L13828 9830
L13791 9849
L13716 9849
L13678 9830
L13659 9811
L13641 9774
L13641 9455
" />
<path d="M13472 9492
L13453 9474
L13416 9455
L13322 9455
L13284 9474
L13266 9492
L13247 9530
L13247 9567
L13266 9624
L13491 9849
L13247 9849
" />
<path d="M14437 11227
L14437 11545
L14419 11583
L14400 11602
L14362 11620
L14287 11620
L14250 11602
L14231 11583
L14212 11545
L14212 11227
" />
<path d="M13819 11620
L14044 11620
" />
<path d="M13931 11620
L13931 11227
L13969 11283
L14006 11320
L14044 11339
" />
<path d="M13575 11227
L13538 11227
L13500 11245
L13481 11264
L13463 11302
L13444 11377
L13444 11470
L13463 11545
L13481 11583
L13500 11602
L13538 11620
L13575 11620
L13613 11602
L13631 11583
L13650 11545
L13669 11470
L13669 11377
L13650 11302
L13631 11264
L13613 11245
L13575 11227
" />
<path d="M13069 11620
L13294 11620
" />
<path d="M13181 11620
L13181 11227
L13219 11283
L13256 11320
L13294 11339
" />
<path d="M14301 9319
L14320 9338
L14376 9357
L14414 9357
L14470 9338
L14508 9300
L14526 9263
L14545 9188
L14545 9132
L14526 9057
L14508 9019
L14470 8982
L14414 8963
L14376 8963
L14320 8982
L14301 9000
" />
<path d="M13927 9357
L14152 9357
" />
<path d="M14039 9357
L14039 8963
L14077 9019
L14114 9057
L14152 9075
" />
<path d="M13552 9357
L13777 9357
" />
<path d="M13664 9357
L13664 8963
L13702 9019
L13739 9057
L13777 9075
" />
<path d="M13327 9132
L13364 9113
L13383 9094
L13402 9057
L13402 9038
L13383 9000
L13364 8982
L13327 8963
L13252 8963
L13214 8982
L13195 9000
L13177 9038
L13177 9057
L13195 9094
L13214 9113
L13252 9132
L13327 9132
L13364 9150
L13383 9169
L13402 9207
L13402 9282
L13383 9319
L13364 9338
L13327 9357
L13252 9357
L13214 9338
L13195 9319
L13177 9282
L13177 9207
L13195 9169
L13214 9150
L13252 9132
" />
</g>
<g style="fill:#C2C200; fill-opacity:0.0; 
stroke:#C2C200; stroke-width:59.0551; stroke-opacity:1; 
stroke-linecap:round; stroke-linejoin:round;">
<path d="M5574 9000
L5593 9038
L5631 9075
L5687 9132
L5706 9169
L5706 9207
" />
<path d="M5612 9188
L5631 9225
L5668 9263
L5743 9282
L5874 9282
L5949 9263
L5987 9225
L6006 9188
L6006 9113
L5987 9075
L5949 9038
L5874 9019
L5743 9019
L5668 9038
L5631 9075
L5612 9113
L5612 9188
" />
<path d="M5612 8644
L5612 8869
" />
<path d="M5612 8757
L6006 8757
L5949 8794
L5912 8832
L5893 8869
" />
<path d="M6006 8400
L6006 8363
L5987 8325
L5968 8307
L5931 8288
L5856 8269
L5762 8269
L5687 8288
L5649 8307
L5631 8325
L5612 8363
L5612 8400
L5631 8438
L5649 8457
L5687 8475
L5762 8494
L5856 8494
L5931 8475
L5968 8457
L5987 8438
L6006 8400
" />
<path d="M5968 8119
L5987 8100
L6006 8063
L6006 7969
L5987 7932
L5968 7913
L5931 7894
L5893 7894
L5837 7913
L5612 8138
L5612 7894
" />
<path d="M5574 10674
L5593 10711
L5631 10749
L5687 10805
L5706 10842
L5706 10880
" />
<path d="M5612 10861
L5631 10899
L5668 10936
L5743 10955
L5874 10955
L5949 10936
L5987 10899
L6006 10861
L6006 10786
L5987 10749
L5949 10711
L5874 10692
L5743 10692
L5668 10711
L5631 10749
L5612 10786
L5612 10861
" />
<path d="M5612 10317
L5612 10542
" />
<path d="M5612 10430
L6006 10430
L5949 10467
L5912 10505
L5893 10542
" />
<path d="M6006 10074
L6006 10036
L5987 9999
L5968 9980
L5931 9961
L5856 9942
L5762 9942
L5687 9961
L5649 9980
L5631 9999
L5612 10036
L5612 10074
L5631 10111
L5649 10130
L5687 10149
L5762 10167
L5856 10167
L5931 10149
L5968 10130
L5987 10111
L6006 10074
" />
<path d="M6006 9811
L6006 9567
L5856 9699
L5856 9642
L5837 9605
L5818 9586
L5781 9567
L5687 9567
L5649 9586
L5631 9605
L5612 9642
L5612 9755
L5631 9792
L5649 9811
" />
</g>
<g style="fill:#840000; fill-opacity:0.0; 
stroke:#840000; stroke-width:59.0551; stroke-opacity:1; 
stroke-linecap:round; stroke-linejoin:round;">
<path d="M13767 7979
L13767 8297
L13748 8335
L13730 8354
L13692 8372
L13617 8372
L13580 8354
L13561 8335
L13542 8297
L13542 7979
" />
<path d="M13392 7979
L13149 7979
L13280 8129
L13224 8129
L13186 8147
L13167 8166
L13149 8204
L13149 8297
L13167 8335
L13186 8354
L13224 8372
L13336 8372
L13373 8354
L13392 8335
" />
</g>
<g style="fill:#C2C2C2; fill-opacity:0.0; 
stroke:#C2C2C2; stroke-width:59.0551; stroke-opacity:1; 
stroke-linecap:round; stroke-linejoin:round;">
</g>
<g style="fill:#C2C2C2; fill-opacity:0.0; 
stroke:#C2C2C2; stroke-width:78.7402; stroke-opacity:1; 
stroke-linecap:round; stroke-linejoin:round;">
<path d="M11987 4642
L12144 4642
" />
<path d="M10688 4642
L11632 4642
" />
<path d="M10176 4642
L10333 4642
" />
<path d="M11987 6611
L12144 6611
" />
<path d="M10688 6611
L11632 6611
" />
<path d="M10176 6611
L10333 6611
" />
<path d="M10333 6689
L10688 6689
" />
<path d="M10688 6689
L10688 6335
" />
<path d="M10688 6335
L10333 6335
" />
<path d="M10333 6335
L10333 6689
" />
<path d="M11987 6689
L11632 6689
" />
<path d="M11632 6689
L11632 6335
" />
<path d="M11632 6335
L11987 6335
" />
<path d="M11987 6335
L11987 6689
" />
<path d="M10333 4563
L10333 4918
" />
<path d="M10333 4918
L10688 4918
" />
<path d="M10688 4918
L10688 4563
" />
<path d="M10688 4563
L10333 4563
" />
<path d="M11632 4563
L11632 4918
" />
<path d="M11632 4918
L11987 4918
" />
<path d="M11987 4918
L11987 4563
" />
<path d="M11987 4563
L11632 4563
" />
<path d="M12144 6611
L12144 4642
" />
<path d="M10176 4642
L10176 6610
" />
</g> 
</svg>
