G04 #@! TF.FileFunction,Soldermask,Top*
%FSLAX46Y46*%
G04 Gerber Fmt 4.6, Leading zero omitted, Abs format (unit mm)*
G04 Created by KiCad (PCBNEW 4.0.5-e0-6337~49~ubuntu14.04.1) date Thu Mar  2 13:58:40 2017*
%MOMM*%
%LPD*%
G01*
G04 APERTURE LIST*
%ADD10C,0.100000*%
%ADD11C,0.150000*%
%ADD12R,1.400000X1.400000*%
%ADD13O,1.400000X1.400000*%
%ADD14R,3.100000X4.000000*%
%ADD15R,1.200000X1.150000*%
%ADD16R,1.800000X2.200000*%
%ADD17R,1.300000X0.900000*%
%ADD18R,0.900000X1.300000*%
%ADD19R,2.000000X2.400000*%
%ADD20R,2.100000X2.100000*%
%ADD21O,2.100000X2.100000*%
%ADD22R,1.300000X1.200000*%
%ADD23R,2.900000X1.500000*%
%ADD24O,2.900000X1.500000*%
G04 APERTURE END LIST*
D10*
D11*
X161407500Y-100318000D02*
X161407500Y-100418000D01*
X161507500Y-100168000D02*
X161407500Y-100318000D01*
X161507500Y-100618000D02*
X161507500Y-100168000D01*
X161257500Y-100318000D02*
X161507500Y-100618000D01*
X161457500Y-100068000D02*
X161257500Y-100318000D01*
X161607500Y-100068000D02*
X161457500Y-100068000D01*
X161607500Y-100768000D02*
X161607500Y-100068000D01*
X161557500Y-100768000D02*
X161607500Y-100768000D01*
X161107500Y-100318000D02*
X161557500Y-100768000D01*
X161658300Y-99759200D02*
X161107500Y-100318000D01*
X161707500Y-99968000D02*
X161407500Y-99968000D01*
X161707500Y-100868000D02*
X161707500Y-99968000D01*
X161457500Y-100868000D02*
X161707500Y-100868000D01*
X160957500Y-100318000D02*
X161457500Y-100868000D01*
X161357500Y-99868000D02*
X160957500Y-100318000D01*
X161807500Y-99868000D02*
X161357500Y-99868000D01*
X161807500Y-100868000D02*
X161807500Y-99868000D01*
X161226500Y-100953000D02*
X161907500Y-100953000D01*
X160807500Y-100318000D02*
X161407500Y-100918000D01*
X161163000Y-99746500D02*
X160591500Y-100318000D01*
X161925000Y-99746500D02*
X161163000Y-99746500D01*
X161925000Y-100953000D02*
X161925000Y-99746500D01*
X160753500Y-100353000D02*
X161353500Y-100953000D01*
X160626500Y-100353000D02*
X161226500Y-100953000D01*
X161353500Y-99746500D02*
X160782000Y-100318000D01*
X161407500Y-103747000D02*
X161407500Y-103847000D01*
X161507500Y-103597000D02*
X161407500Y-103747000D01*
X161507500Y-104047000D02*
X161507500Y-103597000D01*
X161257500Y-103747000D02*
X161507500Y-104047000D01*
X161457500Y-103497000D02*
X161257500Y-103747000D01*
X161607500Y-103497000D02*
X161457500Y-103497000D01*
X161607500Y-104197000D02*
X161607500Y-103497000D01*
X161557500Y-104197000D02*
X161607500Y-104197000D01*
X161107500Y-103747000D02*
X161557500Y-104197000D01*
X161658300Y-103188200D02*
X161107500Y-103747000D01*
X161707500Y-103397000D02*
X161407500Y-103397000D01*
X161707500Y-104297000D02*
X161707500Y-103397000D01*
X161457500Y-104297000D02*
X161707500Y-104297000D01*
X160957500Y-103747000D02*
X161457500Y-104297000D01*
X161357500Y-103297000D02*
X160957500Y-103747000D01*
X161807500Y-103297000D02*
X161357500Y-103297000D01*
X161807500Y-104297000D02*
X161807500Y-103297000D01*
X161226500Y-104382000D02*
X161907500Y-104382000D01*
X160807500Y-103747000D02*
X161407500Y-104347000D01*
X161163000Y-103175500D02*
X160591500Y-103747000D01*
X161925000Y-103175500D02*
X161163000Y-103175500D01*
X161925000Y-104382000D02*
X161925000Y-103175500D01*
X160753500Y-103782000D02*
X161353500Y-104382000D01*
X160626500Y-103782000D02*
X161226500Y-104382000D01*
X161353500Y-103175500D02*
X160782000Y-103747000D01*
D12*
X165798500Y-90031000D03*
D13*
X167068500Y-90031000D03*
X168338500Y-90031000D03*
X169608500Y-90031000D03*
X170878500Y-90031000D03*
D14*
X161013500Y-110351000D03*
X169313500Y-110351000D03*
D15*
X161341500Y-96889000D03*
X159841500Y-96889000D03*
X142545500Y-113145000D03*
X141045500Y-113145000D03*
X139751500Y-110351000D03*
X138251500Y-110351000D03*
X138251500Y-106541000D03*
X139751500Y-106541000D03*
D16*
X159195500Y-94463000D03*
X162495500Y-94463000D03*
X162495500Y-89663000D03*
X159195500Y-89663000D03*
D17*
X158051500Y-113157000D03*
X158051500Y-114657000D03*
D18*
X148895500Y-114923000D03*
X147395500Y-114923000D03*
X145847500Y-114923000D03*
X144347500Y-114923000D03*
X141045500Y-114923000D03*
X142545500Y-114923000D03*
D17*
X162877500Y-97639000D03*
X162877500Y-96139000D03*
D18*
X138251500Y-102477000D03*
X139751500Y-102477000D03*
D19*
X139353500Y-95171000D03*
X139353500Y-89771000D03*
D20*
X151320500Y-114034000D03*
D21*
X153860500Y-114034000D03*
D22*
X160353500Y-98606000D03*
X160353500Y-100506000D03*
X162353500Y-99556000D03*
X160353500Y-102162000D03*
X160353500Y-104062000D03*
X162353500Y-103112000D03*
D20*
X165163500Y-93079000D03*
D21*
X167703500Y-93079000D03*
X170243500Y-93079000D03*
D20*
X165163500Y-95619000D03*
D21*
X167703500Y-95619000D03*
X170243500Y-95619000D03*
D20*
X165163500Y-100699000D03*
D21*
X167703500Y-100699000D03*
X170243500Y-100699000D03*
D20*
X165163500Y-103239000D03*
D21*
X167703500Y-103239000D03*
X170243500Y-103239000D03*
D20*
X165163500Y-98159000D03*
D21*
X167703500Y-98159000D03*
X170243500Y-98159000D03*
D23*
X142238500Y-96381000D03*
D24*
X142238500Y-98381000D03*
X142238500Y-100381000D03*
X142238500Y-102381000D03*
X142238500Y-104381000D03*
X142238500Y-106381000D03*
X142238500Y-108381000D03*
X142238500Y-110381000D03*
X157638500Y-110381000D03*
X157538500Y-108381000D03*
X157638500Y-106381000D03*
X157638500Y-104381000D03*
X157638500Y-102381000D03*
X157638500Y-100381000D03*
X157638500Y-98381000D03*
X157638500Y-96381000D03*
M02*
