G04 #@! TF.FileFunction,Soldermask,Bot*
%FSLAX46Y46*%
G04 Gerber Fmt 4.6, Leading zero omitted, Abs format (unit mm)*
G04 Created by KiCad (PCBNEW 4.0.5-e0-6337~49~ubuntu14.04.1) date Thu Mar  2 13:58:40 2017*
%MOMM*%
%LPD*%
G01*
G04 APERTURE LIST*
%ADD10C,0.100000*%
%ADD11R,1.400000X1.400000*%
%ADD12O,1.400000X1.400000*%
%ADD13R,1.150000X1.200000*%
%ADD14R,1.200000X1.150000*%
%ADD15R,1.460000X1.050000*%
%ADD16R,1.300000X1.200000*%
%ADD17R,0.900000X1.300000*%
%ADD18R,1.300000X0.900000*%
%ADD19R,1.050000X0.800000*%
%ADD20R,2.100000X2.100000*%
%ADD21O,2.100000X2.100000*%
%ADD22R,2.900000X1.400000*%
%ADD23R,1.400000X2.900000*%
G04 APERTURE END LIST*
D10*
D11*
X165798500Y-90031000D03*
D12*
X167068500Y-90031000D03*
X168338500Y-90031000D03*
X169608500Y-90031000D03*
X170878500Y-90031000D03*
D13*
X159829500Y-112903000D03*
X159829500Y-114403000D03*
D14*
X156793500Y-105525000D03*
X158293500Y-105525000D03*
X164413500Y-110605000D03*
X165913500Y-110605000D03*
X151181500Y-98921000D03*
X149681500Y-98921000D03*
X169723500Y-101715000D03*
X168223500Y-101715000D03*
X169723500Y-104255000D03*
X168223500Y-104255000D03*
X169723500Y-99175000D03*
X168223500Y-99175000D03*
X167207500Y-109081000D03*
X168707500Y-109081000D03*
X165659500Y-105779000D03*
X164159500Y-105779000D03*
X142569500Y-96381000D03*
X144069500Y-96381000D03*
D15*
X166771500Y-112449000D03*
X166771500Y-113399000D03*
X166771500Y-114349000D03*
X164571500Y-114349000D03*
X164571500Y-112449000D03*
X164571500Y-113399000D03*
D16*
X158289500Y-112576000D03*
X158289500Y-114476000D03*
X156289500Y-113526000D03*
D17*
X161365500Y-90285000D03*
X162865500Y-90285000D03*
X162865500Y-93904500D03*
X161365500Y-93904500D03*
D18*
X152971500Y-94615000D03*
X152971500Y-96115000D03*
D17*
X162865500Y-95619000D03*
X161365500Y-95619000D03*
D18*
X154749500Y-94615000D03*
X154749500Y-96115000D03*
D17*
X158317500Y-110859000D03*
X159817500Y-110859000D03*
X161365500Y-100699000D03*
X162865500Y-100699000D03*
X161365500Y-103239000D03*
X162865500Y-103239000D03*
X168707500Y-110732000D03*
X167207500Y-110732000D03*
D18*
X168719500Y-113704500D03*
X168719500Y-112204500D03*
D17*
X146863500Y-100445000D03*
X145363500Y-100445000D03*
X145847500Y-105017000D03*
X144347500Y-105017000D03*
X148387500Y-103239000D03*
X146887500Y-103239000D03*
X153936000Y-105525000D03*
X155436000Y-105525000D03*
X148387500Y-105017000D03*
X146887500Y-105017000D03*
X146863500Y-96381000D03*
X145363500Y-96381000D03*
D19*
X151381500Y-95985000D03*
X151381500Y-97285000D03*
X149481500Y-96635000D03*
X151381500Y-96635000D03*
X149481500Y-97285000D03*
X149481500Y-95985000D03*
X156593500Y-103889000D03*
X156593500Y-102589000D03*
X158493500Y-103239000D03*
X156593500Y-103239000D03*
X158493500Y-102589000D03*
X158493500Y-103889000D03*
D16*
X152987500Y-110285000D03*
X152987500Y-108385000D03*
X154987500Y-109335000D03*
D20*
X151320500Y-114034000D03*
D21*
X153860500Y-114034000D03*
D14*
X156793500Y-100953000D03*
X158293500Y-100953000D03*
D19*
X156593500Y-99317000D03*
X156593500Y-98017000D03*
X158493500Y-98667000D03*
X156593500Y-98667000D03*
X158493500Y-98017000D03*
X158493500Y-99317000D03*
D20*
X165163500Y-93079000D03*
D21*
X167703500Y-93079000D03*
X170243500Y-93079000D03*
D20*
X165163500Y-95619000D03*
D21*
X167703500Y-95619000D03*
X170243500Y-95619000D03*
D20*
X165163500Y-100699000D03*
D21*
X167703500Y-100699000D03*
X170243500Y-100699000D03*
D20*
X165163500Y-103239000D03*
D21*
X167703500Y-103239000D03*
X170243500Y-103239000D03*
D20*
X165163500Y-98159000D03*
D21*
X167703500Y-98159000D03*
X170243500Y-98159000D03*
D22*
X162115500Y-111391000D03*
X162115500Y-114391000D03*
D23*
X167219500Y-106541000D03*
X170219500Y-106541000D03*
D22*
X150431500Y-108343000D03*
X150431500Y-111343000D03*
M02*
