G04 #@! TF.FileFunction,Copper,L1,Top,Signal*
%FSLAX46Y46*%
G04 Gerber Fmt 4.6, Leading zero omitted, Abs format (unit mm)*
G04 Created by KiCad (PCBNEW 4.0.5-e0-6337~49~ubuntu14.04.1) date Thu Mar  2 13:58:40 2017*
%MOMM*%
%LPD*%
G01*
G04 APERTURE LIST*
%ADD10C,0.100000*%
%ADD11C,0.150000*%
%ADD12C,0.500000*%
%ADD13R,1.000000X1.000000*%
%ADD14O,1.000000X1.000000*%
%ADD15R,2.700000X3.600000*%
%ADD16R,0.800000X0.750000*%
%ADD17R,1.400000X1.800000*%
%ADD18R,0.900000X0.500000*%
%ADD19R,0.500000X0.900000*%
%ADD20R,1.600000X2.000000*%
%ADD21R,1.700000X1.700000*%
%ADD22O,1.700000X1.700000*%
%ADD23R,0.900000X0.800000*%
%ADD24R,2.500000X1.100000*%
%ADD25O,2.500000X1.100000*%
%ADD26R,0.500000X1.160000*%
%ADD27R,0.600000X1.160000*%
%ADD28C,0.400000*%
%ADD29C,0.300000*%
%ADD30C,0.800000*%
%ADD31C,0.500000*%
%ADD32C,0.400000*%
%ADD33C,1.000000*%
%ADD34C,0.254000*%
G04 APERTURE END LIST*
D10*
D11*
X161531300Y-100826000D02*
X161099500Y-100826000D01*
X161099500Y-100818000D02*
X160599500Y-100318000D01*
X161099500Y-99810000D02*
X161531300Y-99810000D01*
X161734500Y-100673600D02*
X161734500Y-99937000D01*
X161707500Y-100018000D02*
X161507500Y-100218000D01*
X161507500Y-100218000D02*
X161507500Y-100418000D01*
X161507500Y-100418000D02*
X161607500Y-100518000D01*
X161607500Y-100518000D02*
X161607500Y-100118000D01*
X161828100Y-99818000D02*
X161353500Y-100292600D01*
X161857500Y-100818000D02*
X161857500Y-99818000D01*
X161357500Y-100318000D02*
X161857500Y-100818000D01*
X161099500Y-100818000D02*
X160599500Y-100318000D01*
X161226500Y-100818000D02*
X160726500Y-100318000D01*
X161353500Y-100826000D02*
X160853500Y-100318000D01*
X161556700Y-100826000D02*
X161048700Y-100318000D01*
X161107500Y-99810000D02*
X160599500Y-100318000D01*
X161234500Y-99810000D02*
X160726500Y-100318000D01*
X161531300Y-99810000D02*
X161023300Y-100318000D01*
X161369500Y-99810000D02*
X160853500Y-100318000D01*
X161531300Y-104255000D02*
X161099500Y-104255000D01*
X161099500Y-104247000D02*
X160599500Y-103747000D01*
X161099500Y-103239000D02*
X161531300Y-103239000D01*
X161734500Y-104102600D02*
X161734500Y-103366000D01*
X161707500Y-103447000D02*
X161507500Y-103647000D01*
X161507500Y-103647000D02*
X161507500Y-103847000D01*
X161507500Y-103847000D02*
X161607500Y-103947000D01*
X161607500Y-103947000D02*
X161607500Y-103547000D01*
X161828100Y-103247000D02*
X161353500Y-103721600D01*
X161857500Y-104247000D02*
X161857500Y-103247000D01*
X161357500Y-103747000D02*
X161857500Y-104247000D01*
X161099500Y-104247000D02*
X160599500Y-103747000D01*
X161226500Y-104247000D02*
X160726500Y-103747000D01*
X161353500Y-104255000D02*
X160853500Y-103747000D01*
X161556700Y-104255000D02*
X161048700Y-103747000D01*
X161107500Y-103239000D02*
X160599500Y-103747000D01*
X161234500Y-103239000D02*
X160726500Y-103747000D01*
X161531300Y-103239000D02*
X161023300Y-103747000D01*
X161369500Y-103239000D02*
X160853500Y-103747000D01*
D12*
X151765000Y-94285500D03*
X164211000Y-90221500D03*
X163703000Y-90221500D03*
X164211000Y-89713500D03*
X161823400Y-105537700D03*
X150469600Y-110262100D03*
X140081000Y-109335000D03*
X140081000Y-108763500D03*
X168275000Y-107239500D03*
X161417000Y-105080500D03*
X168275000Y-106477500D03*
X159131000Y-91237500D03*
X163703000Y-89713500D03*
X139827000Y-103531100D03*
X139827000Y-101397500D03*
X144145000Y-97358900D03*
X143637000Y-99365500D03*
X143637000Y-101397500D03*
X143637000Y-103429500D03*
X143637000Y-107493500D03*
X143637000Y-111557500D03*
X143637000Y-113589500D03*
X160655000Y-108001500D03*
X161417000Y-107239500D03*
X155575000Y-104445500D03*
X153212800Y-103886700D03*
X145923000Y-98349500D03*
X148463000Y-98349500D03*
X152781000Y-98349500D03*
X152019000Y-110287500D03*
X151257000Y-110287500D03*
X156972000Y-114605500D03*
X157607000Y-115621500D03*
X158369000Y-115621500D03*
X164211000Y-115621500D03*
X167259000Y-115621500D03*
X166497000Y-115621500D03*
X164973000Y-115621500D03*
X165735000Y-115621500D03*
X165735000Y-112573500D03*
X165735000Y-114859500D03*
X165735000Y-114097500D03*
D13*
X165798500Y-90031000D03*
D14*
X167068500Y-90031000D03*
X168338500Y-90031000D03*
X169608500Y-90031000D03*
X170878500Y-90031000D03*
D15*
X161013500Y-110351000D03*
X169313500Y-110351000D03*
D12*
X165735000Y-113335500D03*
D16*
X161341500Y-96889000D03*
X159841500Y-96889000D03*
X142545500Y-113145000D03*
X141045500Y-113145000D03*
X139751500Y-110351000D03*
X138251500Y-110351000D03*
X138251500Y-106541000D03*
X139751500Y-106541000D03*
D17*
X159195500Y-94463000D03*
X162495500Y-94463000D03*
X162495500Y-89663000D03*
X159195500Y-89663000D03*
D18*
X158051500Y-113157000D03*
X158051500Y-114657000D03*
D19*
X148895500Y-114923000D03*
X147395500Y-114923000D03*
X145847500Y-114923000D03*
X144347500Y-114923000D03*
X141045500Y-114923000D03*
X142545500Y-114923000D03*
D18*
X162877500Y-97639000D03*
X162877500Y-96139000D03*
D19*
X138251500Y-102477000D03*
X139751500Y-102477000D03*
D20*
X139353500Y-95171000D03*
X139353500Y-89771000D03*
D21*
X151320500Y-114034000D03*
D22*
X153860500Y-114034000D03*
D23*
X160353500Y-98606000D03*
X160353500Y-100506000D03*
X162353500Y-99556000D03*
X160353500Y-102162000D03*
X160353500Y-104062000D03*
X162353500Y-103112000D03*
D21*
X165163500Y-93079000D03*
D22*
X167703500Y-93079000D03*
X170243500Y-93079000D03*
D21*
X165163500Y-95619000D03*
D22*
X167703500Y-95619000D03*
X170243500Y-95619000D03*
D21*
X165163500Y-100699000D03*
D22*
X167703500Y-100699000D03*
X170243500Y-100699000D03*
D21*
X165163500Y-103239000D03*
D22*
X167703500Y-103239000D03*
X170243500Y-103239000D03*
D21*
X165163500Y-98159000D03*
D22*
X167703500Y-98159000D03*
X170243500Y-98159000D03*
D24*
X142238500Y-96381000D03*
D25*
X142238500Y-98381000D03*
X142238500Y-100381000D03*
X142238500Y-102381000D03*
X142238500Y-104381000D03*
X142238500Y-106381000D03*
X142238500Y-108381000D03*
X142238500Y-110381000D03*
X157638500Y-110381000D03*
X157538500Y-108381000D03*
X157638500Y-106381000D03*
X157638500Y-104381000D03*
X157638500Y-102381000D03*
X157638500Y-100381000D03*
X157638500Y-98381000D03*
X157638500Y-96381000D03*
D26*
X162115500Y-100318000D03*
D27*
X160782000Y-100318000D03*
D26*
X162115500Y-103747000D03*
D27*
X160782000Y-103747000D03*
D28*
X161036000Y-113208500D03*
X137858500Y-114542000D03*
X139382500Y-93587000D03*
X162052000Y-96889000D03*
X159403500Y-101406000D03*
X165671500Y-106541000D03*
X167576500Y-111811500D03*
X162814000Y-110033500D03*
X163322000Y-110033500D03*
X168719500Y-112764000D03*
X167703500Y-114669000D03*
X140017500Y-96635000D03*
X140462000Y-105144000D03*
X144843500Y-96381000D03*
X159385000Y-91872500D03*
X163766500Y-114351500D03*
X160782000Y-90285000D03*
X157226000Y-95301486D03*
X161798008Y-92126500D03*
X144779500Y-100381000D03*
X159766000Y-92689690D03*
X156375370Y-94899476D03*
X147828000Y-103302500D03*
X155321006Y-100889500D03*
X155321000Y-103048500D03*
X154559000Y-106350500D03*
X147828000Y-104953500D03*
X148717000Y-97270000D03*
X148717000Y-96000000D03*
X159936610Y-97841500D03*
X160274000Y-101397500D03*
X151765000Y-106223500D03*
X151003002Y-106223500D03*
D29*
X148895500Y-114923000D02*
X150431500Y-114923000D01*
X150431500Y-114923000D02*
X151320500Y-114034000D01*
X158051500Y-113157000D02*
X160984500Y-113157000D01*
X160984500Y-113157000D02*
X161036000Y-113208500D01*
X139353500Y-95171000D02*
X139353500Y-96471000D01*
X139353500Y-96471000D02*
X137724499Y-98100001D01*
X137724499Y-98100001D02*
X137724499Y-105338999D01*
X137724499Y-105338999D02*
X138251500Y-105866000D01*
X138251500Y-105866000D02*
X138251500Y-106541000D01*
X162495500Y-89663000D02*
X162737500Y-89663000D01*
X162737500Y-89663000D02*
X163385500Y-89015000D01*
X141045500Y-114923000D02*
X138239500Y-114923000D01*
X138239500Y-114923000D02*
X137858500Y-114542000D01*
X138251500Y-110351000D02*
X138251500Y-111051000D01*
X138251500Y-111051000D02*
X140345500Y-113145000D01*
X140345500Y-113145000D02*
X141045500Y-113145000D01*
X138251500Y-106541000D02*
X138251500Y-107216000D01*
X138251500Y-107216000D02*
X138251500Y-110351000D01*
X139353500Y-95171000D02*
X139353500Y-93616000D01*
X139353500Y-93616000D02*
X139382500Y-93587000D01*
X141045500Y-113145000D02*
X141045500Y-114923000D01*
D30*
X156938500Y-110381000D02*
X150465000Y-110381000D01*
D31*
X161341500Y-96889000D02*
X162052000Y-96889000D01*
X167703500Y-98159000D02*
X166476499Y-96931999D01*
X166476499Y-96931999D02*
X164097897Y-96931999D01*
X164097897Y-96931999D02*
X163830000Y-96664102D01*
X163830000Y-96664102D02*
X163830000Y-93396500D01*
X163830000Y-93396500D02*
X163496500Y-93063000D01*
X163496500Y-93063000D02*
X160762204Y-93063000D01*
X160762204Y-93063000D02*
X159362204Y-94463000D01*
X159362204Y-94463000D02*
X159195500Y-94463000D01*
D32*
X169016499Y-99471999D02*
X168986200Y-99502298D01*
X168986200Y-99502298D02*
X168986200Y-103864202D01*
X168986200Y-103864202D02*
X169016499Y-103894501D01*
D31*
X159841500Y-96889000D02*
X159359600Y-97370900D01*
X159359600Y-97370900D02*
X159359600Y-99562100D01*
X159359600Y-99562100D02*
X160303500Y-100506000D01*
D33*
X160403500Y-104130500D02*
X161598002Y-105325002D01*
X160403500Y-104062000D02*
X160403500Y-104130500D01*
X161598002Y-105325002D02*
X161798001Y-105525001D01*
X161998000Y-105725000D02*
X161798001Y-105525001D01*
X162814000Y-106541000D02*
X161998000Y-105725000D01*
X165671500Y-106541000D02*
X162814000Y-106541000D01*
X160353500Y-104062000D02*
X160403500Y-104062000D01*
D31*
X167703500Y-98159000D02*
X169016499Y-99471999D01*
X169016499Y-103894501D02*
X166370000Y-106541000D01*
X160782000Y-103747000D02*
X160668500Y-103747000D01*
X160668500Y-103747000D02*
X160353500Y-104062000D01*
X160782000Y-100318000D02*
X160541500Y-100318000D01*
X160541500Y-100318000D02*
X160353500Y-100506000D01*
X160353500Y-100506000D02*
X160303500Y-100506000D01*
X160303500Y-100506000D02*
X159403500Y-101406000D01*
X159403500Y-101406000D02*
X159403500Y-103162000D01*
X159403500Y-103162000D02*
X160303500Y-104062000D01*
X160303500Y-104062000D02*
X160353500Y-104062000D01*
X160782000Y-100318000D02*
X161303500Y-100839500D01*
X161303500Y-100839500D02*
X161303500Y-103162000D01*
X161303500Y-103162000D02*
X160403500Y-104062000D01*
X159841500Y-96889000D02*
X160593501Y-97641001D01*
X160593501Y-97641001D02*
X160814899Y-97641001D01*
X160814899Y-97641001D02*
X161777398Y-98603500D01*
D30*
X159195500Y-94463000D02*
X159841500Y-95109000D01*
X159841500Y-95109000D02*
X159841500Y-96889000D01*
D31*
X167703500Y-98159000D02*
X166476499Y-99386001D01*
X166476499Y-99386001D02*
X163712103Y-99386001D01*
X163712103Y-99386001D02*
X162929602Y-98603500D01*
X162929602Y-98603500D02*
X161777398Y-98603500D01*
X161777398Y-98603500D02*
X160782000Y-99598898D01*
X160782000Y-99598898D02*
X160782000Y-100318000D01*
D33*
X168275000Y-107239500D02*
X168275000Y-106541000D01*
X165671500Y-106541000D02*
X166370000Y-106541000D01*
X168275000Y-107938000D02*
X168275000Y-107239500D01*
X169313500Y-108976500D02*
X168275000Y-107938000D01*
X169313500Y-110351000D02*
X169313500Y-108976500D01*
D29*
X167576500Y-111811500D02*
X168148000Y-111811500D01*
X168148000Y-111811500D02*
X169313500Y-110351000D01*
D33*
X161331000Y-110033500D02*
X162814000Y-110033500D01*
X162814000Y-110033500D02*
X163322000Y-110033500D01*
X161013500Y-110351000D02*
X161331000Y-110033500D01*
D29*
X142938500Y-98381000D02*
X140963900Y-98381000D01*
X139074499Y-100270401D02*
X139074499Y-110947601D01*
X140963900Y-98381000D02*
X139074499Y-100270401D01*
X139074499Y-110947601D02*
X140596898Y-112470000D01*
X142520500Y-113145000D02*
X142545500Y-113145000D01*
X140596898Y-112470000D02*
X141845500Y-112470000D01*
X141845500Y-112470000D02*
X142520500Y-113145000D01*
X142545500Y-114923000D02*
X142545500Y-113145000D01*
X144347500Y-114923000D02*
X142545500Y-114923000D01*
D33*
X140081000Y-108763500D02*
X140081000Y-109335000D01*
X140081000Y-109617842D02*
X140081000Y-109335000D01*
X140271500Y-110351000D02*
X140081000Y-110160500D01*
X140081000Y-110160500D02*
X140081000Y-109617842D01*
D30*
X139751500Y-110351000D02*
X140271500Y-110351000D01*
X140271500Y-110351000D02*
X142908500Y-110351000D01*
X142908500Y-110351000D02*
X142938500Y-110381000D01*
D29*
X167703500Y-114669000D02*
X167703500Y-113780000D01*
X167703500Y-113780000D02*
X168719500Y-112764000D01*
X140017500Y-96635000D02*
X140347700Y-96635000D01*
X140347700Y-96635000D02*
X140563600Y-96419100D01*
X140563600Y-96419100D02*
X140563600Y-92281100D01*
X140563600Y-92281100D02*
X139353500Y-91071000D01*
X139353500Y-91071000D02*
X139353500Y-89771000D01*
X139751500Y-106541000D02*
X139751500Y-105854500D01*
X139751500Y-105854500D02*
X140462000Y-105144000D01*
X142938500Y-106381000D02*
X142778500Y-106541000D01*
X142778500Y-106541000D02*
X139751500Y-106541000D01*
D11*
X165760400Y-90780300D02*
X165453211Y-91087489D01*
X165453211Y-91087489D02*
X160170011Y-91087489D01*
X160170011Y-91087489D02*
X159584999Y-91672501D01*
X159584999Y-91672501D02*
X159385000Y-91872500D01*
D31*
X165798500Y-90031000D02*
X165798500Y-90716800D01*
D29*
X138251500Y-102477000D02*
X138251500Y-100019618D01*
X138251500Y-100019618D02*
X141890118Y-96381000D01*
X141890118Y-96381000D02*
X142938500Y-96381000D01*
X144843500Y-96381000D02*
X142938500Y-96381000D01*
X141213500Y-96381000D02*
X142938500Y-96381000D01*
X163461000Y-114657000D02*
X163566501Y-114551499D01*
X158051500Y-114657000D02*
X163461000Y-114657000D01*
X163566501Y-114551499D02*
X163766500Y-114351500D01*
D31*
X162495500Y-94463000D02*
X162495500Y-95757000D01*
X162495500Y-95757000D02*
X162877500Y-96139000D01*
D29*
X160782000Y-90285000D02*
X159817500Y-90285000D01*
X159817500Y-90285000D02*
X159195500Y-89663000D01*
D31*
X162877500Y-97639000D02*
X164643500Y-97639000D01*
X164643500Y-97639000D02*
X165163500Y-98159000D01*
D11*
X162080850Y-92126500D02*
X161798008Y-92126500D01*
X167802710Y-91646289D02*
X163925315Y-91646289D01*
X168338500Y-91110500D02*
X167802710Y-91646289D01*
X163445104Y-92126500D02*
X162080850Y-92126500D01*
X163925315Y-91646289D02*
X163445104Y-92126500D01*
X156938500Y-98381000D02*
X155829000Y-97271500D01*
X156146514Y-95301486D02*
X157226000Y-95301486D01*
X155829000Y-97271500D02*
X155829000Y-95619000D01*
X155829000Y-95619000D02*
X156146514Y-95301486D01*
D31*
X168338500Y-90031000D02*
X168338500Y-91110500D01*
D29*
X147395500Y-114923000D02*
X145847500Y-114923000D01*
X142938500Y-100381000D02*
X144779500Y-100381000D01*
D11*
X167068500Y-90983500D02*
X166682722Y-91369278D01*
X166682722Y-91369278D02*
X163810573Y-91369279D01*
X163810573Y-91369279D02*
X163485152Y-91694700D01*
X163485152Y-91694700D02*
X160760990Y-91694700D01*
X160760990Y-91694700D02*
X159965999Y-92489691D01*
X159965999Y-92489691D02*
X159766000Y-92689690D01*
X155321006Y-95670998D02*
X156092528Y-94899476D01*
X156092528Y-94899476D02*
X156375370Y-94899476D01*
X155321006Y-100889500D02*
X155321006Y-95670998D01*
D29*
X147828000Y-103302500D02*
X148082000Y-103048500D01*
X148082000Y-103048500D02*
X155321000Y-103048500D01*
X156938500Y-104381000D02*
X156653500Y-104381000D01*
X156653500Y-104381000D02*
X155321000Y-103048500D01*
D31*
X167068500Y-90031000D02*
X167068500Y-90983500D01*
D29*
X156938500Y-108381000D02*
X156589500Y-108381000D01*
X156589500Y-108381000D02*
X154559000Y-106350500D01*
X147828000Y-104953500D02*
X148027999Y-105153499D01*
X148027999Y-105153499D02*
X155710999Y-105153499D01*
X155710999Y-105153499D02*
X156938500Y-106381000D01*
X142938500Y-102381000D02*
X142842500Y-102477000D01*
X142842500Y-102477000D02*
X139751500Y-102477000D01*
X156938500Y-102381000D02*
X154780500Y-102381000D01*
X154780500Y-102381000D02*
X149669500Y-97270000D01*
X149669500Y-97270000D02*
X148717000Y-97270000D01*
X156938500Y-100381000D02*
X155762499Y-101557001D01*
X155762499Y-101557001D02*
X154718501Y-101557001D01*
X154718501Y-101557001D02*
X149361499Y-96199999D01*
X149361499Y-96199999D02*
X148916999Y-96199999D01*
X148916999Y-96199999D02*
X148717000Y-96000000D01*
D11*
X167917451Y-91923300D02*
X168278241Y-91562510D01*
X156938500Y-96287500D02*
X158208500Y-96287500D01*
X164040056Y-91923300D02*
X167917451Y-91923300D01*
X158165800Y-93269500D02*
X158216600Y-93218700D01*
X168525728Y-91562510D02*
X168790510Y-91297728D01*
X158165800Y-96244800D02*
X158165800Y-93269500D01*
X159967264Y-93218700D02*
X160657462Y-92528502D01*
X168859200Y-90932700D02*
X169608500Y-91682000D01*
X158216600Y-93218700D02*
X159967264Y-93218700D01*
X158208500Y-96287500D02*
X158165800Y-96244800D01*
X160657462Y-92528502D02*
X163434854Y-92528502D01*
X163434854Y-92528502D02*
X164040056Y-91923300D01*
X168790510Y-90932700D02*
X168859200Y-90932700D01*
X168278241Y-91562510D02*
X168525728Y-91562510D01*
X168790510Y-91297728D02*
X168790510Y-90932700D01*
D29*
X156938500Y-96381000D02*
X156938500Y-96287500D01*
X169608500Y-91682000D02*
X169672000Y-91618500D01*
D31*
X169608500Y-91555000D02*
X169608500Y-90031000D01*
D11*
X156938500Y-96381000D02*
X157353000Y-96381000D01*
D32*
X163906200Y-101880100D02*
X163906200Y-101915298D01*
X163906200Y-101915298D02*
X163972602Y-101981700D01*
X163972602Y-101981700D02*
X166360202Y-101981700D01*
X166360202Y-101981700D02*
X166390501Y-102011999D01*
D31*
X162369500Y-100318000D02*
X163957000Y-101905500D01*
X162353500Y-99556000D02*
X162353500Y-100302000D01*
X162353500Y-100302000D02*
X162369500Y-100318000D01*
X162115500Y-100318000D02*
X162369500Y-100318000D01*
X166390501Y-102011999D02*
X166853501Y-101548999D01*
X166853501Y-101548999D02*
X167703500Y-100699000D01*
X162115500Y-103747000D02*
X162865500Y-103747000D01*
X163691000Y-104572500D02*
X166370000Y-104572500D01*
X162865500Y-103747000D02*
X163691000Y-104572500D01*
X166370000Y-104572500D02*
X166853501Y-104088999D01*
X166853501Y-104088999D02*
X167703500Y-103239000D01*
X162353500Y-103112000D02*
X162353500Y-103509000D01*
X162353500Y-103509000D02*
X162115500Y-103747000D01*
D29*
X160353500Y-98258390D02*
X160136609Y-98041499D01*
X160353500Y-98606000D02*
X160353500Y-98258390D01*
X160136609Y-98041499D02*
X159936610Y-97841500D01*
X160353500Y-102162000D02*
X160353500Y-101477000D01*
X160353500Y-101477000D02*
X160274000Y-101397500D01*
X151765000Y-106506342D02*
X151765000Y-106223500D01*
X149890342Y-108381000D02*
X151765000Y-106506342D01*
X142938500Y-108381000D02*
X149890342Y-108381000D01*
X150720160Y-106223500D02*
X151003002Y-106223500D01*
X144781000Y-106223500D02*
X150720160Y-106223500D01*
X142938500Y-104381000D02*
X144781000Y-106223500D01*
D34*
G36*
X161644675Y-93176407D02*
X161506151Y-93265544D01*
X161413221Y-93401552D01*
X161380527Y-93563000D01*
X161380527Y-95363000D01*
X161408907Y-95513825D01*
X161498044Y-95652349D01*
X161634052Y-95745279D01*
X161795500Y-95777973D01*
X161842672Y-95777973D01*
X161888511Y-96008423D01*
X162012527Y-96194026D01*
X162012527Y-96206593D01*
X161902948Y-96131721D01*
X161741500Y-96099027D01*
X160941500Y-96099027D01*
X160790675Y-96127407D01*
X160652151Y-96216544D01*
X160559221Y-96352552D01*
X160526527Y-96514000D01*
X160526527Y-97264000D01*
X160554907Y-97414825D01*
X160644044Y-97553349D01*
X160780052Y-97646279D01*
X160941500Y-97678973D01*
X161741500Y-97678973D01*
X161892325Y-97650593D01*
X162012527Y-97573246D01*
X162012527Y-97889000D01*
X162040907Y-98039825D01*
X162130044Y-98178349D01*
X162266052Y-98271279D01*
X162427500Y-98303973D01*
X163327500Y-98303973D01*
X163369872Y-98296000D01*
X163898527Y-98296000D01*
X163898527Y-99009000D01*
X163926907Y-99159825D01*
X164016044Y-99298349D01*
X164152052Y-99391279D01*
X164313500Y-99423973D01*
X166013500Y-99423973D01*
X166164325Y-99395593D01*
X166302849Y-99306456D01*
X166395779Y-99170448D01*
X166428473Y-99009000D01*
X166428473Y-97309000D01*
X166400093Y-97158175D01*
X166310956Y-97019651D01*
X166174948Y-96926721D01*
X166013500Y-96894027D01*
X164313500Y-96894027D01*
X164162675Y-96922407D01*
X164070064Y-96982000D01*
X163366872Y-96982000D01*
X163327500Y-96974027D01*
X162692087Y-96974027D01*
X162709000Y-96889000D01*
X162692087Y-96803973D01*
X163327500Y-96803973D01*
X163478325Y-96775593D01*
X163616849Y-96686456D01*
X163709779Y-96550448D01*
X163742473Y-96389000D01*
X163742473Y-95889000D01*
X163714093Y-95738175D01*
X163624956Y-95599651D01*
X163557764Y-95553741D01*
X163577779Y-95524448D01*
X163610473Y-95363000D01*
X163610473Y-94769000D01*
X163898527Y-94769000D01*
X163898527Y-96469000D01*
X163926907Y-96619825D01*
X164016044Y-96758349D01*
X164152052Y-96851279D01*
X164313500Y-96883973D01*
X166013500Y-96883973D01*
X166164325Y-96855593D01*
X166302849Y-96766456D01*
X166395779Y-96630448D01*
X166428473Y-96469000D01*
X166428473Y-94769000D01*
X166400093Y-94618175D01*
X166310956Y-94479651D01*
X166174948Y-94386721D01*
X166013500Y-94354027D01*
X164313500Y-94354027D01*
X164162675Y-94382407D01*
X164024151Y-94471544D01*
X163931221Y-94607552D01*
X163898527Y-94769000D01*
X163610473Y-94769000D01*
X163610473Y-93622426D01*
X163843408Y-94088296D01*
X163874454Y-94128015D01*
X163918507Y-94152526D01*
X163957000Y-94158500D01*
X163977533Y-94158500D01*
X164016044Y-94218349D01*
X164152052Y-94311279D01*
X164313500Y-94343973D01*
X166013500Y-94343973D01*
X166164325Y-94315593D01*
X166302849Y-94226456D01*
X166331516Y-94184500D01*
X167102076Y-94184500D01*
X167222467Y-94264943D01*
X167645052Y-94349000D01*
X167222467Y-94433057D01*
X166814667Y-94705541D01*
X166542183Y-95113341D01*
X166446500Y-95594374D01*
X166446500Y-95643626D01*
X166542183Y-96124659D01*
X166814667Y-96532459D01*
X167222467Y-96804943D01*
X167703500Y-96900626D01*
X168184533Y-96804943D01*
X168592333Y-96532459D01*
X168656000Y-96437175D01*
X168656000Y-99880825D01*
X168592333Y-99785541D01*
X168184533Y-99513057D01*
X167703500Y-99417374D01*
X167222467Y-99513057D01*
X166814667Y-99785541D01*
X166542183Y-100193341D01*
X166446500Y-100674374D01*
X166446500Y-100723626D01*
X166496810Y-100976552D01*
X166428473Y-101044889D01*
X166428473Y-99849000D01*
X166400093Y-99698175D01*
X166310956Y-99559651D01*
X166174948Y-99466721D01*
X166013500Y-99434027D01*
X164313500Y-99434027D01*
X164162675Y-99462407D01*
X164024151Y-99551544D01*
X163931221Y-99687552D01*
X163898527Y-99849000D01*
X163898527Y-100917889D01*
X163150183Y-100169545D01*
X163185779Y-100117448D01*
X163218473Y-99956000D01*
X163218473Y-99156000D01*
X163190093Y-99005175D01*
X163100956Y-98866651D01*
X162964948Y-98773721D01*
X162803500Y-98741027D01*
X161903500Y-98741027D01*
X161752675Y-98769407D01*
X161614151Y-98858544D01*
X161521221Y-98994552D01*
X161488527Y-99156000D01*
X161488527Y-99328000D01*
X161099500Y-99328000D01*
X161034664Y-99340897D01*
X161092849Y-99303456D01*
X161185779Y-99167448D01*
X161218473Y-99006000D01*
X161218473Y-98206000D01*
X161190093Y-98055175D01*
X161100956Y-97916651D01*
X160964948Y-97823721D01*
X160803500Y-97791027D01*
X160673854Y-97791027D01*
X160530469Y-97647643D01*
X160530467Y-97647640D01*
X160501185Y-97618358D01*
X160451500Y-97498111D01*
X160280897Y-97327210D01*
X160057880Y-97234605D01*
X159816400Y-97234395D01*
X159593221Y-97326610D01*
X159422320Y-97497213D01*
X159329715Y-97720230D01*
X159329505Y-97961710D01*
X159421720Y-98184889D01*
X159488527Y-98251813D01*
X159488527Y-99006000D01*
X159516907Y-99156825D01*
X159606044Y-99295349D01*
X159742052Y-99388279D01*
X159903500Y-99420973D01*
X160803500Y-99420973D01*
X160841521Y-99413819D01*
X160758675Y-99469175D01*
X160742567Y-99493282D01*
X160258675Y-99977175D01*
X160154190Y-100133546D01*
X160117501Y-100318000D01*
X160154190Y-100502454D01*
X160258675Y-100658825D01*
X160390451Y-100790601D01*
X160153790Y-100790395D01*
X159930611Y-100882610D01*
X159759710Y-101053213D01*
X159667105Y-101276230D01*
X159666971Y-101430556D01*
X159614151Y-101464544D01*
X159521221Y-101600552D01*
X159488527Y-101762000D01*
X159488527Y-102562000D01*
X159516907Y-102712825D01*
X159606044Y-102851349D01*
X159742052Y-102944279D01*
X159903500Y-102976973D01*
X160687876Y-102976973D01*
X160258675Y-103406175D01*
X160154190Y-103562546D01*
X160117501Y-103747000D01*
X160154190Y-103931454D01*
X160258675Y-104087825D01*
X160742567Y-104571718D01*
X160758675Y-104595825D01*
X160915047Y-104700310D01*
X161099500Y-104737000D01*
X161531300Y-104737000D01*
X161544002Y-104734473D01*
X161556700Y-104736999D01*
X161702249Y-104708047D01*
X161704052Y-104709279D01*
X161865500Y-104741973D01*
X162365500Y-104741973D01*
X162516325Y-104713593D01*
X162654849Y-104624456D01*
X162719377Y-104530015D01*
X163226431Y-105037069D01*
X163439577Y-105179489D01*
X163691000Y-105229500D01*
X166370000Y-105229500D01*
X166621423Y-105179489D01*
X166834569Y-105037069D01*
X167409493Y-104462145D01*
X167703500Y-104520626D01*
X168184533Y-104424943D01*
X168592333Y-104152459D01*
X168685300Y-104013324D01*
X168700349Y-104033926D01*
X169480801Y-104702885D01*
X169765208Y-104987292D01*
X169894654Y-105074434D01*
X169920344Y-105079636D01*
X170408000Y-105497627D01*
X170408000Y-111912500D01*
X168148000Y-111912500D01*
X168148000Y-107747500D01*
X168137994Y-107698090D01*
X168110803Y-107657697D01*
X167348803Y-106895697D01*
X167306789Y-106867834D01*
X167259000Y-106858500D01*
X162488381Y-106858500D01*
X159258000Y-103379628D01*
X159258000Y-93700700D01*
X159967264Y-93700700D01*
X160121115Y-93670097D01*
X160151718Y-93664010D01*
X160308089Y-93559525D01*
X160699115Y-93168500D01*
X161686697Y-93168500D01*
X161644675Y-93176407D01*
X161644675Y-93176407D01*
G37*
X161644675Y-93176407D02*
X161506151Y-93265544D01*
X161413221Y-93401552D01*
X161380527Y-93563000D01*
X161380527Y-95363000D01*
X161408907Y-95513825D01*
X161498044Y-95652349D01*
X161634052Y-95745279D01*
X161795500Y-95777973D01*
X161842672Y-95777973D01*
X161888511Y-96008423D01*
X162012527Y-96194026D01*
X162012527Y-96206593D01*
X161902948Y-96131721D01*
X161741500Y-96099027D01*
X160941500Y-96099027D01*
X160790675Y-96127407D01*
X160652151Y-96216544D01*
X160559221Y-96352552D01*
X160526527Y-96514000D01*
X160526527Y-97264000D01*
X160554907Y-97414825D01*
X160644044Y-97553349D01*
X160780052Y-97646279D01*
X160941500Y-97678973D01*
X161741500Y-97678973D01*
X161892325Y-97650593D01*
X162012527Y-97573246D01*
X162012527Y-97889000D01*
X162040907Y-98039825D01*
X162130044Y-98178349D01*
X162266052Y-98271279D01*
X162427500Y-98303973D01*
X163327500Y-98303973D01*
X163369872Y-98296000D01*
X163898527Y-98296000D01*
X163898527Y-99009000D01*
X163926907Y-99159825D01*
X164016044Y-99298349D01*
X164152052Y-99391279D01*
X164313500Y-99423973D01*
X166013500Y-99423973D01*
X166164325Y-99395593D01*
X166302849Y-99306456D01*
X166395779Y-99170448D01*
X166428473Y-99009000D01*
X166428473Y-97309000D01*
X166400093Y-97158175D01*
X166310956Y-97019651D01*
X166174948Y-96926721D01*
X166013500Y-96894027D01*
X164313500Y-96894027D01*
X164162675Y-96922407D01*
X164070064Y-96982000D01*
X163366872Y-96982000D01*
X163327500Y-96974027D01*
X162692087Y-96974027D01*
X162709000Y-96889000D01*
X162692087Y-96803973D01*
X163327500Y-96803973D01*
X163478325Y-96775593D01*
X163616849Y-96686456D01*
X163709779Y-96550448D01*
X163742473Y-96389000D01*
X163742473Y-95889000D01*
X163714093Y-95738175D01*
X163624956Y-95599651D01*
X163557764Y-95553741D01*
X163577779Y-95524448D01*
X163610473Y-95363000D01*
X163610473Y-94769000D01*
X163898527Y-94769000D01*
X163898527Y-96469000D01*
X163926907Y-96619825D01*
X164016044Y-96758349D01*
X164152052Y-96851279D01*
X164313500Y-96883973D01*
X166013500Y-96883973D01*
X166164325Y-96855593D01*
X166302849Y-96766456D01*
X166395779Y-96630448D01*
X166428473Y-96469000D01*
X166428473Y-94769000D01*
X166400093Y-94618175D01*
X166310956Y-94479651D01*
X166174948Y-94386721D01*
X166013500Y-94354027D01*
X164313500Y-94354027D01*
X164162675Y-94382407D01*
X164024151Y-94471544D01*
X163931221Y-94607552D01*
X163898527Y-94769000D01*
X163610473Y-94769000D01*
X163610473Y-93622426D01*
X163843408Y-94088296D01*
X163874454Y-94128015D01*
X163918507Y-94152526D01*
X163957000Y-94158500D01*
X163977533Y-94158500D01*
X164016044Y-94218349D01*
X164152052Y-94311279D01*
X164313500Y-94343973D01*
X166013500Y-94343973D01*
X166164325Y-94315593D01*
X166302849Y-94226456D01*
X166331516Y-94184500D01*
X167102076Y-94184500D01*
X167222467Y-94264943D01*
X167645052Y-94349000D01*
X167222467Y-94433057D01*
X166814667Y-94705541D01*
X166542183Y-95113341D01*
X166446500Y-95594374D01*
X166446500Y-95643626D01*
X166542183Y-96124659D01*
X166814667Y-96532459D01*
X167222467Y-96804943D01*
X167703500Y-96900626D01*
X168184533Y-96804943D01*
X168592333Y-96532459D01*
X168656000Y-96437175D01*
X168656000Y-99880825D01*
X168592333Y-99785541D01*
X168184533Y-99513057D01*
X167703500Y-99417374D01*
X167222467Y-99513057D01*
X166814667Y-99785541D01*
X166542183Y-100193341D01*
X166446500Y-100674374D01*
X166446500Y-100723626D01*
X166496810Y-100976552D01*
X166428473Y-101044889D01*
X166428473Y-99849000D01*
X166400093Y-99698175D01*
X166310956Y-99559651D01*
X166174948Y-99466721D01*
X166013500Y-99434027D01*
X164313500Y-99434027D01*
X164162675Y-99462407D01*
X164024151Y-99551544D01*
X163931221Y-99687552D01*
X163898527Y-99849000D01*
X163898527Y-100917889D01*
X163150183Y-100169545D01*
X163185779Y-100117448D01*
X163218473Y-99956000D01*
X163218473Y-99156000D01*
X163190093Y-99005175D01*
X163100956Y-98866651D01*
X162964948Y-98773721D01*
X162803500Y-98741027D01*
X161903500Y-98741027D01*
X161752675Y-98769407D01*
X161614151Y-98858544D01*
X161521221Y-98994552D01*
X161488527Y-99156000D01*
X161488527Y-99328000D01*
X161099500Y-99328000D01*
X161034664Y-99340897D01*
X161092849Y-99303456D01*
X161185779Y-99167448D01*
X161218473Y-99006000D01*
X161218473Y-98206000D01*
X161190093Y-98055175D01*
X161100956Y-97916651D01*
X160964948Y-97823721D01*
X160803500Y-97791027D01*
X160673854Y-97791027D01*
X160530469Y-97647643D01*
X160530467Y-97647640D01*
X160501185Y-97618358D01*
X160451500Y-97498111D01*
X160280897Y-97327210D01*
X160057880Y-97234605D01*
X159816400Y-97234395D01*
X159593221Y-97326610D01*
X159422320Y-97497213D01*
X159329715Y-97720230D01*
X159329505Y-97961710D01*
X159421720Y-98184889D01*
X159488527Y-98251813D01*
X159488527Y-99006000D01*
X159516907Y-99156825D01*
X159606044Y-99295349D01*
X159742052Y-99388279D01*
X159903500Y-99420973D01*
X160803500Y-99420973D01*
X160841521Y-99413819D01*
X160758675Y-99469175D01*
X160742567Y-99493282D01*
X160258675Y-99977175D01*
X160154190Y-100133546D01*
X160117501Y-100318000D01*
X160154190Y-100502454D01*
X160258675Y-100658825D01*
X160390451Y-100790601D01*
X160153790Y-100790395D01*
X159930611Y-100882610D01*
X159759710Y-101053213D01*
X159667105Y-101276230D01*
X159666971Y-101430556D01*
X159614151Y-101464544D01*
X159521221Y-101600552D01*
X159488527Y-101762000D01*
X159488527Y-102562000D01*
X159516907Y-102712825D01*
X159606044Y-102851349D01*
X159742052Y-102944279D01*
X159903500Y-102976973D01*
X160687876Y-102976973D01*
X160258675Y-103406175D01*
X160154190Y-103562546D01*
X160117501Y-103747000D01*
X160154190Y-103931454D01*
X160258675Y-104087825D01*
X160742567Y-104571718D01*
X160758675Y-104595825D01*
X160915047Y-104700310D01*
X161099500Y-104737000D01*
X161531300Y-104737000D01*
X161544002Y-104734473D01*
X161556700Y-104736999D01*
X161702249Y-104708047D01*
X161704052Y-104709279D01*
X161865500Y-104741973D01*
X162365500Y-104741973D01*
X162516325Y-104713593D01*
X162654849Y-104624456D01*
X162719377Y-104530015D01*
X163226431Y-105037069D01*
X163439577Y-105179489D01*
X163691000Y-105229500D01*
X166370000Y-105229500D01*
X166621423Y-105179489D01*
X166834569Y-105037069D01*
X167409493Y-104462145D01*
X167703500Y-104520626D01*
X168184533Y-104424943D01*
X168592333Y-104152459D01*
X168685300Y-104013324D01*
X168700349Y-104033926D01*
X169480801Y-104702885D01*
X169765208Y-104987292D01*
X169894654Y-105074434D01*
X169920344Y-105079636D01*
X170408000Y-105497627D01*
X170408000Y-111912500D01*
X168148000Y-111912500D01*
X168148000Y-107747500D01*
X168137994Y-107698090D01*
X168110803Y-107657697D01*
X167348803Y-106895697D01*
X167306789Y-106867834D01*
X167259000Y-106858500D01*
X162488381Y-106858500D01*
X159258000Y-103379628D01*
X159258000Y-93700700D01*
X159967264Y-93700700D01*
X160121115Y-93670097D01*
X160151718Y-93664010D01*
X160308089Y-93559525D01*
X160699115Y-93168500D01*
X161686697Y-93168500D01*
X161644675Y-93176407D01*
G36*
X138138527Y-90771000D02*
X138166907Y-90921825D01*
X138256044Y-91060349D01*
X138392052Y-91153279D01*
X138553500Y-91185973D01*
X138819369Y-91185973D01*
X138835209Y-91265605D01*
X138838899Y-91284155D01*
X138959642Y-91464858D01*
X140006600Y-92511817D01*
X140006600Y-93764000D01*
X139528250Y-93764000D01*
X139426500Y-93865750D01*
X139426500Y-95098000D01*
X139446500Y-95098000D01*
X139446500Y-95244000D01*
X139426500Y-95244000D01*
X139426500Y-96475451D01*
X139410605Y-96513730D01*
X139410395Y-96755210D01*
X139502610Y-96978389D01*
X139673213Y-97149290D01*
X139896230Y-97241895D01*
X140137710Y-97242105D01*
X140258974Y-97192000D01*
X140291401Y-97192000D01*
X137857642Y-99625760D01*
X137736899Y-99806463D01*
X137694500Y-100019618D01*
X137694500Y-101755377D01*
X137619221Y-101865552D01*
X137586527Y-102027000D01*
X137586527Y-102927000D01*
X137614907Y-103077825D01*
X137704044Y-103216349D01*
X137840052Y-103309279D01*
X138001500Y-103341973D01*
X138501500Y-103341973D01*
X138517499Y-103338963D01*
X138517499Y-105759000D01*
X138426250Y-105759000D01*
X138324500Y-105860750D01*
X138324500Y-106468000D01*
X138344500Y-106468000D01*
X138344500Y-106614000D01*
X138324500Y-106614000D01*
X138324500Y-107221250D01*
X138426250Y-107323000D01*
X138517499Y-107323000D01*
X138517499Y-109569000D01*
X138426250Y-109569000D01*
X138324500Y-109670750D01*
X138324500Y-110278000D01*
X138344500Y-110278000D01*
X138344500Y-110424000D01*
X138324500Y-110424000D01*
X138324500Y-111031250D01*
X138426250Y-111133000D01*
X138554377Y-111133000D01*
X138559898Y-111160756D01*
X138680641Y-111341459D01*
X140203039Y-112863858D01*
X140238500Y-112887552D01*
X140238500Y-112970250D01*
X140340250Y-113072000D01*
X140972500Y-113072000D01*
X140972500Y-113052000D01*
X141118500Y-113052000D01*
X141118500Y-113072000D01*
X141138500Y-113072000D01*
X141138500Y-113218000D01*
X141118500Y-113218000D01*
X141118500Y-113825250D01*
X141220250Y-113927000D01*
X141526457Y-113927000D01*
X141676047Y-113865038D01*
X141790538Y-113750547D01*
X141798241Y-113731952D01*
X141848044Y-113809349D01*
X141984052Y-113902279D01*
X141988500Y-113903180D01*
X141988500Y-114201377D01*
X141913221Y-114311552D01*
X141880527Y-114473000D01*
X141880527Y-115373000D01*
X141908907Y-115523825D01*
X141998044Y-115662349D01*
X142134052Y-115755279D01*
X142295500Y-115787973D01*
X142795500Y-115787973D01*
X142946325Y-115759593D01*
X143084849Y-115670456D01*
X143177779Y-115534448D01*
X143188805Y-115480000D01*
X143702661Y-115480000D01*
X143710907Y-115523825D01*
X143800044Y-115662349D01*
X143936052Y-115755279D01*
X144097500Y-115787973D01*
X144597500Y-115787973D01*
X144748325Y-115759593D01*
X144886849Y-115670456D01*
X144979779Y-115534448D01*
X145012473Y-115373000D01*
X145012473Y-114473000D01*
X145182527Y-114473000D01*
X145182527Y-115373000D01*
X145210907Y-115523825D01*
X145300044Y-115662349D01*
X145436052Y-115755279D01*
X145597500Y-115787973D01*
X146097500Y-115787973D01*
X146248325Y-115759593D01*
X146386849Y-115670456D01*
X146479779Y-115534448D01*
X146490805Y-115480000D01*
X146750661Y-115480000D01*
X146758907Y-115523825D01*
X146848044Y-115662349D01*
X146984052Y-115755279D01*
X147145500Y-115787973D01*
X147645500Y-115787973D01*
X147796325Y-115759593D01*
X147934849Y-115670456D01*
X148027779Y-115534448D01*
X148060473Y-115373000D01*
X148060473Y-114473000D01*
X148230527Y-114473000D01*
X148230527Y-115373000D01*
X148258907Y-115523825D01*
X148348044Y-115662349D01*
X148484052Y-115755279D01*
X148645500Y-115787973D01*
X149145500Y-115787973D01*
X149296325Y-115759593D01*
X149434849Y-115670456D01*
X149527779Y-115534448D01*
X149538805Y-115480000D01*
X150431500Y-115480000D01*
X150644655Y-115437601D01*
X150825358Y-115316858D01*
X150843243Y-115298973D01*
X152170500Y-115298973D01*
X152321325Y-115270593D01*
X152459849Y-115181456D01*
X152552779Y-115045448D01*
X152585473Y-114884000D01*
X152585473Y-114009374D01*
X152603500Y-114009374D01*
X152603500Y-114058626D01*
X152699183Y-114539659D01*
X152971667Y-114947459D01*
X153379467Y-115219943D01*
X153860500Y-115315626D01*
X154341533Y-115219943D01*
X154749333Y-114947459D01*
X155021817Y-114539659D01*
X155048204Y-114407000D01*
X157186527Y-114407000D01*
X157186527Y-114907000D01*
X157214907Y-115057825D01*
X157304044Y-115196349D01*
X157440052Y-115289279D01*
X157601500Y-115321973D01*
X158501500Y-115321973D01*
X158652325Y-115293593D01*
X158776017Y-115214000D01*
X163461000Y-115214000D01*
X163674155Y-115171601D01*
X163854858Y-115050858D01*
X163960360Y-114945357D01*
X163960362Y-114945354D01*
X163989641Y-114916075D01*
X164109889Y-114866390D01*
X164280790Y-114695787D01*
X164373395Y-114472770D01*
X164373605Y-114231290D01*
X164281390Y-114008111D01*
X164110787Y-113837210D01*
X163887770Y-113744605D01*
X163646290Y-113744395D01*
X163423111Y-113836610D01*
X163252210Y-114007213D01*
X163213681Y-114100000D01*
X158773123Y-114100000D01*
X158662948Y-114024721D01*
X158501500Y-113992027D01*
X157601500Y-113992027D01*
X157450675Y-114020407D01*
X157312151Y-114109544D01*
X157219221Y-114245552D01*
X157186527Y-114407000D01*
X155048204Y-114407000D01*
X155117500Y-114058626D01*
X155117500Y-114009374D01*
X155021817Y-113528341D01*
X154749333Y-113120541D01*
X154429748Y-112907000D01*
X157186527Y-112907000D01*
X157186527Y-113407000D01*
X157214907Y-113557825D01*
X157304044Y-113696349D01*
X157440052Y-113789279D01*
X157601500Y-113821973D01*
X158501500Y-113821973D01*
X158652325Y-113793593D01*
X158776017Y-113714000D01*
X160682938Y-113714000D01*
X160691713Y-113722790D01*
X160914730Y-113815395D01*
X161156210Y-113815605D01*
X161379389Y-113723390D01*
X161550290Y-113552787D01*
X161642895Y-113329770D01*
X161643105Y-113088290D01*
X161550890Y-112865111D01*
X161380287Y-112694210D01*
X161157270Y-112601605D01*
X160991846Y-112601461D01*
X160984500Y-112600000D01*
X158773123Y-112600000D01*
X158662948Y-112524721D01*
X158501500Y-112492027D01*
X157601500Y-112492027D01*
X157450675Y-112520407D01*
X157312151Y-112609544D01*
X157219221Y-112745552D01*
X157186527Y-112907000D01*
X154429748Y-112907000D01*
X154341533Y-112848057D01*
X153860500Y-112752374D01*
X153379467Y-112848057D01*
X152971667Y-113120541D01*
X152699183Y-113528341D01*
X152603500Y-114009374D01*
X152585473Y-114009374D01*
X152585473Y-113184000D01*
X152557093Y-113033175D01*
X152467956Y-112894651D01*
X152331948Y-112801721D01*
X152170500Y-112769027D01*
X150470500Y-112769027D01*
X150319675Y-112797407D01*
X150181151Y-112886544D01*
X150088221Y-113022552D01*
X150055527Y-113184000D01*
X150055527Y-114366000D01*
X149540339Y-114366000D01*
X149532093Y-114322175D01*
X149442956Y-114183651D01*
X149306948Y-114090721D01*
X149145500Y-114058027D01*
X148645500Y-114058027D01*
X148494675Y-114086407D01*
X148356151Y-114175544D01*
X148263221Y-114311552D01*
X148230527Y-114473000D01*
X148060473Y-114473000D01*
X148032093Y-114322175D01*
X147942956Y-114183651D01*
X147806948Y-114090721D01*
X147645500Y-114058027D01*
X147145500Y-114058027D01*
X146994675Y-114086407D01*
X146856151Y-114175544D01*
X146763221Y-114311552D01*
X146752195Y-114366000D01*
X146492339Y-114366000D01*
X146484093Y-114322175D01*
X146394956Y-114183651D01*
X146258948Y-114090721D01*
X146097500Y-114058027D01*
X145597500Y-114058027D01*
X145446675Y-114086407D01*
X145308151Y-114175544D01*
X145215221Y-114311552D01*
X145182527Y-114473000D01*
X145012473Y-114473000D01*
X144984093Y-114322175D01*
X144894956Y-114183651D01*
X144758948Y-114090721D01*
X144597500Y-114058027D01*
X144097500Y-114058027D01*
X143946675Y-114086407D01*
X143808151Y-114175544D01*
X143715221Y-114311552D01*
X143704195Y-114366000D01*
X143190339Y-114366000D01*
X143182093Y-114322175D01*
X143102500Y-114198483D01*
X143102500Y-113902620D01*
X143234849Y-113817456D01*
X143327779Y-113681448D01*
X143360473Y-113520000D01*
X143360473Y-112770000D01*
X143332093Y-112619175D01*
X143242956Y-112480651D01*
X143106948Y-112387721D01*
X142945500Y-112355027D01*
X142518243Y-112355027D01*
X142239358Y-112076142D01*
X142058655Y-111955399D01*
X141845500Y-111913000D01*
X140827615Y-111913000D01*
X140148061Y-111233447D01*
X140271500Y-111258000D01*
X140618594Y-111188959D01*
X140664927Y-111158000D01*
X140979444Y-111158000D01*
X141139809Y-111265153D01*
X141506037Y-111338000D01*
X142970963Y-111338000D01*
X143337191Y-111265153D01*
X143647664Y-111057701D01*
X143855116Y-110747228D01*
X143883929Y-110602373D01*
X156007456Y-110602373D01*
X156026411Y-110679785D01*
X156210180Y-111006083D01*
X156504829Y-111237217D01*
X156865500Y-111338000D01*
X157565500Y-111338000D01*
X157565500Y-110454000D01*
X156086371Y-110454000D01*
X156007456Y-110602373D01*
X143883929Y-110602373D01*
X143927963Y-110381000D01*
X143883930Y-110159627D01*
X156007456Y-110159627D01*
X156086371Y-110308000D01*
X157565500Y-110308000D01*
X157565500Y-109424000D01*
X157711500Y-109424000D01*
X157711500Y-110308000D01*
X157731500Y-110308000D01*
X157731500Y-110454000D01*
X157711500Y-110454000D01*
X157711500Y-111338000D01*
X158411500Y-111338000D01*
X158772171Y-111237217D01*
X159066820Y-111006083D01*
X159248527Y-110683446D01*
X159248527Y-112151000D01*
X159276907Y-112301825D01*
X159366044Y-112440349D01*
X159502052Y-112533279D01*
X159663500Y-112565973D01*
X162363500Y-112565973D01*
X162514325Y-112537593D01*
X162652849Y-112448456D01*
X162745779Y-112312448D01*
X162778473Y-112151000D01*
X162778473Y-110940500D01*
X163322000Y-110940500D01*
X163669094Y-110871459D01*
X163963346Y-110674846D01*
X164159959Y-110380594D01*
X164229000Y-110033500D01*
X164159959Y-109686406D01*
X163963346Y-109392154D01*
X163669094Y-109195541D01*
X163322000Y-109126500D01*
X162778473Y-109126500D01*
X162778473Y-108551000D01*
X162750093Y-108400175D01*
X162660956Y-108261651D01*
X162524948Y-108168721D01*
X162363500Y-108136027D01*
X159663500Y-108136027D01*
X159512675Y-108164407D01*
X159374151Y-108253544D01*
X159281221Y-108389552D01*
X159248527Y-108551000D01*
X159248527Y-110078554D01*
X159066820Y-109755917D01*
X158772171Y-109524783D01*
X158411500Y-109424000D01*
X157711500Y-109424000D01*
X157565500Y-109424000D01*
X156865500Y-109424000D01*
X156504829Y-109524783D01*
X156210180Y-109755917D01*
X156026411Y-110082215D01*
X156007456Y-110159627D01*
X143883930Y-110159627D01*
X143855116Y-110014772D01*
X143647664Y-109704299D01*
X143337191Y-109496847D01*
X142970963Y-109424000D01*
X141506037Y-109424000D01*
X141139809Y-109496847D01*
X141069240Y-109544000D01*
X140988000Y-109544000D01*
X140988000Y-109163717D01*
X141139809Y-109265153D01*
X141506037Y-109338000D01*
X142970963Y-109338000D01*
X143337191Y-109265153D01*
X143647664Y-109057701D01*
X143727646Y-108938000D01*
X149890342Y-108938000D01*
X150103497Y-108895601D01*
X150284200Y-108774858D01*
X152158859Y-106900200D01*
X152256443Y-106754155D01*
X152279601Y-106719497D01*
X152322000Y-106506342D01*
X152322000Y-106470710D01*
X153951895Y-106470710D01*
X154044110Y-106693889D01*
X154214713Y-106864790D01*
X154335892Y-106915108D01*
X155860770Y-108439987D01*
X155921884Y-108747228D01*
X156129336Y-109057701D01*
X156439809Y-109265153D01*
X156806037Y-109338000D01*
X158270963Y-109338000D01*
X158637191Y-109265153D01*
X158947664Y-109057701D01*
X159155116Y-108747228D01*
X159227963Y-108381000D01*
X159155116Y-108014772D01*
X158947664Y-107704299D01*
X158637191Y-107496847D01*
X158270963Y-107424000D01*
X156806037Y-107424000D01*
X156484228Y-107488011D01*
X155123575Y-106127359D01*
X155073890Y-106007111D01*
X154903287Y-105836210D01*
X154680270Y-105743605D01*
X154438790Y-105743395D01*
X154215611Y-105835610D01*
X154044710Y-106006213D01*
X153952105Y-106229230D01*
X153951895Y-106470710D01*
X152322000Y-106470710D01*
X152322000Y-106464930D01*
X152371895Y-106344770D01*
X152372105Y-106103290D01*
X152279890Y-105880111D01*
X152110574Y-105710499D01*
X155480283Y-105710499D01*
X155982509Y-106212725D01*
X155949037Y-106381000D01*
X156021884Y-106747228D01*
X156229336Y-107057701D01*
X156539809Y-107265153D01*
X156906037Y-107338000D01*
X158370963Y-107338000D01*
X158737191Y-107265153D01*
X159047664Y-107057701D01*
X159255116Y-106747228D01*
X159327963Y-106381000D01*
X159255116Y-106014772D01*
X159047664Y-105704299D01*
X158737191Y-105496847D01*
X158370963Y-105424000D01*
X156906037Y-105424000D01*
X156791916Y-105446700D01*
X156627890Y-105282673D01*
X156906037Y-105338000D01*
X158370963Y-105338000D01*
X158737191Y-105265153D01*
X159047664Y-105057701D01*
X159255116Y-104747228D01*
X159327963Y-104381000D01*
X159324466Y-104363419D01*
X159506517Y-104557607D01*
X159516907Y-104612825D01*
X159606044Y-104751349D01*
X159742052Y-104844279D01*
X159783057Y-104852583D01*
X162340349Y-107580361D01*
X162381442Y-107609564D01*
X162433000Y-107620500D01*
X167206394Y-107620500D01*
X167368000Y-107782106D01*
X167368000Y-107938000D01*
X167386000Y-108028492D01*
X167386000Y-111233438D01*
X167233111Y-111296610D01*
X167062210Y-111467213D01*
X166969605Y-111690230D01*
X166969395Y-111931710D01*
X167061610Y-112154889D01*
X167232213Y-112325790D01*
X167419752Y-112403663D01*
X167424447Y-112410535D01*
X167466841Y-112437815D01*
X167513000Y-112446500D01*
X167675046Y-112446500D01*
X167802052Y-112533279D01*
X167963500Y-112565973D01*
X168129811Y-112565973D01*
X167309642Y-113386142D01*
X167188899Y-113566845D01*
X167146500Y-113780000D01*
X167146500Y-114427570D01*
X167096605Y-114547730D01*
X167096395Y-114789210D01*
X167188610Y-115012389D01*
X167359213Y-115183290D01*
X167582230Y-115275895D01*
X167823710Y-115276105D01*
X168046889Y-115183890D01*
X168217790Y-115013287D01*
X168310395Y-114790270D01*
X168310605Y-114548790D01*
X168260500Y-114427526D01*
X168260500Y-114010716D01*
X168942641Y-113328575D01*
X169062889Y-113278890D01*
X169233790Y-113108287D01*
X169326395Y-112885270D01*
X169326605Y-112643790D01*
X169294452Y-112565973D01*
X170663500Y-112565973D01*
X170814325Y-112537593D01*
X170952849Y-112448456D01*
X171045779Y-112312448D01*
X171078473Y-112151000D01*
X171078473Y-108551000D01*
X171050093Y-108400175D01*
X170960956Y-108261651D01*
X170942000Y-108248699D01*
X170942000Y-104699500D01*
X170931994Y-104650090D01*
X170903553Y-104608465D01*
X170861159Y-104581185D01*
X170815000Y-104572500D01*
X170105606Y-104572500D01*
X169993170Y-104460064D01*
X170170500Y-104391941D01*
X170170500Y-103312000D01*
X170150500Y-103312000D01*
X170150500Y-103166000D01*
X170170500Y-103166000D01*
X170170500Y-102086059D01*
X169975093Y-102010991D01*
X169672000Y-102136530D01*
X169672000Y-101801470D01*
X169975093Y-101927009D01*
X170170500Y-101851941D01*
X170170500Y-100772000D01*
X170150500Y-100772000D01*
X170150500Y-100626000D01*
X170170500Y-100626000D01*
X170170500Y-99546059D01*
X169975093Y-99470991D01*
X169672000Y-99596531D01*
X169672000Y-99479535D01*
X169673499Y-99471999D01*
X169672000Y-99464463D01*
X169672000Y-99261469D01*
X169975093Y-99387009D01*
X170170500Y-99311941D01*
X170170500Y-98232000D01*
X170150500Y-98232000D01*
X170150500Y-98086000D01*
X170170500Y-98086000D01*
X170170500Y-97006059D01*
X169975093Y-96930991D01*
X169672000Y-97056531D01*
X169672000Y-96721469D01*
X169975093Y-96847009D01*
X170170500Y-96771941D01*
X170170500Y-95692000D01*
X170150500Y-95692000D01*
X170150500Y-95546000D01*
X170170500Y-95546000D01*
X170170500Y-94466059D01*
X169975093Y-94390991D01*
X169672000Y-94516531D01*
X169672000Y-94285500D01*
X169661994Y-94236090D01*
X169634803Y-94195697D01*
X169584215Y-94145109D01*
X169975093Y-94307009D01*
X170170500Y-94231941D01*
X170170500Y-93152000D01*
X169090365Y-93152000D01*
X169015484Y-93347409D01*
X169192820Y-93753714D01*
X169126803Y-93687697D01*
X169084789Y-93659834D01*
X169037000Y-93650500D01*
X168820823Y-93650500D01*
X168864817Y-93584659D01*
X168960500Y-93103626D01*
X168960500Y-93054374D01*
X168864817Y-92573341D01*
X168592333Y-92165541D01*
X168451178Y-92071224D01*
X168477892Y-92044510D01*
X168525728Y-92044510D01*
X168679579Y-92013907D01*
X168710182Y-92007820D01*
X168866553Y-91903335D01*
X168995199Y-91774690D01*
X169001511Y-91806423D01*
X169143931Y-92019569D01*
X169203728Y-92059524D01*
X169214642Y-92075858D01*
X169387746Y-92191524D01*
X169211677Y-92361081D01*
X169015484Y-92810591D01*
X169090365Y-93006000D01*
X170170500Y-93006000D01*
X170170500Y-91926059D01*
X170142689Y-91915375D01*
X170215489Y-91806423D01*
X170265500Y-91555000D01*
X170265500Y-90666687D01*
X170446459Y-90395863D01*
X170515500Y-90048769D01*
X170515500Y-90013231D01*
X170446459Y-89666137D01*
X170249846Y-89371885D01*
X169955594Y-89175272D01*
X169717941Y-89128000D01*
X171196500Y-89128000D01*
X171196500Y-92285173D01*
X170922044Y-92020868D01*
X170511907Y-91850991D01*
X170316500Y-91926059D01*
X170316500Y-93006000D01*
X170336500Y-93006000D01*
X170336500Y-93152000D01*
X170316500Y-93152000D01*
X170316500Y-94231941D01*
X170511907Y-94307009D01*
X170922044Y-94137132D01*
X171196500Y-93872827D01*
X171196500Y-94825173D01*
X170922044Y-94560868D01*
X170511907Y-94390991D01*
X170316500Y-94466059D01*
X170316500Y-95546000D01*
X170336500Y-95546000D01*
X170336500Y-95692000D01*
X170316500Y-95692000D01*
X170316500Y-96771941D01*
X170511907Y-96847009D01*
X170922044Y-96677132D01*
X171196500Y-96412827D01*
X171196500Y-97365173D01*
X170922044Y-97100868D01*
X170511907Y-96930991D01*
X170316500Y-97006059D01*
X170316500Y-98086000D01*
X170336500Y-98086000D01*
X170336500Y-98232000D01*
X170316500Y-98232000D01*
X170316500Y-99311941D01*
X170511907Y-99387009D01*
X170922044Y-99217132D01*
X171196500Y-98952827D01*
X171196500Y-99905173D01*
X170922044Y-99640868D01*
X170511907Y-99470991D01*
X170316500Y-99546059D01*
X170316500Y-100626000D01*
X170336500Y-100626000D01*
X170336500Y-100772000D01*
X170316500Y-100772000D01*
X170316500Y-101851941D01*
X170511907Y-101927009D01*
X170922044Y-101757132D01*
X171196500Y-101492827D01*
X171196500Y-102445173D01*
X170922044Y-102180868D01*
X170511907Y-102010991D01*
X170316500Y-102086059D01*
X170316500Y-103166000D01*
X170336500Y-103166000D01*
X170336500Y-103312000D01*
X170316500Y-103312000D01*
X170316500Y-104391941D01*
X170511907Y-104467009D01*
X170922044Y-104297132D01*
X171196500Y-104032827D01*
X171196500Y-115814000D01*
X137510500Y-115814000D01*
X137510500Y-115097750D01*
X140388500Y-115097750D01*
X140388500Y-115453958D01*
X140450462Y-115603547D01*
X140564953Y-115718038D01*
X140714543Y-115780000D01*
X140870750Y-115780000D01*
X140972500Y-115678250D01*
X140972500Y-114996000D01*
X141118500Y-114996000D01*
X141118500Y-115678250D01*
X141220250Y-115780000D01*
X141376457Y-115780000D01*
X141526047Y-115718038D01*
X141640538Y-115603547D01*
X141702500Y-115453958D01*
X141702500Y-115097750D01*
X141600750Y-114996000D01*
X141118500Y-114996000D01*
X140972500Y-114996000D01*
X140490250Y-114996000D01*
X140388500Y-115097750D01*
X137510500Y-115097750D01*
X137510500Y-114392042D01*
X140388500Y-114392042D01*
X140388500Y-114748250D01*
X140490250Y-114850000D01*
X140972500Y-114850000D01*
X140972500Y-114167750D01*
X141118500Y-114167750D01*
X141118500Y-114850000D01*
X141600750Y-114850000D01*
X141702500Y-114748250D01*
X141702500Y-114392042D01*
X141640538Y-114242453D01*
X141526047Y-114127962D01*
X141376457Y-114066000D01*
X141220250Y-114066000D01*
X141118500Y-114167750D01*
X140972500Y-114167750D01*
X140870750Y-114066000D01*
X140714543Y-114066000D01*
X140564953Y-114127962D01*
X140450462Y-114242453D01*
X140388500Y-114392042D01*
X137510500Y-114392042D01*
X137510500Y-113319750D01*
X140238500Y-113319750D01*
X140238500Y-113600958D01*
X140300462Y-113750547D01*
X140414953Y-113865038D01*
X140564543Y-113927000D01*
X140870750Y-113927000D01*
X140972500Y-113825250D01*
X140972500Y-113218000D01*
X140340250Y-113218000D01*
X140238500Y-113319750D01*
X137510500Y-113319750D01*
X137510500Y-110960585D01*
X137620953Y-111071038D01*
X137770543Y-111133000D01*
X138076750Y-111133000D01*
X138178500Y-111031250D01*
X138178500Y-110424000D01*
X138158500Y-110424000D01*
X138158500Y-110278000D01*
X138178500Y-110278000D01*
X138178500Y-109670750D01*
X138076750Y-109569000D01*
X137770543Y-109569000D01*
X137620953Y-109630962D01*
X137510500Y-109741415D01*
X137510500Y-107150585D01*
X137620953Y-107261038D01*
X137770543Y-107323000D01*
X138076750Y-107323000D01*
X138178500Y-107221250D01*
X138178500Y-106614000D01*
X138158500Y-106614000D01*
X138158500Y-106468000D01*
X138178500Y-106468000D01*
X138178500Y-105860750D01*
X138076750Y-105759000D01*
X137770543Y-105759000D01*
X137620953Y-105820962D01*
X137510500Y-105931415D01*
X137510500Y-95345750D01*
X138146500Y-95345750D01*
X138146500Y-96251957D01*
X138208462Y-96401547D01*
X138322953Y-96516038D01*
X138472542Y-96578000D01*
X139178750Y-96578000D01*
X139280500Y-96476250D01*
X139280500Y-95244000D01*
X138248250Y-95244000D01*
X138146500Y-95345750D01*
X137510500Y-95345750D01*
X137510500Y-94090043D01*
X138146500Y-94090043D01*
X138146500Y-94996250D01*
X138248250Y-95098000D01*
X139280500Y-95098000D01*
X139280500Y-93865750D01*
X139178750Y-93764000D01*
X138472542Y-93764000D01*
X138322953Y-93825962D01*
X138208462Y-93940453D01*
X138146500Y-94090043D01*
X137510500Y-94090043D01*
X137510500Y-89128000D01*
X138138527Y-89128000D01*
X138138527Y-90771000D01*
X138138527Y-90771000D01*
G37*
X138138527Y-90771000D02*
X138166907Y-90921825D01*
X138256044Y-91060349D01*
X138392052Y-91153279D01*
X138553500Y-91185973D01*
X138819369Y-91185973D01*
X138835209Y-91265605D01*
X138838899Y-91284155D01*
X138959642Y-91464858D01*
X140006600Y-92511817D01*
X140006600Y-93764000D01*
X139528250Y-93764000D01*
X139426500Y-93865750D01*
X139426500Y-95098000D01*
X139446500Y-95098000D01*
X139446500Y-95244000D01*
X139426500Y-95244000D01*
X139426500Y-96475451D01*
X139410605Y-96513730D01*
X139410395Y-96755210D01*
X139502610Y-96978389D01*
X139673213Y-97149290D01*
X139896230Y-97241895D01*
X140137710Y-97242105D01*
X140258974Y-97192000D01*
X140291401Y-97192000D01*
X137857642Y-99625760D01*
X137736899Y-99806463D01*
X137694500Y-100019618D01*
X137694500Y-101755377D01*
X137619221Y-101865552D01*
X137586527Y-102027000D01*
X137586527Y-102927000D01*
X137614907Y-103077825D01*
X137704044Y-103216349D01*
X137840052Y-103309279D01*
X138001500Y-103341973D01*
X138501500Y-103341973D01*
X138517499Y-103338963D01*
X138517499Y-105759000D01*
X138426250Y-105759000D01*
X138324500Y-105860750D01*
X138324500Y-106468000D01*
X138344500Y-106468000D01*
X138344500Y-106614000D01*
X138324500Y-106614000D01*
X138324500Y-107221250D01*
X138426250Y-107323000D01*
X138517499Y-107323000D01*
X138517499Y-109569000D01*
X138426250Y-109569000D01*
X138324500Y-109670750D01*
X138324500Y-110278000D01*
X138344500Y-110278000D01*
X138344500Y-110424000D01*
X138324500Y-110424000D01*
X138324500Y-111031250D01*
X138426250Y-111133000D01*
X138554377Y-111133000D01*
X138559898Y-111160756D01*
X138680641Y-111341459D01*
X140203039Y-112863858D01*
X140238500Y-112887552D01*
X140238500Y-112970250D01*
X140340250Y-113072000D01*
X140972500Y-113072000D01*
X140972500Y-113052000D01*
X141118500Y-113052000D01*
X141118500Y-113072000D01*
X141138500Y-113072000D01*
X141138500Y-113218000D01*
X141118500Y-113218000D01*
X141118500Y-113825250D01*
X141220250Y-113927000D01*
X141526457Y-113927000D01*
X141676047Y-113865038D01*
X141790538Y-113750547D01*
X141798241Y-113731952D01*
X141848044Y-113809349D01*
X141984052Y-113902279D01*
X141988500Y-113903180D01*
X141988500Y-114201377D01*
X141913221Y-114311552D01*
X141880527Y-114473000D01*
X141880527Y-115373000D01*
X141908907Y-115523825D01*
X141998044Y-115662349D01*
X142134052Y-115755279D01*
X142295500Y-115787973D01*
X142795500Y-115787973D01*
X142946325Y-115759593D01*
X143084849Y-115670456D01*
X143177779Y-115534448D01*
X143188805Y-115480000D01*
X143702661Y-115480000D01*
X143710907Y-115523825D01*
X143800044Y-115662349D01*
X143936052Y-115755279D01*
X144097500Y-115787973D01*
X144597500Y-115787973D01*
X144748325Y-115759593D01*
X144886849Y-115670456D01*
X144979779Y-115534448D01*
X145012473Y-115373000D01*
X145012473Y-114473000D01*
X145182527Y-114473000D01*
X145182527Y-115373000D01*
X145210907Y-115523825D01*
X145300044Y-115662349D01*
X145436052Y-115755279D01*
X145597500Y-115787973D01*
X146097500Y-115787973D01*
X146248325Y-115759593D01*
X146386849Y-115670456D01*
X146479779Y-115534448D01*
X146490805Y-115480000D01*
X146750661Y-115480000D01*
X146758907Y-115523825D01*
X146848044Y-115662349D01*
X146984052Y-115755279D01*
X147145500Y-115787973D01*
X147645500Y-115787973D01*
X147796325Y-115759593D01*
X147934849Y-115670456D01*
X148027779Y-115534448D01*
X148060473Y-115373000D01*
X148060473Y-114473000D01*
X148230527Y-114473000D01*
X148230527Y-115373000D01*
X148258907Y-115523825D01*
X148348044Y-115662349D01*
X148484052Y-115755279D01*
X148645500Y-115787973D01*
X149145500Y-115787973D01*
X149296325Y-115759593D01*
X149434849Y-115670456D01*
X149527779Y-115534448D01*
X149538805Y-115480000D01*
X150431500Y-115480000D01*
X150644655Y-115437601D01*
X150825358Y-115316858D01*
X150843243Y-115298973D01*
X152170500Y-115298973D01*
X152321325Y-115270593D01*
X152459849Y-115181456D01*
X152552779Y-115045448D01*
X152585473Y-114884000D01*
X152585473Y-114009374D01*
X152603500Y-114009374D01*
X152603500Y-114058626D01*
X152699183Y-114539659D01*
X152971667Y-114947459D01*
X153379467Y-115219943D01*
X153860500Y-115315626D01*
X154341533Y-115219943D01*
X154749333Y-114947459D01*
X155021817Y-114539659D01*
X155048204Y-114407000D01*
X157186527Y-114407000D01*
X157186527Y-114907000D01*
X157214907Y-115057825D01*
X157304044Y-115196349D01*
X157440052Y-115289279D01*
X157601500Y-115321973D01*
X158501500Y-115321973D01*
X158652325Y-115293593D01*
X158776017Y-115214000D01*
X163461000Y-115214000D01*
X163674155Y-115171601D01*
X163854858Y-115050858D01*
X163960360Y-114945357D01*
X163960362Y-114945354D01*
X163989641Y-114916075D01*
X164109889Y-114866390D01*
X164280790Y-114695787D01*
X164373395Y-114472770D01*
X164373605Y-114231290D01*
X164281390Y-114008111D01*
X164110787Y-113837210D01*
X163887770Y-113744605D01*
X163646290Y-113744395D01*
X163423111Y-113836610D01*
X163252210Y-114007213D01*
X163213681Y-114100000D01*
X158773123Y-114100000D01*
X158662948Y-114024721D01*
X158501500Y-113992027D01*
X157601500Y-113992027D01*
X157450675Y-114020407D01*
X157312151Y-114109544D01*
X157219221Y-114245552D01*
X157186527Y-114407000D01*
X155048204Y-114407000D01*
X155117500Y-114058626D01*
X155117500Y-114009374D01*
X155021817Y-113528341D01*
X154749333Y-113120541D01*
X154429748Y-112907000D01*
X157186527Y-112907000D01*
X157186527Y-113407000D01*
X157214907Y-113557825D01*
X157304044Y-113696349D01*
X157440052Y-113789279D01*
X157601500Y-113821973D01*
X158501500Y-113821973D01*
X158652325Y-113793593D01*
X158776017Y-113714000D01*
X160682938Y-113714000D01*
X160691713Y-113722790D01*
X160914730Y-113815395D01*
X161156210Y-113815605D01*
X161379389Y-113723390D01*
X161550290Y-113552787D01*
X161642895Y-113329770D01*
X161643105Y-113088290D01*
X161550890Y-112865111D01*
X161380287Y-112694210D01*
X161157270Y-112601605D01*
X160991846Y-112601461D01*
X160984500Y-112600000D01*
X158773123Y-112600000D01*
X158662948Y-112524721D01*
X158501500Y-112492027D01*
X157601500Y-112492027D01*
X157450675Y-112520407D01*
X157312151Y-112609544D01*
X157219221Y-112745552D01*
X157186527Y-112907000D01*
X154429748Y-112907000D01*
X154341533Y-112848057D01*
X153860500Y-112752374D01*
X153379467Y-112848057D01*
X152971667Y-113120541D01*
X152699183Y-113528341D01*
X152603500Y-114009374D01*
X152585473Y-114009374D01*
X152585473Y-113184000D01*
X152557093Y-113033175D01*
X152467956Y-112894651D01*
X152331948Y-112801721D01*
X152170500Y-112769027D01*
X150470500Y-112769027D01*
X150319675Y-112797407D01*
X150181151Y-112886544D01*
X150088221Y-113022552D01*
X150055527Y-113184000D01*
X150055527Y-114366000D01*
X149540339Y-114366000D01*
X149532093Y-114322175D01*
X149442956Y-114183651D01*
X149306948Y-114090721D01*
X149145500Y-114058027D01*
X148645500Y-114058027D01*
X148494675Y-114086407D01*
X148356151Y-114175544D01*
X148263221Y-114311552D01*
X148230527Y-114473000D01*
X148060473Y-114473000D01*
X148032093Y-114322175D01*
X147942956Y-114183651D01*
X147806948Y-114090721D01*
X147645500Y-114058027D01*
X147145500Y-114058027D01*
X146994675Y-114086407D01*
X146856151Y-114175544D01*
X146763221Y-114311552D01*
X146752195Y-114366000D01*
X146492339Y-114366000D01*
X146484093Y-114322175D01*
X146394956Y-114183651D01*
X146258948Y-114090721D01*
X146097500Y-114058027D01*
X145597500Y-114058027D01*
X145446675Y-114086407D01*
X145308151Y-114175544D01*
X145215221Y-114311552D01*
X145182527Y-114473000D01*
X145012473Y-114473000D01*
X144984093Y-114322175D01*
X144894956Y-114183651D01*
X144758948Y-114090721D01*
X144597500Y-114058027D01*
X144097500Y-114058027D01*
X143946675Y-114086407D01*
X143808151Y-114175544D01*
X143715221Y-114311552D01*
X143704195Y-114366000D01*
X143190339Y-114366000D01*
X143182093Y-114322175D01*
X143102500Y-114198483D01*
X143102500Y-113902620D01*
X143234849Y-113817456D01*
X143327779Y-113681448D01*
X143360473Y-113520000D01*
X143360473Y-112770000D01*
X143332093Y-112619175D01*
X143242956Y-112480651D01*
X143106948Y-112387721D01*
X142945500Y-112355027D01*
X142518243Y-112355027D01*
X142239358Y-112076142D01*
X142058655Y-111955399D01*
X141845500Y-111913000D01*
X140827615Y-111913000D01*
X140148061Y-111233447D01*
X140271500Y-111258000D01*
X140618594Y-111188959D01*
X140664927Y-111158000D01*
X140979444Y-111158000D01*
X141139809Y-111265153D01*
X141506037Y-111338000D01*
X142970963Y-111338000D01*
X143337191Y-111265153D01*
X143647664Y-111057701D01*
X143855116Y-110747228D01*
X143883929Y-110602373D01*
X156007456Y-110602373D01*
X156026411Y-110679785D01*
X156210180Y-111006083D01*
X156504829Y-111237217D01*
X156865500Y-111338000D01*
X157565500Y-111338000D01*
X157565500Y-110454000D01*
X156086371Y-110454000D01*
X156007456Y-110602373D01*
X143883929Y-110602373D01*
X143927963Y-110381000D01*
X143883930Y-110159627D01*
X156007456Y-110159627D01*
X156086371Y-110308000D01*
X157565500Y-110308000D01*
X157565500Y-109424000D01*
X157711500Y-109424000D01*
X157711500Y-110308000D01*
X157731500Y-110308000D01*
X157731500Y-110454000D01*
X157711500Y-110454000D01*
X157711500Y-111338000D01*
X158411500Y-111338000D01*
X158772171Y-111237217D01*
X159066820Y-111006083D01*
X159248527Y-110683446D01*
X159248527Y-112151000D01*
X159276907Y-112301825D01*
X159366044Y-112440349D01*
X159502052Y-112533279D01*
X159663500Y-112565973D01*
X162363500Y-112565973D01*
X162514325Y-112537593D01*
X162652849Y-112448456D01*
X162745779Y-112312448D01*
X162778473Y-112151000D01*
X162778473Y-110940500D01*
X163322000Y-110940500D01*
X163669094Y-110871459D01*
X163963346Y-110674846D01*
X164159959Y-110380594D01*
X164229000Y-110033500D01*
X164159959Y-109686406D01*
X163963346Y-109392154D01*
X163669094Y-109195541D01*
X163322000Y-109126500D01*
X162778473Y-109126500D01*
X162778473Y-108551000D01*
X162750093Y-108400175D01*
X162660956Y-108261651D01*
X162524948Y-108168721D01*
X162363500Y-108136027D01*
X159663500Y-108136027D01*
X159512675Y-108164407D01*
X159374151Y-108253544D01*
X159281221Y-108389552D01*
X159248527Y-108551000D01*
X159248527Y-110078554D01*
X159066820Y-109755917D01*
X158772171Y-109524783D01*
X158411500Y-109424000D01*
X157711500Y-109424000D01*
X157565500Y-109424000D01*
X156865500Y-109424000D01*
X156504829Y-109524783D01*
X156210180Y-109755917D01*
X156026411Y-110082215D01*
X156007456Y-110159627D01*
X143883930Y-110159627D01*
X143855116Y-110014772D01*
X143647664Y-109704299D01*
X143337191Y-109496847D01*
X142970963Y-109424000D01*
X141506037Y-109424000D01*
X141139809Y-109496847D01*
X141069240Y-109544000D01*
X140988000Y-109544000D01*
X140988000Y-109163717D01*
X141139809Y-109265153D01*
X141506037Y-109338000D01*
X142970963Y-109338000D01*
X143337191Y-109265153D01*
X143647664Y-109057701D01*
X143727646Y-108938000D01*
X149890342Y-108938000D01*
X150103497Y-108895601D01*
X150284200Y-108774858D01*
X152158859Y-106900200D01*
X152256443Y-106754155D01*
X152279601Y-106719497D01*
X152322000Y-106506342D01*
X152322000Y-106470710D01*
X153951895Y-106470710D01*
X154044110Y-106693889D01*
X154214713Y-106864790D01*
X154335892Y-106915108D01*
X155860770Y-108439987D01*
X155921884Y-108747228D01*
X156129336Y-109057701D01*
X156439809Y-109265153D01*
X156806037Y-109338000D01*
X158270963Y-109338000D01*
X158637191Y-109265153D01*
X158947664Y-109057701D01*
X159155116Y-108747228D01*
X159227963Y-108381000D01*
X159155116Y-108014772D01*
X158947664Y-107704299D01*
X158637191Y-107496847D01*
X158270963Y-107424000D01*
X156806037Y-107424000D01*
X156484228Y-107488011D01*
X155123575Y-106127359D01*
X155073890Y-106007111D01*
X154903287Y-105836210D01*
X154680270Y-105743605D01*
X154438790Y-105743395D01*
X154215611Y-105835610D01*
X154044710Y-106006213D01*
X153952105Y-106229230D01*
X153951895Y-106470710D01*
X152322000Y-106470710D01*
X152322000Y-106464930D01*
X152371895Y-106344770D01*
X152372105Y-106103290D01*
X152279890Y-105880111D01*
X152110574Y-105710499D01*
X155480283Y-105710499D01*
X155982509Y-106212725D01*
X155949037Y-106381000D01*
X156021884Y-106747228D01*
X156229336Y-107057701D01*
X156539809Y-107265153D01*
X156906037Y-107338000D01*
X158370963Y-107338000D01*
X158737191Y-107265153D01*
X159047664Y-107057701D01*
X159255116Y-106747228D01*
X159327963Y-106381000D01*
X159255116Y-106014772D01*
X159047664Y-105704299D01*
X158737191Y-105496847D01*
X158370963Y-105424000D01*
X156906037Y-105424000D01*
X156791916Y-105446700D01*
X156627890Y-105282673D01*
X156906037Y-105338000D01*
X158370963Y-105338000D01*
X158737191Y-105265153D01*
X159047664Y-105057701D01*
X159255116Y-104747228D01*
X159327963Y-104381000D01*
X159324466Y-104363419D01*
X159506517Y-104557607D01*
X159516907Y-104612825D01*
X159606044Y-104751349D01*
X159742052Y-104844279D01*
X159783057Y-104852583D01*
X162340349Y-107580361D01*
X162381442Y-107609564D01*
X162433000Y-107620500D01*
X167206394Y-107620500D01*
X167368000Y-107782106D01*
X167368000Y-107938000D01*
X167386000Y-108028492D01*
X167386000Y-111233438D01*
X167233111Y-111296610D01*
X167062210Y-111467213D01*
X166969605Y-111690230D01*
X166969395Y-111931710D01*
X167061610Y-112154889D01*
X167232213Y-112325790D01*
X167419752Y-112403663D01*
X167424447Y-112410535D01*
X167466841Y-112437815D01*
X167513000Y-112446500D01*
X167675046Y-112446500D01*
X167802052Y-112533279D01*
X167963500Y-112565973D01*
X168129811Y-112565973D01*
X167309642Y-113386142D01*
X167188899Y-113566845D01*
X167146500Y-113780000D01*
X167146500Y-114427570D01*
X167096605Y-114547730D01*
X167096395Y-114789210D01*
X167188610Y-115012389D01*
X167359213Y-115183290D01*
X167582230Y-115275895D01*
X167823710Y-115276105D01*
X168046889Y-115183890D01*
X168217790Y-115013287D01*
X168310395Y-114790270D01*
X168310605Y-114548790D01*
X168260500Y-114427526D01*
X168260500Y-114010716D01*
X168942641Y-113328575D01*
X169062889Y-113278890D01*
X169233790Y-113108287D01*
X169326395Y-112885270D01*
X169326605Y-112643790D01*
X169294452Y-112565973D01*
X170663500Y-112565973D01*
X170814325Y-112537593D01*
X170952849Y-112448456D01*
X171045779Y-112312448D01*
X171078473Y-112151000D01*
X171078473Y-108551000D01*
X171050093Y-108400175D01*
X170960956Y-108261651D01*
X170942000Y-108248699D01*
X170942000Y-104699500D01*
X170931994Y-104650090D01*
X170903553Y-104608465D01*
X170861159Y-104581185D01*
X170815000Y-104572500D01*
X170105606Y-104572500D01*
X169993170Y-104460064D01*
X170170500Y-104391941D01*
X170170500Y-103312000D01*
X170150500Y-103312000D01*
X170150500Y-103166000D01*
X170170500Y-103166000D01*
X170170500Y-102086059D01*
X169975093Y-102010991D01*
X169672000Y-102136530D01*
X169672000Y-101801470D01*
X169975093Y-101927009D01*
X170170500Y-101851941D01*
X170170500Y-100772000D01*
X170150500Y-100772000D01*
X170150500Y-100626000D01*
X170170500Y-100626000D01*
X170170500Y-99546059D01*
X169975093Y-99470991D01*
X169672000Y-99596531D01*
X169672000Y-99479535D01*
X169673499Y-99471999D01*
X169672000Y-99464463D01*
X169672000Y-99261469D01*
X169975093Y-99387009D01*
X170170500Y-99311941D01*
X170170500Y-98232000D01*
X170150500Y-98232000D01*
X170150500Y-98086000D01*
X170170500Y-98086000D01*
X170170500Y-97006059D01*
X169975093Y-96930991D01*
X169672000Y-97056531D01*
X169672000Y-96721469D01*
X169975093Y-96847009D01*
X170170500Y-96771941D01*
X170170500Y-95692000D01*
X170150500Y-95692000D01*
X170150500Y-95546000D01*
X170170500Y-95546000D01*
X170170500Y-94466059D01*
X169975093Y-94390991D01*
X169672000Y-94516531D01*
X169672000Y-94285500D01*
X169661994Y-94236090D01*
X169634803Y-94195697D01*
X169584215Y-94145109D01*
X169975093Y-94307009D01*
X170170500Y-94231941D01*
X170170500Y-93152000D01*
X169090365Y-93152000D01*
X169015484Y-93347409D01*
X169192820Y-93753714D01*
X169126803Y-93687697D01*
X169084789Y-93659834D01*
X169037000Y-93650500D01*
X168820823Y-93650500D01*
X168864817Y-93584659D01*
X168960500Y-93103626D01*
X168960500Y-93054374D01*
X168864817Y-92573341D01*
X168592333Y-92165541D01*
X168451178Y-92071224D01*
X168477892Y-92044510D01*
X168525728Y-92044510D01*
X168679579Y-92013907D01*
X168710182Y-92007820D01*
X168866553Y-91903335D01*
X168995199Y-91774690D01*
X169001511Y-91806423D01*
X169143931Y-92019569D01*
X169203728Y-92059524D01*
X169214642Y-92075858D01*
X169387746Y-92191524D01*
X169211677Y-92361081D01*
X169015484Y-92810591D01*
X169090365Y-93006000D01*
X170170500Y-93006000D01*
X170170500Y-91926059D01*
X170142689Y-91915375D01*
X170215489Y-91806423D01*
X170265500Y-91555000D01*
X170265500Y-90666687D01*
X170446459Y-90395863D01*
X170515500Y-90048769D01*
X170515500Y-90013231D01*
X170446459Y-89666137D01*
X170249846Y-89371885D01*
X169955594Y-89175272D01*
X169717941Y-89128000D01*
X171196500Y-89128000D01*
X171196500Y-92285173D01*
X170922044Y-92020868D01*
X170511907Y-91850991D01*
X170316500Y-91926059D01*
X170316500Y-93006000D01*
X170336500Y-93006000D01*
X170336500Y-93152000D01*
X170316500Y-93152000D01*
X170316500Y-94231941D01*
X170511907Y-94307009D01*
X170922044Y-94137132D01*
X171196500Y-93872827D01*
X171196500Y-94825173D01*
X170922044Y-94560868D01*
X170511907Y-94390991D01*
X170316500Y-94466059D01*
X170316500Y-95546000D01*
X170336500Y-95546000D01*
X170336500Y-95692000D01*
X170316500Y-95692000D01*
X170316500Y-96771941D01*
X170511907Y-96847009D01*
X170922044Y-96677132D01*
X171196500Y-96412827D01*
X171196500Y-97365173D01*
X170922044Y-97100868D01*
X170511907Y-96930991D01*
X170316500Y-97006059D01*
X170316500Y-98086000D01*
X170336500Y-98086000D01*
X170336500Y-98232000D01*
X170316500Y-98232000D01*
X170316500Y-99311941D01*
X170511907Y-99387009D01*
X170922044Y-99217132D01*
X171196500Y-98952827D01*
X171196500Y-99905173D01*
X170922044Y-99640868D01*
X170511907Y-99470991D01*
X170316500Y-99546059D01*
X170316500Y-100626000D01*
X170336500Y-100626000D01*
X170336500Y-100772000D01*
X170316500Y-100772000D01*
X170316500Y-101851941D01*
X170511907Y-101927009D01*
X170922044Y-101757132D01*
X171196500Y-101492827D01*
X171196500Y-102445173D01*
X170922044Y-102180868D01*
X170511907Y-102010991D01*
X170316500Y-102086059D01*
X170316500Y-103166000D01*
X170336500Y-103166000D01*
X170336500Y-103312000D01*
X170316500Y-103312000D01*
X170316500Y-104391941D01*
X170511907Y-104467009D01*
X170922044Y-104297132D01*
X171196500Y-104032827D01*
X171196500Y-115814000D01*
X137510500Y-115814000D01*
X137510500Y-115097750D01*
X140388500Y-115097750D01*
X140388500Y-115453958D01*
X140450462Y-115603547D01*
X140564953Y-115718038D01*
X140714543Y-115780000D01*
X140870750Y-115780000D01*
X140972500Y-115678250D01*
X140972500Y-114996000D01*
X141118500Y-114996000D01*
X141118500Y-115678250D01*
X141220250Y-115780000D01*
X141376457Y-115780000D01*
X141526047Y-115718038D01*
X141640538Y-115603547D01*
X141702500Y-115453958D01*
X141702500Y-115097750D01*
X141600750Y-114996000D01*
X141118500Y-114996000D01*
X140972500Y-114996000D01*
X140490250Y-114996000D01*
X140388500Y-115097750D01*
X137510500Y-115097750D01*
X137510500Y-114392042D01*
X140388500Y-114392042D01*
X140388500Y-114748250D01*
X140490250Y-114850000D01*
X140972500Y-114850000D01*
X140972500Y-114167750D01*
X141118500Y-114167750D01*
X141118500Y-114850000D01*
X141600750Y-114850000D01*
X141702500Y-114748250D01*
X141702500Y-114392042D01*
X141640538Y-114242453D01*
X141526047Y-114127962D01*
X141376457Y-114066000D01*
X141220250Y-114066000D01*
X141118500Y-114167750D01*
X140972500Y-114167750D01*
X140870750Y-114066000D01*
X140714543Y-114066000D01*
X140564953Y-114127962D01*
X140450462Y-114242453D01*
X140388500Y-114392042D01*
X137510500Y-114392042D01*
X137510500Y-113319750D01*
X140238500Y-113319750D01*
X140238500Y-113600958D01*
X140300462Y-113750547D01*
X140414953Y-113865038D01*
X140564543Y-113927000D01*
X140870750Y-113927000D01*
X140972500Y-113825250D01*
X140972500Y-113218000D01*
X140340250Y-113218000D01*
X140238500Y-113319750D01*
X137510500Y-113319750D01*
X137510500Y-110960585D01*
X137620953Y-111071038D01*
X137770543Y-111133000D01*
X138076750Y-111133000D01*
X138178500Y-111031250D01*
X138178500Y-110424000D01*
X138158500Y-110424000D01*
X138158500Y-110278000D01*
X138178500Y-110278000D01*
X138178500Y-109670750D01*
X138076750Y-109569000D01*
X137770543Y-109569000D01*
X137620953Y-109630962D01*
X137510500Y-109741415D01*
X137510500Y-107150585D01*
X137620953Y-107261038D01*
X137770543Y-107323000D01*
X138076750Y-107323000D01*
X138178500Y-107221250D01*
X138178500Y-106614000D01*
X138158500Y-106614000D01*
X138158500Y-106468000D01*
X138178500Y-106468000D01*
X138178500Y-105860750D01*
X138076750Y-105759000D01*
X137770543Y-105759000D01*
X137620953Y-105820962D01*
X137510500Y-105931415D01*
X137510500Y-95345750D01*
X138146500Y-95345750D01*
X138146500Y-96251957D01*
X138208462Y-96401547D01*
X138322953Y-96516038D01*
X138472542Y-96578000D01*
X139178750Y-96578000D01*
X139280500Y-96476250D01*
X139280500Y-95244000D01*
X138248250Y-95244000D01*
X138146500Y-95345750D01*
X137510500Y-95345750D01*
X137510500Y-94090043D01*
X138146500Y-94090043D01*
X138146500Y-94996250D01*
X138248250Y-95098000D01*
X139280500Y-95098000D01*
X139280500Y-93865750D01*
X139178750Y-93764000D01*
X138472542Y-93764000D01*
X138322953Y-93825962D01*
X138208462Y-93940453D01*
X138146500Y-94090043D01*
X137510500Y-94090043D01*
X137510500Y-89128000D01*
X138138527Y-89128000D01*
X138138527Y-90771000D01*
G36*
X144387141Y-106617358D02*
X144540001Y-106719496D01*
X144567845Y-106738101D01*
X144781000Y-106780500D01*
X150703125Y-106780500D01*
X149659626Y-107824000D01*
X143727646Y-107824000D01*
X143647664Y-107704299D01*
X143337191Y-107496847D01*
X142970963Y-107424000D01*
X141506037Y-107424000D01*
X141139809Y-107496847D01*
X140829336Y-107704299D01*
X140621884Y-108014772D01*
X140614816Y-108050305D01*
X140428094Y-107925541D01*
X140081000Y-107856500D01*
X139733906Y-107925541D01*
X139631499Y-107993967D01*
X139631499Y-107330973D01*
X140151500Y-107330973D01*
X140302325Y-107302593D01*
X140440849Y-107213456D01*
X140519736Y-107098000D01*
X140889648Y-107098000D01*
X141139809Y-107265153D01*
X141506037Y-107338000D01*
X142970963Y-107338000D01*
X143337191Y-107265153D01*
X143647664Y-107057701D01*
X143855116Y-106747228D01*
X143927963Y-106381000D01*
X143872636Y-106102853D01*
X144387141Y-106617358D01*
X144387141Y-106617358D01*
G37*
X144387141Y-106617358D02*
X144540001Y-106719496D01*
X144567845Y-106738101D01*
X144781000Y-106780500D01*
X150703125Y-106780500D01*
X149659626Y-107824000D01*
X143727646Y-107824000D01*
X143647664Y-107704299D01*
X143337191Y-107496847D01*
X142970963Y-107424000D01*
X141506037Y-107424000D01*
X141139809Y-107496847D01*
X140829336Y-107704299D01*
X140621884Y-108014772D01*
X140614816Y-108050305D01*
X140428094Y-107925541D01*
X140081000Y-107856500D01*
X139733906Y-107925541D01*
X139631499Y-107993967D01*
X139631499Y-107330973D01*
X140151500Y-107330973D01*
X140302325Y-107302593D01*
X140440849Y-107213456D01*
X140519736Y-107098000D01*
X140889648Y-107098000D01*
X141139809Y-107265153D01*
X141506037Y-107338000D01*
X142970963Y-107338000D01*
X143337191Y-107265153D01*
X143647664Y-107057701D01*
X143855116Y-106747228D01*
X143927963Y-106381000D01*
X143872636Y-106102853D01*
X144387141Y-106617358D01*
G36*
X141732000Y-93777500D02*
X141742006Y-93826910D01*
X141770447Y-93868535D01*
X141812841Y-93895815D01*
X141859000Y-93904500D01*
X157683800Y-93904500D01*
X157683800Y-94900907D01*
X157570287Y-94787196D01*
X157347270Y-94694591D01*
X157105790Y-94694381D01*
X156970499Y-94750282D01*
X156890260Y-94556087D01*
X156719657Y-94385186D01*
X156496640Y-94292581D01*
X156255160Y-94292371D01*
X156031981Y-94384586D01*
X155975768Y-94440701D01*
X155938677Y-94448079D01*
X155908074Y-94454166D01*
X155751703Y-94558650D01*
X154980181Y-95330173D01*
X154875696Y-95486544D01*
X154875696Y-95486545D01*
X154839006Y-95670998D01*
X154839006Y-100512979D01*
X154806716Y-100545213D01*
X154715090Y-100765873D01*
X149755357Y-95806141D01*
X149574654Y-95685398D01*
X149361499Y-95642999D01*
X149218302Y-95642999D01*
X149061287Y-95485710D01*
X148838270Y-95393105D01*
X148596790Y-95392895D01*
X148373611Y-95485110D01*
X148202710Y-95655713D01*
X148110105Y-95878730D01*
X148109895Y-96120210D01*
X148202110Y-96343389D01*
X148372713Y-96514290D01*
X148493891Y-96564607D01*
X148523140Y-96593857D01*
X148626501Y-96662921D01*
X148596790Y-96662895D01*
X148373611Y-96755110D01*
X148202710Y-96925713D01*
X148110105Y-97148730D01*
X148109895Y-97390210D01*
X148202110Y-97613389D01*
X148372713Y-97784290D01*
X148595730Y-97876895D01*
X148837210Y-97877105D01*
X148958474Y-97827000D01*
X149438784Y-97827000D01*
X154103283Y-102491500D01*
X148082000Y-102491500D01*
X147870298Y-102533610D01*
X147868845Y-102533899D01*
X147688141Y-102654642D01*
X147604858Y-102737925D01*
X147484611Y-102787610D01*
X147313710Y-102958213D01*
X147221105Y-103181230D01*
X147220895Y-103422710D01*
X147313110Y-103645889D01*
X147483713Y-103816790D01*
X147706730Y-103909395D01*
X147948210Y-103909605D01*
X148171389Y-103817390D01*
X148342290Y-103646787D01*
X148359434Y-103605500D01*
X155079570Y-103605500D01*
X155097892Y-103613108D01*
X155969709Y-104484926D01*
X156012013Y-104697604D01*
X155924154Y-104638898D01*
X155710999Y-104596499D01*
X148329302Y-104596499D01*
X148172287Y-104439210D01*
X147949270Y-104346605D01*
X147707790Y-104346395D01*
X147484611Y-104438610D01*
X147313710Y-104609213D01*
X147221105Y-104832230D01*
X147220895Y-105073710D01*
X147313110Y-105296889D01*
X147483713Y-105467790D01*
X147604891Y-105518107D01*
X147634140Y-105547357D01*
X147800162Y-105658290D01*
X147812449Y-105666500D01*
X145011717Y-105666500D01*
X143894491Y-104549275D01*
X143927963Y-104381000D01*
X143855116Y-104014772D01*
X143647664Y-103704299D01*
X143337191Y-103496847D01*
X142970963Y-103424000D01*
X141506037Y-103424000D01*
X141139809Y-103496847D01*
X140829336Y-103704299D01*
X140621884Y-104014772D01*
X140549037Y-104381000D01*
X140580088Y-104537102D01*
X140341790Y-104536895D01*
X140118611Y-104629110D01*
X139947710Y-104799713D01*
X139897392Y-104920891D01*
X139631499Y-105186785D01*
X139631499Y-103341973D01*
X140001500Y-103341973D01*
X140152325Y-103313593D01*
X140290849Y-103224456D01*
X140383779Y-103088448D01*
X140394805Y-103034000D01*
X140813499Y-103034000D01*
X140829336Y-103057701D01*
X141139809Y-103265153D01*
X141506037Y-103338000D01*
X142970963Y-103338000D01*
X143337191Y-103265153D01*
X143647664Y-103057701D01*
X143855116Y-102747228D01*
X143927963Y-102381000D01*
X143855116Y-102014772D01*
X143647664Y-101704299D01*
X143337191Y-101496847D01*
X142970963Y-101424000D01*
X141506037Y-101424000D01*
X141139809Y-101496847D01*
X140829336Y-101704299D01*
X140685209Y-101920000D01*
X140396339Y-101920000D01*
X140388093Y-101876175D01*
X140298956Y-101737651D01*
X140162948Y-101644721D01*
X140001500Y-101612027D01*
X139631499Y-101612027D01*
X139631499Y-100501117D01*
X139751616Y-100381000D01*
X140549037Y-100381000D01*
X140621884Y-100747228D01*
X140829336Y-101057701D01*
X141139809Y-101265153D01*
X141506037Y-101338000D01*
X142970963Y-101338000D01*
X143337191Y-101265153D01*
X143647664Y-101057701D01*
X143727646Y-100938000D01*
X144538070Y-100938000D01*
X144658230Y-100987895D01*
X144899710Y-100988105D01*
X145122889Y-100895890D01*
X145293790Y-100725287D01*
X145386395Y-100502270D01*
X145386605Y-100260790D01*
X145294390Y-100037611D01*
X145123787Y-99866710D01*
X144900770Y-99774105D01*
X144659290Y-99773895D01*
X144538026Y-99824000D01*
X143727646Y-99824000D01*
X143647664Y-99704299D01*
X143337191Y-99496847D01*
X142970963Y-99424000D01*
X141506037Y-99424000D01*
X141139809Y-99496847D01*
X140829336Y-99704299D01*
X140621884Y-100014772D01*
X140549037Y-100381000D01*
X139751616Y-100381000D01*
X140976550Y-99156067D01*
X141139809Y-99265153D01*
X141506037Y-99338000D01*
X142970963Y-99338000D01*
X143337191Y-99265153D01*
X143647664Y-99057701D01*
X143855116Y-98747228D01*
X143927963Y-98381000D01*
X143855116Y-98014772D01*
X143647664Y-97704299D01*
X143337191Y-97496847D01*
X142970963Y-97424000D01*
X141634835Y-97424000D01*
X141712862Y-97345973D01*
X143488500Y-97345973D01*
X143639325Y-97317593D01*
X143777849Y-97228456D01*
X143870779Y-97092448D01*
X143902055Y-96938000D01*
X144602070Y-96938000D01*
X144722230Y-96987895D01*
X144963710Y-96988105D01*
X145186889Y-96895890D01*
X145357790Y-96725287D01*
X145450395Y-96502270D01*
X145450605Y-96260790D01*
X145358390Y-96037611D01*
X145187787Y-95866710D01*
X144964770Y-95774105D01*
X144723290Y-95773895D01*
X144602026Y-95824000D01*
X143902156Y-95824000D01*
X143875093Y-95680175D01*
X143785956Y-95541651D01*
X143649948Y-95448721D01*
X143488500Y-95416027D01*
X141120600Y-95416027D01*
X141120600Y-92281100D01*
X141078201Y-92067945D01*
X140994078Y-91942047D01*
X140957459Y-91887242D01*
X140239927Y-91169710D01*
X140304325Y-91157593D01*
X140442849Y-91068456D01*
X140535779Y-90932448D01*
X140568473Y-90771000D01*
X140568473Y-89128000D01*
X141732000Y-89128000D01*
X141732000Y-93777500D01*
X141732000Y-93777500D01*
G37*
X141732000Y-93777500D02*
X141742006Y-93826910D01*
X141770447Y-93868535D01*
X141812841Y-93895815D01*
X141859000Y-93904500D01*
X157683800Y-93904500D01*
X157683800Y-94900907D01*
X157570287Y-94787196D01*
X157347270Y-94694591D01*
X157105790Y-94694381D01*
X156970499Y-94750282D01*
X156890260Y-94556087D01*
X156719657Y-94385186D01*
X156496640Y-94292581D01*
X156255160Y-94292371D01*
X156031981Y-94384586D01*
X155975768Y-94440701D01*
X155938677Y-94448079D01*
X155908074Y-94454166D01*
X155751703Y-94558650D01*
X154980181Y-95330173D01*
X154875696Y-95486544D01*
X154875696Y-95486545D01*
X154839006Y-95670998D01*
X154839006Y-100512979D01*
X154806716Y-100545213D01*
X154715090Y-100765873D01*
X149755357Y-95806141D01*
X149574654Y-95685398D01*
X149361499Y-95642999D01*
X149218302Y-95642999D01*
X149061287Y-95485710D01*
X148838270Y-95393105D01*
X148596790Y-95392895D01*
X148373611Y-95485110D01*
X148202710Y-95655713D01*
X148110105Y-95878730D01*
X148109895Y-96120210D01*
X148202110Y-96343389D01*
X148372713Y-96514290D01*
X148493891Y-96564607D01*
X148523140Y-96593857D01*
X148626501Y-96662921D01*
X148596790Y-96662895D01*
X148373611Y-96755110D01*
X148202710Y-96925713D01*
X148110105Y-97148730D01*
X148109895Y-97390210D01*
X148202110Y-97613389D01*
X148372713Y-97784290D01*
X148595730Y-97876895D01*
X148837210Y-97877105D01*
X148958474Y-97827000D01*
X149438784Y-97827000D01*
X154103283Y-102491500D01*
X148082000Y-102491500D01*
X147870298Y-102533610D01*
X147868845Y-102533899D01*
X147688141Y-102654642D01*
X147604858Y-102737925D01*
X147484611Y-102787610D01*
X147313710Y-102958213D01*
X147221105Y-103181230D01*
X147220895Y-103422710D01*
X147313110Y-103645889D01*
X147483713Y-103816790D01*
X147706730Y-103909395D01*
X147948210Y-103909605D01*
X148171389Y-103817390D01*
X148342290Y-103646787D01*
X148359434Y-103605500D01*
X155079570Y-103605500D01*
X155097892Y-103613108D01*
X155969709Y-104484926D01*
X156012013Y-104697604D01*
X155924154Y-104638898D01*
X155710999Y-104596499D01*
X148329302Y-104596499D01*
X148172287Y-104439210D01*
X147949270Y-104346605D01*
X147707790Y-104346395D01*
X147484611Y-104438610D01*
X147313710Y-104609213D01*
X147221105Y-104832230D01*
X147220895Y-105073710D01*
X147313110Y-105296889D01*
X147483713Y-105467790D01*
X147604891Y-105518107D01*
X147634140Y-105547357D01*
X147800162Y-105658290D01*
X147812449Y-105666500D01*
X145011717Y-105666500D01*
X143894491Y-104549275D01*
X143927963Y-104381000D01*
X143855116Y-104014772D01*
X143647664Y-103704299D01*
X143337191Y-103496847D01*
X142970963Y-103424000D01*
X141506037Y-103424000D01*
X141139809Y-103496847D01*
X140829336Y-103704299D01*
X140621884Y-104014772D01*
X140549037Y-104381000D01*
X140580088Y-104537102D01*
X140341790Y-104536895D01*
X140118611Y-104629110D01*
X139947710Y-104799713D01*
X139897392Y-104920891D01*
X139631499Y-105186785D01*
X139631499Y-103341973D01*
X140001500Y-103341973D01*
X140152325Y-103313593D01*
X140290849Y-103224456D01*
X140383779Y-103088448D01*
X140394805Y-103034000D01*
X140813499Y-103034000D01*
X140829336Y-103057701D01*
X141139809Y-103265153D01*
X141506037Y-103338000D01*
X142970963Y-103338000D01*
X143337191Y-103265153D01*
X143647664Y-103057701D01*
X143855116Y-102747228D01*
X143927963Y-102381000D01*
X143855116Y-102014772D01*
X143647664Y-101704299D01*
X143337191Y-101496847D01*
X142970963Y-101424000D01*
X141506037Y-101424000D01*
X141139809Y-101496847D01*
X140829336Y-101704299D01*
X140685209Y-101920000D01*
X140396339Y-101920000D01*
X140388093Y-101876175D01*
X140298956Y-101737651D01*
X140162948Y-101644721D01*
X140001500Y-101612027D01*
X139631499Y-101612027D01*
X139631499Y-100501117D01*
X139751616Y-100381000D01*
X140549037Y-100381000D01*
X140621884Y-100747228D01*
X140829336Y-101057701D01*
X141139809Y-101265153D01*
X141506037Y-101338000D01*
X142970963Y-101338000D01*
X143337191Y-101265153D01*
X143647664Y-101057701D01*
X143727646Y-100938000D01*
X144538070Y-100938000D01*
X144658230Y-100987895D01*
X144899710Y-100988105D01*
X145122889Y-100895890D01*
X145293790Y-100725287D01*
X145386395Y-100502270D01*
X145386605Y-100260790D01*
X145294390Y-100037611D01*
X145123787Y-99866710D01*
X144900770Y-99774105D01*
X144659290Y-99773895D01*
X144538026Y-99824000D01*
X143727646Y-99824000D01*
X143647664Y-99704299D01*
X143337191Y-99496847D01*
X142970963Y-99424000D01*
X141506037Y-99424000D01*
X141139809Y-99496847D01*
X140829336Y-99704299D01*
X140621884Y-100014772D01*
X140549037Y-100381000D01*
X139751616Y-100381000D01*
X140976550Y-99156067D01*
X141139809Y-99265153D01*
X141506037Y-99338000D01*
X142970963Y-99338000D01*
X143337191Y-99265153D01*
X143647664Y-99057701D01*
X143855116Y-98747228D01*
X143927963Y-98381000D01*
X143855116Y-98014772D01*
X143647664Y-97704299D01*
X143337191Y-97496847D01*
X142970963Y-97424000D01*
X141634835Y-97424000D01*
X141712862Y-97345973D01*
X143488500Y-97345973D01*
X143639325Y-97317593D01*
X143777849Y-97228456D01*
X143870779Y-97092448D01*
X143902055Y-96938000D01*
X144602070Y-96938000D01*
X144722230Y-96987895D01*
X144963710Y-96988105D01*
X145186889Y-96895890D01*
X145357790Y-96725287D01*
X145450395Y-96502270D01*
X145450605Y-96260790D01*
X145358390Y-96037611D01*
X145187787Y-95866710D01*
X144964770Y-95774105D01*
X144723290Y-95773895D01*
X144602026Y-95824000D01*
X143902156Y-95824000D01*
X143875093Y-95680175D01*
X143785956Y-95541651D01*
X143649948Y-95448721D01*
X143488500Y-95416027D01*
X141120600Y-95416027D01*
X141120600Y-92281100D01*
X141078201Y-92067945D01*
X140994078Y-91942047D01*
X140957459Y-91887242D01*
X140239927Y-91169710D01*
X140304325Y-91157593D01*
X140442849Y-91068456D01*
X140535779Y-90932448D01*
X140568473Y-90771000D01*
X140568473Y-89128000D01*
X141732000Y-89128000D01*
X141732000Y-93777500D01*
G36*
X158080527Y-90563000D02*
X158108907Y-90713825D01*
X158198044Y-90852349D01*
X158334052Y-90945279D01*
X158495500Y-90977973D01*
X159597876Y-90977973D01*
X159310415Y-91265435D01*
X159264790Y-91265395D01*
X159041611Y-91357610D01*
X158870710Y-91528213D01*
X158778105Y-91751230D01*
X158777895Y-91992710D01*
X158870110Y-92215889D01*
X159040713Y-92386790D01*
X159206022Y-92455432D01*
X159159105Y-92568420D01*
X159159048Y-92634500D01*
X158623000Y-92634500D01*
X158573590Y-92644506D01*
X158531965Y-92672947D01*
X158504685Y-92715341D01*
X158500666Y-92736700D01*
X158216600Y-92736700D01*
X158062749Y-92767303D01*
X158032146Y-92773390D01*
X157875774Y-92877875D01*
X157861000Y-92892649D01*
X157861000Y-89128000D01*
X158080527Y-89128000D01*
X158080527Y-90563000D01*
X158080527Y-90563000D01*
G37*
X158080527Y-90563000D02*
X158108907Y-90713825D01*
X158198044Y-90852349D01*
X158334052Y-90945279D01*
X158495500Y-90977973D01*
X159597876Y-90977973D01*
X159310415Y-91265435D01*
X159264790Y-91265395D01*
X159041611Y-91357610D01*
X158870710Y-91528213D01*
X158778105Y-91751230D01*
X158777895Y-91992710D01*
X158870110Y-92215889D01*
X159040713Y-92386790D01*
X159206022Y-92455432D01*
X159159105Y-92568420D01*
X159159048Y-92634500D01*
X158623000Y-92634500D01*
X158573590Y-92644506D01*
X158531965Y-92672947D01*
X158504685Y-92715341D01*
X158500666Y-92736700D01*
X158216600Y-92736700D01*
X158062749Y-92767303D01*
X158032146Y-92773390D01*
X157875774Y-92877875D01*
X157861000Y-92892649D01*
X157861000Y-89128000D01*
X158080527Y-89128000D01*
X158080527Y-90563000D01*
G36*
X165147675Y-89144407D02*
X165009151Y-89233544D01*
X164916221Y-89369552D01*
X164883527Y-89531000D01*
X164883527Y-90531000D01*
X164897543Y-90605489D01*
X161306172Y-90605489D01*
X161388895Y-90406270D01*
X161389105Y-90164790D01*
X161296890Y-89941611D01*
X161126287Y-89770710D01*
X160903270Y-89678105D01*
X160661790Y-89677895D01*
X160540526Y-89728000D01*
X160310473Y-89728000D01*
X160310473Y-89128000D01*
X165234870Y-89128000D01*
X165147675Y-89144407D01*
X165147675Y-89144407D01*
G37*
X165147675Y-89144407D02*
X165009151Y-89233544D01*
X164916221Y-89369552D01*
X164883527Y-89531000D01*
X164883527Y-90531000D01*
X164897543Y-90605489D01*
X161306172Y-90605489D01*
X161388895Y-90406270D01*
X161389105Y-90164790D01*
X161296890Y-89941611D01*
X161126287Y-89770710D01*
X160903270Y-89678105D01*
X160661790Y-89677895D01*
X160540526Y-89728000D01*
X160310473Y-89728000D01*
X160310473Y-89128000D01*
X165234870Y-89128000D01*
X165147675Y-89144407D01*
M02*
