G04 #@! TF.FileFunction,Legend,Bot*
%FSLAX46Y46*%
G04 Gerber Fmt 4.6, Leading zero omitted, Abs format (unit mm)*
G04 Created by KiCad (PCBNEW 4.0.5-e0-6337~49~ubuntu14.04.1) date Thu Mar  2 13:58:40 2017*
%MOMM*%
%LPD*%
G01*
G04 APERTURE LIST*
%ADD10C,0.100000*%
%ADD11C,0.200000*%
%ADD12C,0.150000*%
%ADD13C,0.120000*%
%ADD14C,0.010000*%
%ADD15R,1.400000X1.400000*%
%ADD16O,1.400000X1.400000*%
%ADD17R,1.150000X1.200000*%
%ADD18R,1.200000X1.150000*%
%ADD19R,1.460000X1.050000*%
%ADD20R,1.300000X1.200000*%
%ADD21R,0.900000X1.300000*%
%ADD22R,1.300000X0.900000*%
%ADD23R,1.050000X0.800000*%
%ADD24R,2.100000X2.100000*%
%ADD25O,2.100000X2.100000*%
%ADD26R,2.900000X1.400000*%
%ADD27R,1.400000X2.900000*%
G04 APERTURE END LIST*
D10*
D11*
X137795000Y-101143500D02*
X144653000Y-101143500D01*
X142367000Y-115875500D02*
X141859000Y-115875500D01*
X142367000Y-106731500D02*
X142367000Y-115875500D01*
X142367000Y-102921500D02*
X145923000Y-102921500D01*
X142367000Y-106731500D02*
X142367000Y-102921500D01*
X148971000Y-106731500D02*
X142367000Y-106731500D01*
X155829000Y-96825500D02*
X148971000Y-106731500D01*
X163449000Y-96825500D02*
X155829000Y-96825500D01*
X163449000Y-104953500D02*
X164211000Y-104953500D01*
X163449000Y-90983500D02*
X163449000Y-104953500D01*
X164719000Y-89713500D02*
X163449000Y-90983500D01*
D12*
X137977619Y-100269739D02*
X138977619Y-100269739D01*
X138358571Y-100174501D02*
X137977619Y-99888786D01*
X138644286Y-99888786D02*
X138263333Y-100269739D01*
X137977619Y-99460215D02*
X138644286Y-99460215D01*
X138977619Y-99460215D02*
X138930000Y-99507834D01*
X138882381Y-99460215D01*
X138930000Y-99412596D01*
X138977619Y-99460215D01*
X138882381Y-99460215D01*
X138644286Y-99126882D02*
X138644286Y-98745930D01*
X138977619Y-98984025D02*
X138120476Y-98984025D01*
X138025238Y-98936406D01*
X137977619Y-98841168D01*
X137977619Y-98745930D01*
X138358571Y-98412596D02*
X138358571Y-97650691D01*
X138025238Y-96745929D02*
X137977619Y-96841167D01*
X137977619Y-97031644D01*
X138025238Y-97126882D01*
X138072857Y-97174501D01*
X138168095Y-97222120D01*
X138453810Y-97222120D01*
X138549048Y-97174501D01*
X138596667Y-97126882D01*
X138644286Y-97031644D01*
X138644286Y-96841167D01*
X138596667Y-96745929D01*
X138025238Y-95936405D02*
X137977619Y-96031643D01*
X137977619Y-96222120D01*
X138025238Y-96317358D01*
X138120476Y-96364977D01*
X138501429Y-96364977D01*
X138596667Y-96317358D01*
X138644286Y-96222120D01*
X138644286Y-96031643D01*
X138596667Y-95936405D01*
X138501429Y-95888786D01*
X138406190Y-95888786D01*
X138310952Y-96364977D01*
X138644286Y-95460215D02*
X137977619Y-95460215D01*
X138549048Y-95460215D02*
X138596667Y-95412596D01*
X138644286Y-95317358D01*
X138644286Y-95174500D01*
X138596667Y-95079262D01*
X138501429Y-95031643D01*
X137977619Y-95031643D01*
X138644286Y-94698310D02*
X138644286Y-94317358D01*
X138977619Y-94555453D02*
X138120476Y-94555453D01*
X138025238Y-94507834D01*
X137977619Y-94412596D01*
X137977619Y-94317358D01*
X137977619Y-93984024D02*
X138644286Y-93984024D01*
X138453810Y-93984024D02*
X138549048Y-93936405D01*
X138596667Y-93888786D01*
X138644286Y-93793548D01*
X138644286Y-93698309D01*
X138025238Y-92984023D02*
X137977619Y-93079261D01*
X137977619Y-93269738D01*
X138025238Y-93364976D01*
X138120476Y-93412595D01*
X138501429Y-93412595D01*
X138596667Y-93364976D01*
X138644286Y-93269738D01*
X138644286Y-93079261D01*
X138596667Y-92984023D01*
X138501429Y-92936404D01*
X138406190Y-92936404D01*
X138310952Y-93412595D01*
X138072857Y-92507833D02*
X138025238Y-92460214D01*
X137977619Y-92507833D01*
X138025238Y-92555452D01*
X138072857Y-92507833D01*
X137977619Y-92507833D01*
X138644286Y-92031643D02*
X137644286Y-92031643D01*
X138596667Y-92031643D02*
X138644286Y-91936405D01*
X138644286Y-91745928D01*
X138596667Y-91650690D01*
X138549048Y-91603071D01*
X138453810Y-91555452D01*
X138168095Y-91555452D01*
X138072857Y-91603071D01*
X138025238Y-91650690D01*
X137977619Y-91745928D01*
X137977619Y-91936405D01*
X138025238Y-92031643D01*
X137977619Y-91126881D02*
X138644286Y-91126881D01*
X138453810Y-91126881D02*
X138549048Y-91079262D01*
X138596667Y-91031643D01*
X138644286Y-90936405D01*
X138644286Y-90841166D01*
X137977619Y-90364976D02*
X138025238Y-90460214D01*
X138072857Y-90507833D01*
X138168095Y-90555452D01*
X138453810Y-90555452D01*
X138549048Y-90507833D01*
X138596667Y-90460214D01*
X138644286Y-90364976D01*
X138644286Y-90222118D01*
X138596667Y-90126880D01*
X138549048Y-90079261D01*
X138453810Y-90031642D01*
X138168095Y-90031642D01*
X138072857Y-90079261D01*
X138025238Y-90126880D01*
X137977619Y-90222118D01*
X137977619Y-90364976D01*
X145581238Y-102326143D02*
X145628857Y-102373762D01*
X145771714Y-102421381D01*
X145866952Y-102421381D01*
X146009810Y-102373762D01*
X146105048Y-102278524D01*
X146152667Y-102183286D01*
X146200286Y-101992810D01*
X146200286Y-101849952D01*
X146152667Y-101659476D01*
X146105048Y-101564238D01*
X146009810Y-101469000D01*
X145866952Y-101421381D01*
X145771714Y-101421381D01*
X145628857Y-101469000D01*
X145581238Y-101516619D01*
X145009810Y-102421381D02*
X145105048Y-102373762D01*
X145152667Y-102326143D01*
X145200286Y-102230905D01*
X145200286Y-101945190D01*
X145152667Y-101849952D01*
X145105048Y-101802333D01*
X145009810Y-101754714D01*
X144866952Y-101754714D01*
X144771714Y-101802333D01*
X144724095Y-101849952D01*
X144676476Y-101945190D01*
X144676476Y-102230905D01*
X144724095Y-102326143D01*
X144771714Y-102373762D01*
X144866952Y-102421381D01*
X145009810Y-102421381D01*
X144247905Y-101754714D02*
X144247905Y-102421381D01*
X144247905Y-101849952D02*
X144200286Y-101802333D01*
X144105048Y-101754714D01*
X143962190Y-101754714D01*
X143866952Y-101802333D01*
X143819333Y-101897571D01*
X143819333Y-102421381D01*
X143343143Y-101754714D02*
X143343143Y-102421381D01*
X143343143Y-101849952D02*
X143295524Y-101802333D01*
X143200286Y-101754714D01*
X143057428Y-101754714D01*
X142962190Y-101802333D01*
X142914571Y-101897571D01*
X142914571Y-102421381D01*
X142057428Y-102373762D02*
X142152666Y-102421381D01*
X142343143Y-102421381D01*
X142438381Y-102373762D01*
X142486000Y-102278524D01*
X142486000Y-101897571D01*
X142438381Y-101802333D01*
X142343143Y-101754714D01*
X142152666Y-101754714D01*
X142057428Y-101802333D01*
X142009809Y-101897571D01*
X142009809Y-101992810D01*
X142486000Y-102088048D01*
X141152666Y-102373762D02*
X141247904Y-102421381D01*
X141438381Y-102421381D01*
X141533619Y-102373762D01*
X141581238Y-102326143D01*
X141628857Y-102230905D01*
X141628857Y-101945190D01*
X141581238Y-101849952D01*
X141533619Y-101802333D01*
X141438381Y-101754714D01*
X141247904Y-101754714D01*
X141152666Y-101802333D01*
X140866952Y-101754714D02*
X140486000Y-101754714D01*
X140724095Y-101421381D02*
X140724095Y-102278524D01*
X140676476Y-102373762D01*
X140581238Y-102421381D01*
X140486000Y-102421381D01*
X140009809Y-102421381D02*
X140105047Y-102373762D01*
X140152666Y-102326143D01*
X140200285Y-102230905D01*
X140200285Y-101945190D01*
X140152666Y-101849952D01*
X140105047Y-101802333D01*
X140009809Y-101754714D01*
X139866951Y-101754714D01*
X139771713Y-101802333D01*
X139724094Y-101849952D01*
X139676475Y-101945190D01*
X139676475Y-102230905D01*
X139724094Y-102326143D01*
X139771713Y-102373762D01*
X139866951Y-102421381D01*
X140009809Y-102421381D01*
X139247904Y-102421381D02*
X139247904Y-101754714D01*
X139247904Y-101945190D02*
X139200285Y-101849952D01*
X139152666Y-101802333D01*
X139057428Y-101754714D01*
X138962189Y-101754714D01*
X138676475Y-102373762D02*
X138581237Y-102421381D01*
X138390761Y-102421381D01*
X138295522Y-102373762D01*
X138247903Y-102278524D01*
X138247903Y-102230905D01*
X138295522Y-102135667D01*
X138390761Y-102088048D01*
X138533618Y-102088048D01*
X138628856Y-102040429D01*
X138676475Y-101945190D01*
X138676475Y-101897571D01*
X138628856Y-101802333D01*
X138533618Y-101754714D01*
X138390761Y-101754714D01*
X138295522Y-101802333D01*
X137819332Y-102326143D02*
X137771713Y-102373762D01*
X137819332Y-102421381D01*
X137866951Y-102373762D01*
X137819332Y-102326143D01*
X137819332Y-102421381D01*
X137819332Y-101802333D02*
X137771713Y-101849952D01*
X137819332Y-101897571D01*
X137866951Y-101849952D01*
X137819332Y-101802333D01*
X137819332Y-101897571D01*
X141659571Y-106096452D02*
X141659571Y-105334547D01*
X140009571Y-106096452D02*
X140009571Y-105334547D01*
X139628619Y-105715499D02*
X140390524Y-105715499D01*
X138026238Y-106001214D02*
X137978619Y-105858357D01*
X137978619Y-105620261D01*
X138026238Y-105525023D01*
X138073857Y-105477404D01*
X138169095Y-105429785D01*
X138264333Y-105429785D01*
X138359571Y-105477404D01*
X138407190Y-105525023D01*
X138454810Y-105620261D01*
X138502429Y-105810738D01*
X138550048Y-105905976D01*
X138597667Y-105953595D01*
X138692905Y-106001214D01*
X138788143Y-106001214D01*
X138883381Y-105953595D01*
X138931000Y-105905976D01*
X138978619Y-105810738D01*
X138978619Y-105572642D01*
X138931000Y-105429785D01*
X141152405Y-103948881D02*
X141152405Y-102948881D01*
X140914310Y-102948881D01*
X140771452Y-102996500D01*
X140676214Y-103091738D01*
X140628595Y-103186976D01*
X140580976Y-103377452D01*
X140580976Y-103520310D01*
X140628595Y-103710786D01*
X140676214Y-103806024D01*
X140771452Y-103901262D01*
X140914310Y-103948881D01*
X141152405Y-103948881D01*
X139819071Y-103425071D02*
X139676214Y-103472690D01*
X139628595Y-103520310D01*
X139580976Y-103615548D01*
X139580976Y-103758405D01*
X139628595Y-103853643D01*
X139676214Y-103901262D01*
X139771452Y-103948881D01*
X140152405Y-103948881D01*
X140152405Y-102948881D01*
X139819071Y-102948881D01*
X139723833Y-102996500D01*
X139676214Y-103044119D01*
X139628595Y-103139357D01*
X139628595Y-103234595D01*
X139676214Y-103329833D01*
X139723833Y-103377452D01*
X139819071Y-103425071D01*
X140152405Y-103425071D01*
X138628595Y-102996500D02*
X138723833Y-102948881D01*
X138866690Y-102948881D01*
X139009548Y-102996500D01*
X139104786Y-103091738D01*
X139152405Y-103186976D01*
X139200024Y-103377452D01*
X139200024Y-103520310D01*
X139152405Y-103710786D01*
X139104786Y-103806024D01*
X139009548Y-103901262D01*
X138866690Y-103948881D01*
X138771452Y-103948881D01*
X138628595Y-103901262D01*
X138580976Y-103853643D01*
X138580976Y-103520310D01*
X138771452Y-103520310D01*
X141080976Y-108898881D02*
X141414310Y-108422690D01*
X141652405Y-108898881D02*
X141652405Y-107898881D01*
X141271452Y-107898881D01*
X141176214Y-107946500D01*
X141128595Y-107994119D01*
X141080976Y-108089357D01*
X141080976Y-108232214D01*
X141128595Y-108327452D01*
X141176214Y-108375071D01*
X141271452Y-108422690D01*
X141652405Y-108422690D01*
X140080976Y-108803643D02*
X140128595Y-108851262D01*
X140271452Y-108898881D01*
X140366690Y-108898881D01*
X140509548Y-108851262D01*
X140604786Y-108756024D01*
X140652405Y-108660786D01*
X140700024Y-108470310D01*
X140700024Y-108327452D01*
X140652405Y-108136976D01*
X140604786Y-108041738D01*
X140509548Y-107946500D01*
X140366690Y-107898881D01*
X140271452Y-107898881D01*
X140128595Y-107946500D01*
X140080976Y-107994119D01*
X139652405Y-108898881D02*
X139652405Y-107898881D01*
X139652405Y-108375071D02*
X139080976Y-108375071D01*
X139080976Y-108898881D02*
X139080976Y-107898881D01*
X138080976Y-108898881D02*
X138652405Y-108898881D01*
X138366691Y-108898881D02*
X138366691Y-107898881D01*
X138461929Y-108041738D01*
X138557167Y-108136976D01*
X138652405Y-108184595D01*
X141080976Y-110548881D02*
X141414310Y-110072690D01*
X141652405Y-110548881D02*
X141652405Y-109548881D01*
X141271452Y-109548881D01*
X141176214Y-109596500D01*
X141128595Y-109644119D01*
X141080976Y-109739357D01*
X141080976Y-109882214D01*
X141128595Y-109977452D01*
X141176214Y-110025071D01*
X141271452Y-110072690D01*
X141652405Y-110072690D01*
X140080976Y-110453643D02*
X140128595Y-110501262D01*
X140271452Y-110548881D01*
X140366690Y-110548881D01*
X140509548Y-110501262D01*
X140604786Y-110406024D01*
X140652405Y-110310786D01*
X140700024Y-110120310D01*
X140700024Y-109977452D01*
X140652405Y-109786976D01*
X140604786Y-109691738D01*
X140509548Y-109596500D01*
X140366690Y-109548881D01*
X140271452Y-109548881D01*
X140128595Y-109596500D01*
X140080976Y-109644119D01*
X139652405Y-110548881D02*
X139652405Y-109548881D01*
X139652405Y-110025071D02*
X139080976Y-110025071D01*
X139080976Y-110548881D02*
X139080976Y-109548881D01*
X138652405Y-109644119D02*
X138604786Y-109596500D01*
X138509548Y-109548881D01*
X138271452Y-109548881D01*
X138176214Y-109596500D01*
X138128595Y-109644119D01*
X138080976Y-109739357D01*
X138080976Y-109834595D01*
X138128595Y-109977452D01*
X138700024Y-110548881D01*
X138080976Y-110548881D01*
X141009547Y-112198881D02*
X141485738Y-112198881D01*
X141485738Y-111198881D01*
X140676214Y-111675071D02*
X140342880Y-111675071D01*
X140200023Y-112198881D02*
X140676214Y-112198881D01*
X140676214Y-111198881D01*
X140200023Y-111198881D01*
X139771452Y-112198881D02*
X139771452Y-111198881D01*
X139533357Y-111198881D01*
X139390499Y-111246500D01*
X139295261Y-111341738D01*
X139247642Y-111436976D01*
X139200023Y-111627452D01*
X139200023Y-111770310D01*
X139247642Y-111960786D01*
X139295261Y-112056024D01*
X139390499Y-112151262D01*
X139533357Y-112198881D01*
X139771452Y-112198881D01*
X138819071Y-112151262D02*
X138676214Y-112198881D01*
X138438118Y-112198881D01*
X138342880Y-112151262D01*
X138295261Y-112103643D01*
X138247642Y-112008405D01*
X138247642Y-111913167D01*
X138295261Y-111817929D01*
X138342880Y-111770310D01*
X138438118Y-111722690D01*
X138628595Y-111675071D01*
X138723833Y-111627452D01*
X138771452Y-111579833D01*
X138819071Y-111484595D01*
X138819071Y-111389357D01*
X138771452Y-111294119D01*
X138723833Y-111246500D01*
X138628595Y-111198881D01*
X138390499Y-111198881D01*
X138247642Y-111246500D01*
X141580976Y-113801262D02*
X141438119Y-113848881D01*
X141200023Y-113848881D01*
X141104785Y-113801262D01*
X141057166Y-113753643D01*
X141009547Y-113658405D01*
X141009547Y-113563167D01*
X141057166Y-113467929D01*
X141104785Y-113420310D01*
X141200023Y-113372690D01*
X141390500Y-113325071D01*
X141485738Y-113277452D01*
X141533357Y-113229833D01*
X141580976Y-113134595D01*
X141580976Y-113039357D01*
X141533357Y-112944119D01*
X141485738Y-112896500D01*
X141390500Y-112848881D01*
X141152404Y-112848881D01*
X141009547Y-112896500D01*
X140009547Y-113848881D02*
X140342881Y-113372690D01*
X140580976Y-113848881D02*
X140580976Y-112848881D01*
X140200023Y-112848881D01*
X140104785Y-112896500D01*
X140057166Y-112944119D01*
X140009547Y-113039357D01*
X140009547Y-113182214D01*
X140057166Y-113277452D01*
X140104785Y-113325071D01*
X140200023Y-113372690D01*
X140580976Y-113372690D01*
X139723833Y-112848881D02*
X139390500Y-113848881D01*
X139057166Y-112848881D01*
X138200023Y-113848881D02*
X138771452Y-113848881D01*
X138485738Y-113848881D02*
X138485738Y-112848881D01*
X138580976Y-112991738D01*
X138676214Y-113086976D01*
X138771452Y-113134595D01*
X141580976Y-115451262D02*
X141438119Y-115498881D01*
X141200023Y-115498881D01*
X141104785Y-115451262D01*
X141057166Y-115403643D01*
X141009547Y-115308405D01*
X141009547Y-115213167D01*
X141057166Y-115117929D01*
X141104785Y-115070310D01*
X141200023Y-115022690D01*
X141390500Y-114975071D01*
X141485738Y-114927452D01*
X141533357Y-114879833D01*
X141580976Y-114784595D01*
X141580976Y-114689357D01*
X141533357Y-114594119D01*
X141485738Y-114546500D01*
X141390500Y-114498881D01*
X141152404Y-114498881D01*
X141009547Y-114546500D01*
X140009547Y-115498881D02*
X140342881Y-115022690D01*
X140580976Y-115498881D02*
X140580976Y-114498881D01*
X140200023Y-114498881D01*
X140104785Y-114546500D01*
X140057166Y-114594119D01*
X140009547Y-114689357D01*
X140009547Y-114832214D01*
X140057166Y-114927452D01*
X140104785Y-114975071D01*
X140200023Y-115022690D01*
X140580976Y-115022690D01*
X139723833Y-114498881D02*
X139390500Y-115498881D01*
X139057166Y-114498881D01*
X138771452Y-114594119D02*
X138723833Y-114546500D01*
X138628595Y-114498881D01*
X138390499Y-114498881D01*
X138295261Y-114546500D01*
X138247642Y-114594119D01*
X138200023Y-114689357D01*
X138200023Y-114784595D01*
X138247642Y-114927452D01*
X138819071Y-115498881D01*
X138200023Y-115498881D01*
X149812095Y-112947119D02*
X149764476Y-112899500D01*
X149669238Y-112851881D01*
X149431142Y-112851881D01*
X149335904Y-112899500D01*
X149288285Y-112947119D01*
X149240666Y-113042357D01*
X149240666Y-113137595D01*
X149288285Y-113280452D01*
X149859714Y-113851881D01*
X149240666Y-113851881D01*
X148859714Y-113804262D02*
X148716857Y-113851881D01*
X148478761Y-113851881D01*
X148383523Y-113804262D01*
X148335904Y-113756643D01*
X148288285Y-113661405D01*
X148288285Y-113566167D01*
X148335904Y-113470929D01*
X148383523Y-113423310D01*
X148478761Y-113375690D01*
X148669238Y-113328071D01*
X148764476Y-113280452D01*
X148812095Y-113232833D01*
X148859714Y-113137595D01*
X148859714Y-113042357D01*
X148812095Y-112947119D01*
X148764476Y-112899500D01*
X148669238Y-112851881D01*
X148431142Y-112851881D01*
X148288285Y-112899500D01*
X147145428Y-112804262D02*
X148002571Y-114089976D01*
X146907333Y-112851881D02*
X146288285Y-112851881D01*
X146621619Y-113232833D01*
X146478761Y-113232833D01*
X146383523Y-113280452D01*
X146335904Y-113328071D01*
X146288285Y-113423310D01*
X146288285Y-113661405D01*
X146335904Y-113756643D01*
X146383523Y-113804262D01*
X146478761Y-113851881D01*
X146764476Y-113851881D01*
X146859714Y-113804262D01*
X146907333Y-113756643D01*
X145907333Y-113804262D02*
X145764476Y-113851881D01*
X145526380Y-113851881D01*
X145431142Y-113804262D01*
X145383523Y-113756643D01*
X145335904Y-113661405D01*
X145335904Y-113566167D01*
X145383523Y-113470929D01*
X145431142Y-113423310D01*
X145526380Y-113375690D01*
X145716857Y-113328071D01*
X145812095Y-113280452D01*
X145859714Y-113232833D01*
X145907333Y-113137595D01*
X145907333Y-113042357D01*
X145859714Y-112947119D01*
X145812095Y-112899500D01*
X145716857Y-112851881D01*
X145478761Y-112851881D01*
X145335904Y-112899500D01*
X149073999Y-115501881D02*
X149550190Y-115501881D01*
X149550190Y-114501881D01*
X148740666Y-115501881D02*
X148740666Y-114835214D01*
X148740666Y-114501881D02*
X148788285Y-114549500D01*
X148740666Y-114597119D01*
X148693047Y-114549500D01*
X148740666Y-114501881D01*
X148740666Y-114597119D01*
X148264476Y-115501881D02*
X148264476Y-114501881D01*
X147883523Y-114501881D01*
X147788285Y-114549500D01*
X147740666Y-114597119D01*
X147693047Y-114692357D01*
X147693047Y-114835214D01*
X147740666Y-114930452D01*
X147788285Y-114978071D01*
X147883523Y-115025690D01*
X148264476Y-115025690D01*
X147121619Y-115501881D02*
X147216857Y-115454262D01*
X147264476Y-115406643D01*
X147312095Y-115311405D01*
X147312095Y-115025690D01*
X147264476Y-114930452D01*
X147216857Y-114882833D01*
X147121619Y-114835214D01*
X146978761Y-114835214D01*
X146883523Y-114882833D01*
X146835904Y-114930452D01*
X146788285Y-115025690D01*
X146788285Y-115311405D01*
X146835904Y-115406643D01*
X146883523Y-115454262D01*
X146978761Y-115501881D01*
X147121619Y-115501881D01*
X146359714Y-115120929D02*
X145597809Y-115120929D01*
X145978761Y-115501881D02*
X145978761Y-114739976D01*
D13*
X159229500Y-113303000D02*
X159229500Y-114003000D01*
X160429500Y-114003000D02*
X160429500Y-113303000D01*
X157193500Y-106125000D02*
X157893500Y-106125000D01*
X157893500Y-104925000D02*
X157193500Y-104925000D01*
X164813500Y-111205000D02*
X165513500Y-111205000D01*
X165513500Y-110005000D02*
X164813500Y-110005000D01*
X150781500Y-98321000D02*
X150081500Y-98321000D01*
X150081500Y-99521000D02*
X150781500Y-99521000D01*
X169323500Y-101115000D02*
X168623500Y-101115000D01*
X168623500Y-102315000D02*
X169323500Y-102315000D01*
X169323500Y-103655000D02*
X168623500Y-103655000D01*
X168623500Y-104855000D02*
X169323500Y-104855000D01*
X169323500Y-98575000D02*
X168623500Y-98575000D01*
X168623500Y-99775000D02*
X169323500Y-99775000D01*
X167607500Y-109681000D02*
X168307500Y-109681000D01*
X168307500Y-108481000D02*
X167607500Y-108481000D01*
X165259500Y-105179000D02*
X164559500Y-105179000D01*
X164559500Y-106379000D02*
X165259500Y-106379000D01*
X142969500Y-96981000D02*
X143669500Y-96981000D01*
X143669500Y-95781000D02*
X142969500Y-95781000D01*
X166571500Y-115009000D02*
X164771500Y-115009000D01*
X164771500Y-111789000D02*
X167221500Y-111789000D01*
X156529500Y-115106000D02*
X156529500Y-114176000D01*
X156529500Y-111946000D02*
X156529500Y-112876000D01*
X156529500Y-111946000D02*
X158689500Y-111946000D01*
X156529500Y-115106000D02*
X157989500Y-115106000D01*
D12*
X162615500Y-89610000D02*
X161615500Y-89610000D01*
X161615500Y-90960000D02*
X162615500Y-90960000D01*
X161615500Y-94579500D02*
X162615500Y-94579500D01*
X162615500Y-93229500D02*
X161615500Y-93229500D01*
X153646500Y-95865000D02*
X153646500Y-94865000D01*
X152296500Y-94865000D02*
X152296500Y-95865000D01*
X161615500Y-96294000D02*
X162615500Y-96294000D01*
X162615500Y-94944000D02*
X161615500Y-94944000D01*
X155424500Y-95865000D02*
X155424500Y-94865000D01*
X154074500Y-94865000D02*
X154074500Y-95865000D01*
X159567500Y-110184000D02*
X158567500Y-110184000D01*
X158567500Y-111534000D02*
X159567500Y-111534000D01*
X162615500Y-100024000D02*
X161615500Y-100024000D01*
X161615500Y-101374000D02*
X162615500Y-101374000D01*
X162615500Y-102564000D02*
X161615500Y-102564000D01*
X161615500Y-103914000D02*
X162615500Y-103914000D01*
X167457500Y-111407000D02*
X168457500Y-111407000D01*
X168457500Y-110057000D02*
X167457500Y-110057000D01*
X168044500Y-112454500D02*
X168044500Y-113454500D01*
X169394500Y-113454500D02*
X169394500Y-112454500D01*
X145613500Y-101120000D02*
X146613500Y-101120000D01*
X146613500Y-99770000D02*
X145613500Y-99770000D01*
X144597500Y-105692000D02*
X145597500Y-105692000D01*
X145597500Y-104342000D02*
X144597500Y-104342000D01*
X147137500Y-103914000D02*
X148137500Y-103914000D01*
X148137500Y-102564000D02*
X147137500Y-102564000D01*
X155186000Y-104850000D02*
X154186000Y-104850000D01*
X154186000Y-106200000D02*
X155186000Y-106200000D01*
X147137500Y-105692000D02*
X148137500Y-105692000D01*
X148137500Y-104342000D02*
X147137500Y-104342000D01*
X145613500Y-97056000D02*
X146613500Y-97056000D01*
X146613500Y-95706000D02*
X145613500Y-95706000D01*
D13*
X149731500Y-95475000D02*
X151631500Y-95475000D01*
X151131500Y-97795000D02*
X149731500Y-97795000D01*
X158243500Y-104399000D02*
X156343500Y-104399000D01*
X156843500Y-102079000D02*
X158243500Y-102079000D01*
X154747500Y-107755000D02*
X154747500Y-108685000D01*
X154747500Y-110915000D02*
X154747500Y-109985000D01*
X154747500Y-110915000D02*
X152587500Y-110915000D01*
X154747500Y-107755000D02*
X153287500Y-107755000D01*
D14*
G36*
X154846723Y-89596103D02*
X154688119Y-89672853D01*
X154531221Y-89760676D01*
X154400553Y-89740781D01*
X154291068Y-89675419D01*
X154000402Y-89568327D01*
X153649108Y-89551971D01*
X153319051Y-89625600D01*
X153203051Y-89685388D01*
X153036039Y-89833440D01*
X152860738Y-90044160D01*
X152719565Y-90259746D01*
X152654936Y-90422396D01*
X152654317Y-90433167D01*
X152685925Y-90507110D01*
X152762108Y-90456470D01*
X152852734Y-90308625D01*
X152889566Y-90219430D01*
X153077743Y-89927388D01*
X153370699Y-89734030D01*
X153725954Y-89654440D01*
X154101028Y-89703705D01*
X154216350Y-89748257D01*
X154374365Y-89856687D01*
X154432000Y-89959923D01*
X154411667Y-90055040D01*
X154327971Y-90051228D01*
X154146867Y-89945858D01*
X154133062Y-89936840D01*
X153841854Y-89836970D01*
X153535686Y-89875984D01*
X153262629Y-90035601D01*
X153070755Y-90297542D01*
X153050527Y-90348500D01*
X153030891Y-90475749D01*
X153082490Y-90482881D01*
X153168246Y-90379941D01*
X153205423Y-90306542D01*
X153380966Y-90080739D01*
X153626036Y-89971703D01*
X153897083Y-89970314D01*
X154150553Y-90067456D01*
X154342896Y-90254009D01*
X154430559Y-90520855D01*
X154432000Y-90563343D01*
X154410493Y-90650096D01*
X154322914Y-90706836D01*
X154134680Y-90745663D01*
X153818167Y-90778085D01*
X153300254Y-90847999D01*
X152846188Y-90958821D01*
X152491759Y-91099573D01*
X152281231Y-91249572D01*
X152210210Y-91347439D01*
X152191874Y-91460616D01*
X152228206Y-91639034D01*
X152306597Y-91888515D01*
X152488166Y-92297636D01*
X152730097Y-92644459D01*
X153003735Y-92897981D01*
X153280423Y-93027201D01*
X153368412Y-93037293D01*
X153723274Y-93040682D01*
X154129284Y-93043130D01*
X154432000Y-93043924D01*
X154897667Y-93043924D01*
X155144623Y-93039469D01*
X155336059Y-93028686D01*
X155342167Y-93028056D01*
X155546617Y-93045032D01*
X155617839Y-93067891D01*
X155768805Y-93050542D01*
X155989896Y-92919540D01*
X156054736Y-92868565D01*
X156363774Y-92527619D01*
X156601096Y-92100365D01*
X156727482Y-91659634D01*
X156733428Y-91608274D01*
X156725964Y-91478878D01*
X156436661Y-91478878D01*
X156423618Y-91619013D01*
X156320079Y-91717629D01*
X156192876Y-91713750D01*
X156136361Y-91604199D01*
X156129554Y-91544613D01*
X152888292Y-91544613D01*
X152851081Y-91693013D01*
X152745270Y-91766469D01*
X152738667Y-91766667D01*
X152634121Y-91698713D01*
X152597767Y-91633975D01*
X152594193Y-91477469D01*
X152678395Y-91375943D01*
X152799711Y-91378302D01*
X152834576Y-91405375D01*
X152888292Y-91544613D01*
X156129554Y-91544613D01*
X156125333Y-91507670D01*
X156181539Y-91375625D01*
X156302764Y-91350898D01*
X156417923Y-91440062D01*
X156436661Y-91478878D01*
X156725964Y-91478878D01*
X156719836Y-91372673D01*
X156597697Y-91203268D01*
X156538034Y-91155107D01*
X156285465Y-91022054D01*
X155922675Y-90901288D01*
X155508756Y-90807916D01*
X155102796Y-90757043D01*
X154961167Y-90751989D01*
X154735135Y-90742140D01*
X154631234Y-90693700D01*
X154602400Y-90574993D01*
X154601333Y-90509789D01*
X154680199Y-90237774D01*
X154899615Y-90029441D01*
X155043448Y-89962775D01*
X155282128Y-89955185D01*
X155546754Y-90054016D01*
X155765884Y-90227166D01*
X155827611Y-90315147D01*
X155915460Y-90445640D01*
X155951531Y-90416859D01*
X155952610Y-90398359D01*
X155885134Y-90234621D01*
X155711700Y-90056504D01*
X155486109Y-89905756D01*
X155262166Y-89824121D01*
X155206343Y-89819333D01*
X154958606Y-89869106D01*
X154784030Y-89954969D01*
X154613740Y-90039219D01*
X154529618Y-90019867D01*
X154561803Y-89916018D01*
X154618814Y-89850234D01*
X154782792Y-89758762D01*
X155035686Y-89688113D01*
X155141282Y-89672092D01*
X155520571Y-89682827D01*
X155815777Y-89823547D01*
X156056979Y-90111167D01*
X156120053Y-90222444D01*
X156220700Y-90389693D01*
X156282324Y-90447286D01*
X156290925Y-90428962D01*
X156235256Y-90208342D01*
X156084540Y-89956563D01*
X155881859Y-89740414D01*
X155814770Y-89690795D01*
X155521317Y-89574705D01*
X155173243Y-89542736D01*
X154846723Y-89596103D01*
X154846723Y-89596103D01*
G37*
X154846723Y-89596103D02*
X154688119Y-89672853D01*
X154531221Y-89760676D01*
X154400553Y-89740781D01*
X154291068Y-89675419D01*
X154000402Y-89568327D01*
X153649108Y-89551971D01*
X153319051Y-89625600D01*
X153203051Y-89685388D01*
X153036039Y-89833440D01*
X152860738Y-90044160D01*
X152719565Y-90259746D01*
X152654936Y-90422396D01*
X152654317Y-90433167D01*
X152685925Y-90507110D01*
X152762108Y-90456470D01*
X152852734Y-90308625D01*
X152889566Y-90219430D01*
X153077743Y-89927388D01*
X153370699Y-89734030D01*
X153725954Y-89654440D01*
X154101028Y-89703705D01*
X154216350Y-89748257D01*
X154374365Y-89856687D01*
X154432000Y-89959923D01*
X154411667Y-90055040D01*
X154327971Y-90051228D01*
X154146867Y-89945858D01*
X154133062Y-89936840D01*
X153841854Y-89836970D01*
X153535686Y-89875984D01*
X153262629Y-90035601D01*
X153070755Y-90297542D01*
X153050527Y-90348500D01*
X153030891Y-90475749D01*
X153082490Y-90482881D01*
X153168246Y-90379941D01*
X153205423Y-90306542D01*
X153380966Y-90080739D01*
X153626036Y-89971703D01*
X153897083Y-89970314D01*
X154150553Y-90067456D01*
X154342896Y-90254009D01*
X154430559Y-90520855D01*
X154432000Y-90563343D01*
X154410493Y-90650096D01*
X154322914Y-90706836D01*
X154134680Y-90745663D01*
X153818167Y-90778085D01*
X153300254Y-90847999D01*
X152846188Y-90958821D01*
X152491759Y-91099573D01*
X152281231Y-91249572D01*
X152210210Y-91347439D01*
X152191874Y-91460616D01*
X152228206Y-91639034D01*
X152306597Y-91888515D01*
X152488166Y-92297636D01*
X152730097Y-92644459D01*
X153003735Y-92897981D01*
X153280423Y-93027201D01*
X153368412Y-93037293D01*
X153723274Y-93040682D01*
X154129284Y-93043130D01*
X154432000Y-93043924D01*
X154897667Y-93043924D01*
X155144623Y-93039469D01*
X155336059Y-93028686D01*
X155342167Y-93028056D01*
X155546617Y-93045032D01*
X155617839Y-93067891D01*
X155768805Y-93050542D01*
X155989896Y-92919540D01*
X156054736Y-92868565D01*
X156363774Y-92527619D01*
X156601096Y-92100365D01*
X156727482Y-91659634D01*
X156733428Y-91608274D01*
X156725964Y-91478878D01*
X156436661Y-91478878D01*
X156423618Y-91619013D01*
X156320079Y-91717629D01*
X156192876Y-91713750D01*
X156136361Y-91604199D01*
X156129554Y-91544613D01*
X152888292Y-91544613D01*
X152851081Y-91693013D01*
X152745270Y-91766469D01*
X152738667Y-91766667D01*
X152634121Y-91698713D01*
X152597767Y-91633975D01*
X152594193Y-91477469D01*
X152678395Y-91375943D01*
X152799711Y-91378302D01*
X152834576Y-91405375D01*
X152888292Y-91544613D01*
X156129554Y-91544613D01*
X156125333Y-91507670D01*
X156181539Y-91375625D01*
X156302764Y-91350898D01*
X156417923Y-91440062D01*
X156436661Y-91478878D01*
X156725964Y-91478878D01*
X156719836Y-91372673D01*
X156597697Y-91203268D01*
X156538034Y-91155107D01*
X156285465Y-91022054D01*
X155922675Y-90901288D01*
X155508756Y-90807916D01*
X155102796Y-90757043D01*
X154961167Y-90751989D01*
X154735135Y-90742140D01*
X154631234Y-90693700D01*
X154602400Y-90574993D01*
X154601333Y-90509789D01*
X154680199Y-90237774D01*
X154899615Y-90029441D01*
X155043448Y-89962775D01*
X155282128Y-89955185D01*
X155546754Y-90054016D01*
X155765884Y-90227166D01*
X155827611Y-90315147D01*
X155915460Y-90445640D01*
X155951531Y-90416859D01*
X155952610Y-90398359D01*
X155885134Y-90234621D01*
X155711700Y-90056504D01*
X155486109Y-89905756D01*
X155262166Y-89824121D01*
X155206343Y-89819333D01*
X154958606Y-89869106D01*
X154784030Y-89954969D01*
X154613740Y-90039219D01*
X154529618Y-90019867D01*
X154561803Y-89916018D01*
X154618814Y-89850234D01*
X154782792Y-89758762D01*
X155035686Y-89688113D01*
X155141282Y-89672092D01*
X155520571Y-89682827D01*
X155815777Y-89823547D01*
X156056979Y-90111167D01*
X156120053Y-90222444D01*
X156220700Y-90389693D01*
X156282324Y-90447286D01*
X156290925Y-90428962D01*
X156235256Y-90208342D01*
X156084540Y-89956563D01*
X155881859Y-89740414D01*
X155814770Y-89690795D01*
X155521317Y-89574705D01*
X155173243Y-89542736D01*
X154846723Y-89596103D01*
G36*
X145783708Y-89586556D02*
X145689509Y-89586946D01*
X145619444Y-89588000D01*
X145569703Y-89590048D01*
X145536478Y-89593422D01*
X145515962Y-89598453D01*
X145504345Y-89605470D01*
X145497819Y-89614805D01*
X145494526Y-89622218D01*
X145487404Y-89647760D01*
X145475766Y-89699579D01*
X145460629Y-89772689D01*
X145443012Y-89862102D01*
X145423934Y-89962832D01*
X145414421Y-90014477D01*
X145395172Y-90117961D01*
X145377046Y-90211668D01*
X145361022Y-90290835D01*
X145348078Y-90350695D01*
X145339192Y-90386483D01*
X145336540Y-90393926D01*
X145319128Y-90405762D01*
X145277883Y-90426802D01*
X145218514Y-90454608D01*
X145146728Y-90486745D01*
X145068233Y-90520777D01*
X144988736Y-90554266D01*
X144913945Y-90584777D01*
X144849568Y-90609874D01*
X144801312Y-90627120D01*
X144774885Y-90634079D01*
X144773831Y-90634118D01*
X144756356Y-90625442D01*
X144716552Y-90601121D01*
X144658181Y-90563600D01*
X144585005Y-90515324D01*
X144500786Y-90458741D01*
X144431975Y-90411868D01*
X144341923Y-90350633D01*
X144260088Y-90295862D01*
X144190229Y-90249998D01*
X144136101Y-90215484D01*
X144101462Y-90194766D01*
X144090493Y-90189750D01*
X144073495Y-90200696D01*
X144038530Y-90231000D01*
X143989349Y-90276861D01*
X143929704Y-90334478D01*
X143863347Y-90400049D01*
X143794029Y-90469774D01*
X143725501Y-90539851D01*
X143661517Y-90606479D01*
X143605826Y-90665856D01*
X143562182Y-90714183D01*
X143534334Y-90747657D01*
X143525875Y-90761822D01*
X143533157Y-90781982D01*
X143555466Y-90821910D01*
X143593499Y-90882679D01*
X143647952Y-90965356D01*
X143719523Y-91071013D01*
X143808908Y-91200717D01*
X143853005Y-91264168D01*
X143893931Y-91324939D01*
X143926960Y-91377804D01*
X143948324Y-91416482D01*
X143954500Y-91433406D01*
X143948496Y-91453613D01*
X143932079Y-91497202D01*
X143907642Y-91558503D01*
X143877580Y-91631846D01*
X143844285Y-91711561D01*
X143810151Y-91791977D01*
X143777573Y-91867423D01*
X143748943Y-91932230D01*
X143726655Y-91980728D01*
X143713103Y-92007245D01*
X143711058Y-92010109D01*
X143693762Y-92015237D01*
X143649673Y-92025175D01*
X143583225Y-92039013D01*
X143498857Y-92055843D01*
X143401004Y-92074753D01*
X143334867Y-92087244D01*
X143229852Y-92107083D01*
X143134621Y-92125412D01*
X143053832Y-92141309D01*
X142992144Y-92153848D01*
X142954213Y-92162105D01*
X142944776Y-92164628D01*
X142937804Y-92172369D01*
X142932401Y-92191832D01*
X142928387Y-92226372D01*
X142925583Y-92279349D01*
X142923808Y-92354119D01*
X142922883Y-92454040D01*
X142922626Y-92577369D01*
X142922773Y-92701546D01*
X142923381Y-92797641D01*
X142924696Y-92869323D01*
X142926966Y-92920259D01*
X142930437Y-92954119D01*
X142935356Y-92974569D01*
X142941970Y-92985278D01*
X142950407Y-92989878D01*
X142977921Y-92996267D01*
X143027875Y-93006321D01*
X143091427Y-93018292D01*
X143121063Y-93023652D01*
X143275748Y-93051601D01*
X143401658Y-93075163D01*
X143501377Y-93094919D01*
X143577488Y-93111446D01*
X143632576Y-93125326D01*
X143669225Y-93137138D01*
X143690018Y-93147461D01*
X143695489Y-93152521D01*
X143706377Y-93173541D01*
X143726297Y-93217977D01*
X143752973Y-93280236D01*
X143784128Y-93354722D01*
X143817486Y-93435843D01*
X143850772Y-93518003D01*
X143881708Y-93595608D01*
X143908018Y-93663066D01*
X143927427Y-93714781D01*
X143937657Y-93745159D01*
X143938670Y-93750157D01*
X143930030Y-93766231D01*
X143905827Y-93804547D01*
X143868600Y-93861265D01*
X143820887Y-93932541D01*
X143765226Y-94014533D01*
X143732250Y-94062650D01*
X143673069Y-94149963D01*
X143620515Y-94229872D01*
X143577159Y-94298273D01*
X143545572Y-94351061D01*
X143528324Y-94384131D01*
X143525875Y-94392211D01*
X143536917Y-94411920D01*
X143568288Y-94450660D01*
X143617356Y-94505535D01*
X143681488Y-94573649D01*
X143758053Y-94652104D01*
X143802142Y-94696260D01*
X143888387Y-94781747D01*
X143955231Y-94847101D01*
X144005625Y-94894740D01*
X144042520Y-94927080D01*
X144068868Y-94946536D01*
X144087621Y-94955526D01*
X144101729Y-94956466D01*
X144114145Y-94951771D01*
X144114203Y-94951740D01*
X144137758Y-94937185D01*
X144182915Y-94907578D01*
X144245170Y-94865936D01*
X144320017Y-94815278D01*
X144402952Y-94758622D01*
X144424271Y-94743979D01*
X144507133Y-94687630D01*
X144581877Y-94637997D01*
X144644329Y-94597754D01*
X144690317Y-94569575D01*
X144715669Y-94556134D01*
X144718572Y-94555375D01*
X144740498Y-94562311D01*
X144783369Y-94580989D01*
X144840113Y-94608209D01*
X144879963Y-94628386D01*
X144943670Y-94659292D01*
X144994701Y-94680181D01*
X145027235Y-94688838D01*
X145035235Y-94687490D01*
X145044591Y-94669817D01*
X145064376Y-94626492D01*
X145092981Y-94561243D01*
X145128796Y-94477799D01*
X145170214Y-94379887D01*
X145215624Y-94271234D01*
X145232928Y-94229509D01*
X145283728Y-94106837D01*
X145334832Y-93983573D01*
X145383793Y-93865602D01*
X145428167Y-93758812D01*
X145465510Y-93669090D01*
X145493377Y-93602322D01*
X145495231Y-93597892D01*
X145524942Y-93525325D01*
X145549499Y-93462300D01*
X145566532Y-93415122D01*
X145573671Y-93390098D01*
X145573750Y-93388941D01*
X145561618Y-93370044D01*
X145529520Y-93339537D01*
X145483910Y-93303422D01*
X145474532Y-93296624D01*
X145336046Y-93182168D01*
X145227545Y-93057860D01*
X145148577Y-92922884D01*
X145098692Y-92776427D01*
X145077437Y-92617676D01*
X145076550Y-92578937D01*
X145089778Y-92420169D01*
X145131240Y-92274295D01*
X145201967Y-92138736D01*
X145302988Y-92010913D01*
X145303779Y-92010067D01*
X145422469Y-91905131D01*
X145554822Y-91826804D01*
X145696936Y-91775247D01*
X145844906Y-91750619D01*
X145994830Y-91753082D01*
X146142804Y-91782797D01*
X146284925Y-91839925D01*
X146417289Y-91924626D01*
X146462275Y-91962326D01*
X146572755Y-92081335D01*
X146654556Y-92213928D01*
X146707452Y-92359589D01*
X146731212Y-92517806D01*
X146732625Y-92569336D01*
X146721306Y-92727940D01*
X146686177Y-92870139D01*
X146625478Y-92999237D01*
X146537453Y-93118536D01*
X146420342Y-93231338D01*
X146351265Y-93285641D01*
X146301214Y-93325174D01*
X146262933Y-93360033D01*
X146242404Y-93384576D01*
X146240500Y-93390112D01*
X146246385Y-93409610D01*
X146263103Y-93454860D01*
X146289251Y-93522320D01*
X146323426Y-93608444D01*
X146364224Y-93709689D01*
X146410242Y-93822510D01*
X146448933Y-93916453D01*
X146500552Y-94041353D01*
X146550429Y-94162197D01*
X146596714Y-94274495D01*
X146637560Y-94373757D01*
X146671118Y-94455492D01*
X146695540Y-94515211D01*
X146705399Y-94539500D01*
X146735425Y-94612830D01*
X146759286Y-94659631D01*
X146783503Y-94682481D01*
X146814598Y-94683956D01*
X146859091Y-94666633D01*
X146923504Y-94633089D01*
X146931482Y-94628841D01*
X146992533Y-94597421D01*
X147044335Y-94572709D01*
X147079746Y-94558011D01*
X147090155Y-94555375D01*
X147108659Y-94563988D01*
X147149304Y-94588141D01*
X147208126Y-94625302D01*
X147281159Y-94672940D01*
X147364439Y-94728524D01*
X147413443Y-94761750D01*
X147500102Y-94820510D01*
X147578054Y-94872760D01*
X147643476Y-94915988D01*
X147692544Y-94947678D01*
X147721435Y-94965319D01*
X147727396Y-94968125D01*
X147741307Y-94957390D01*
X147774436Y-94927222D01*
X147823585Y-94880675D01*
X147885557Y-94820801D01*
X147957156Y-94750654D01*
X148013503Y-94694874D01*
X148089897Y-94617840D01*
X148158130Y-94546944D01*
X148215098Y-94485583D01*
X148257700Y-94437150D01*
X148282835Y-94405042D01*
X148288376Y-94394024D01*
X148279663Y-94373468D01*
X148255245Y-94331039D01*
X148217700Y-94270822D01*
X148169607Y-94196899D01*
X148113547Y-94113355D01*
X148082467Y-94067993D01*
X148023402Y-93981589D01*
X147970915Y-93903274D01*
X147927573Y-93837009D01*
X147895948Y-93786756D01*
X147878609Y-93756474D01*
X147876092Y-93749908D01*
X147881761Y-93727351D01*
X147897661Y-93681305D01*
X147921495Y-93617456D01*
X147950964Y-93541487D01*
X147983771Y-93459085D01*
X148017619Y-93375934D01*
X148050210Y-93297719D01*
X148079248Y-93230125D01*
X148102433Y-93178838D01*
X148117469Y-93149542D01*
X148120304Y-93145614D01*
X148141187Y-93136911D01*
X148188634Y-93123922D01*
X148257915Y-93107725D01*
X148344299Y-93089395D01*
X148443056Y-93070006D01*
X148496171Y-93060147D01*
X148599337Y-93040853D01*
X148692510Y-93022454D01*
X148770966Y-93005962D01*
X148829985Y-92992390D01*
X148864844Y-92982748D01*
X148871782Y-92979682D01*
X148878691Y-92958952D01*
X148884275Y-92912230D01*
X148888546Y-92844740D01*
X148891519Y-92761707D01*
X148893205Y-92668357D01*
X148893619Y-92569914D01*
X148892773Y-92471603D01*
X148890679Y-92378649D01*
X148887352Y-92296278D01*
X148882805Y-92229713D01*
X148877049Y-92184180D01*
X148870100Y-92164903D01*
X148869742Y-92164731D01*
X148848465Y-92159541D01*
X148800612Y-92149526D01*
X148730832Y-92135605D01*
X148643775Y-92118696D01*
X148544091Y-92099720D01*
X148479349Y-92087573D01*
X148374884Y-92067622D01*
X148280837Y-92048787D01*
X148201718Y-92032041D01*
X148142032Y-92018359D01*
X148106289Y-92008716D01*
X148098126Y-92005187D01*
X148086113Y-91984378D01*
X148064970Y-91940051D01*
X148037135Y-91878023D01*
X148005047Y-91804110D01*
X147971144Y-91724131D01*
X147937866Y-91643901D01*
X147907649Y-91569238D01*
X147882933Y-91505960D01*
X147866156Y-91459882D01*
X147859757Y-91436823D01*
X147859750Y-91436539D01*
X147868432Y-91415925D01*
X147892779Y-91373361D01*
X147930242Y-91312902D01*
X147978273Y-91238604D01*
X148034324Y-91154523D01*
X148068195Y-91104780D01*
X148128058Y-91016789D01*
X148181910Y-90936241D01*
X148227088Y-90867233D01*
X148260932Y-90813859D01*
X148280780Y-90780214D01*
X148284763Y-90771611D01*
X148281278Y-90755585D01*
X148263529Y-90728131D01*
X148229713Y-90687193D01*
X148178028Y-90630712D01*
X148106671Y-90556632D01*
X148016957Y-90466017D01*
X147939883Y-90389623D01*
X147869500Y-90321329D01*
X147809091Y-90264203D01*
X147761941Y-90221316D01*
X147731335Y-90195734D01*
X147721270Y-90189750D01*
X147703154Y-90198437D01*
X147662876Y-90222835D01*
X147604285Y-90260443D01*
X147531229Y-90308763D01*
X147447557Y-90365296D01*
X147387725Y-90406349D01*
X147298752Y-90467358D01*
X147217556Y-90522265D01*
X147148062Y-90568478D01*
X147094192Y-90603405D01*
X147059869Y-90624456D01*
X147049864Y-90629481D01*
X147028277Y-90625755D01*
X146983353Y-90611778D01*
X146920922Y-90589846D01*
X146846812Y-90562252D01*
X146766854Y-90531292D01*
X146686877Y-90499261D01*
X146612710Y-90468452D01*
X146550183Y-90441162D01*
X146505125Y-90419684D01*
X146483634Y-90406584D01*
X146475616Y-90386418D01*
X146463036Y-90339476D01*
X146446904Y-90270238D01*
X146428228Y-90183186D01*
X146408018Y-90082800D01*
X146392571Y-90002056D01*
X146372281Y-89894954D01*
X146353457Y-89798072D01*
X146336995Y-89715829D01*
X146323793Y-89652644D01*
X146314746Y-89612939D01*
X146311219Y-89601212D01*
X146293236Y-89596971D01*
X146247389Y-89593263D01*
X146177560Y-89590228D01*
X146087632Y-89588008D01*
X145981490Y-89586743D01*
X145905848Y-89586500D01*
X145783708Y-89586556D01*
X145783708Y-89586556D01*
G37*
X145783708Y-89586556D02*
X145689509Y-89586946D01*
X145619444Y-89588000D01*
X145569703Y-89590048D01*
X145536478Y-89593422D01*
X145515962Y-89598453D01*
X145504345Y-89605470D01*
X145497819Y-89614805D01*
X145494526Y-89622218D01*
X145487404Y-89647760D01*
X145475766Y-89699579D01*
X145460629Y-89772689D01*
X145443012Y-89862102D01*
X145423934Y-89962832D01*
X145414421Y-90014477D01*
X145395172Y-90117961D01*
X145377046Y-90211668D01*
X145361022Y-90290835D01*
X145348078Y-90350695D01*
X145339192Y-90386483D01*
X145336540Y-90393926D01*
X145319128Y-90405762D01*
X145277883Y-90426802D01*
X145218514Y-90454608D01*
X145146728Y-90486745D01*
X145068233Y-90520777D01*
X144988736Y-90554266D01*
X144913945Y-90584777D01*
X144849568Y-90609874D01*
X144801312Y-90627120D01*
X144774885Y-90634079D01*
X144773831Y-90634118D01*
X144756356Y-90625442D01*
X144716552Y-90601121D01*
X144658181Y-90563600D01*
X144585005Y-90515324D01*
X144500786Y-90458741D01*
X144431975Y-90411868D01*
X144341923Y-90350633D01*
X144260088Y-90295862D01*
X144190229Y-90249998D01*
X144136101Y-90215484D01*
X144101462Y-90194766D01*
X144090493Y-90189750D01*
X144073495Y-90200696D01*
X144038530Y-90231000D01*
X143989349Y-90276861D01*
X143929704Y-90334478D01*
X143863347Y-90400049D01*
X143794029Y-90469774D01*
X143725501Y-90539851D01*
X143661517Y-90606479D01*
X143605826Y-90665856D01*
X143562182Y-90714183D01*
X143534334Y-90747657D01*
X143525875Y-90761822D01*
X143533157Y-90781982D01*
X143555466Y-90821910D01*
X143593499Y-90882679D01*
X143647952Y-90965356D01*
X143719523Y-91071013D01*
X143808908Y-91200717D01*
X143853005Y-91264168D01*
X143893931Y-91324939D01*
X143926960Y-91377804D01*
X143948324Y-91416482D01*
X143954500Y-91433406D01*
X143948496Y-91453613D01*
X143932079Y-91497202D01*
X143907642Y-91558503D01*
X143877580Y-91631846D01*
X143844285Y-91711561D01*
X143810151Y-91791977D01*
X143777573Y-91867423D01*
X143748943Y-91932230D01*
X143726655Y-91980728D01*
X143713103Y-92007245D01*
X143711058Y-92010109D01*
X143693762Y-92015237D01*
X143649673Y-92025175D01*
X143583225Y-92039013D01*
X143498857Y-92055843D01*
X143401004Y-92074753D01*
X143334867Y-92087244D01*
X143229852Y-92107083D01*
X143134621Y-92125412D01*
X143053832Y-92141309D01*
X142992144Y-92153848D01*
X142954213Y-92162105D01*
X142944776Y-92164628D01*
X142937804Y-92172369D01*
X142932401Y-92191832D01*
X142928387Y-92226372D01*
X142925583Y-92279349D01*
X142923808Y-92354119D01*
X142922883Y-92454040D01*
X142922626Y-92577369D01*
X142922773Y-92701546D01*
X142923381Y-92797641D01*
X142924696Y-92869323D01*
X142926966Y-92920259D01*
X142930437Y-92954119D01*
X142935356Y-92974569D01*
X142941970Y-92985278D01*
X142950407Y-92989878D01*
X142977921Y-92996267D01*
X143027875Y-93006321D01*
X143091427Y-93018292D01*
X143121063Y-93023652D01*
X143275748Y-93051601D01*
X143401658Y-93075163D01*
X143501377Y-93094919D01*
X143577488Y-93111446D01*
X143632576Y-93125326D01*
X143669225Y-93137138D01*
X143690018Y-93147461D01*
X143695489Y-93152521D01*
X143706377Y-93173541D01*
X143726297Y-93217977D01*
X143752973Y-93280236D01*
X143784128Y-93354722D01*
X143817486Y-93435843D01*
X143850772Y-93518003D01*
X143881708Y-93595608D01*
X143908018Y-93663066D01*
X143927427Y-93714781D01*
X143937657Y-93745159D01*
X143938670Y-93750157D01*
X143930030Y-93766231D01*
X143905827Y-93804547D01*
X143868600Y-93861265D01*
X143820887Y-93932541D01*
X143765226Y-94014533D01*
X143732250Y-94062650D01*
X143673069Y-94149963D01*
X143620515Y-94229872D01*
X143577159Y-94298273D01*
X143545572Y-94351061D01*
X143528324Y-94384131D01*
X143525875Y-94392211D01*
X143536917Y-94411920D01*
X143568288Y-94450660D01*
X143617356Y-94505535D01*
X143681488Y-94573649D01*
X143758053Y-94652104D01*
X143802142Y-94696260D01*
X143888387Y-94781747D01*
X143955231Y-94847101D01*
X144005625Y-94894740D01*
X144042520Y-94927080D01*
X144068868Y-94946536D01*
X144087621Y-94955526D01*
X144101729Y-94956466D01*
X144114145Y-94951771D01*
X144114203Y-94951740D01*
X144137758Y-94937185D01*
X144182915Y-94907578D01*
X144245170Y-94865936D01*
X144320017Y-94815278D01*
X144402952Y-94758622D01*
X144424271Y-94743979D01*
X144507133Y-94687630D01*
X144581877Y-94637997D01*
X144644329Y-94597754D01*
X144690317Y-94569575D01*
X144715669Y-94556134D01*
X144718572Y-94555375D01*
X144740498Y-94562311D01*
X144783369Y-94580989D01*
X144840113Y-94608209D01*
X144879963Y-94628386D01*
X144943670Y-94659292D01*
X144994701Y-94680181D01*
X145027235Y-94688838D01*
X145035235Y-94687490D01*
X145044591Y-94669817D01*
X145064376Y-94626492D01*
X145092981Y-94561243D01*
X145128796Y-94477799D01*
X145170214Y-94379887D01*
X145215624Y-94271234D01*
X145232928Y-94229509D01*
X145283728Y-94106837D01*
X145334832Y-93983573D01*
X145383793Y-93865602D01*
X145428167Y-93758812D01*
X145465510Y-93669090D01*
X145493377Y-93602322D01*
X145495231Y-93597892D01*
X145524942Y-93525325D01*
X145549499Y-93462300D01*
X145566532Y-93415122D01*
X145573671Y-93390098D01*
X145573750Y-93388941D01*
X145561618Y-93370044D01*
X145529520Y-93339537D01*
X145483910Y-93303422D01*
X145474532Y-93296624D01*
X145336046Y-93182168D01*
X145227545Y-93057860D01*
X145148577Y-92922884D01*
X145098692Y-92776427D01*
X145077437Y-92617676D01*
X145076550Y-92578937D01*
X145089778Y-92420169D01*
X145131240Y-92274295D01*
X145201967Y-92138736D01*
X145302988Y-92010913D01*
X145303779Y-92010067D01*
X145422469Y-91905131D01*
X145554822Y-91826804D01*
X145696936Y-91775247D01*
X145844906Y-91750619D01*
X145994830Y-91753082D01*
X146142804Y-91782797D01*
X146284925Y-91839925D01*
X146417289Y-91924626D01*
X146462275Y-91962326D01*
X146572755Y-92081335D01*
X146654556Y-92213928D01*
X146707452Y-92359589D01*
X146731212Y-92517806D01*
X146732625Y-92569336D01*
X146721306Y-92727940D01*
X146686177Y-92870139D01*
X146625478Y-92999237D01*
X146537453Y-93118536D01*
X146420342Y-93231338D01*
X146351265Y-93285641D01*
X146301214Y-93325174D01*
X146262933Y-93360033D01*
X146242404Y-93384576D01*
X146240500Y-93390112D01*
X146246385Y-93409610D01*
X146263103Y-93454860D01*
X146289251Y-93522320D01*
X146323426Y-93608444D01*
X146364224Y-93709689D01*
X146410242Y-93822510D01*
X146448933Y-93916453D01*
X146500552Y-94041353D01*
X146550429Y-94162197D01*
X146596714Y-94274495D01*
X146637560Y-94373757D01*
X146671118Y-94455492D01*
X146695540Y-94515211D01*
X146705399Y-94539500D01*
X146735425Y-94612830D01*
X146759286Y-94659631D01*
X146783503Y-94682481D01*
X146814598Y-94683956D01*
X146859091Y-94666633D01*
X146923504Y-94633089D01*
X146931482Y-94628841D01*
X146992533Y-94597421D01*
X147044335Y-94572709D01*
X147079746Y-94558011D01*
X147090155Y-94555375D01*
X147108659Y-94563988D01*
X147149304Y-94588141D01*
X147208126Y-94625302D01*
X147281159Y-94672940D01*
X147364439Y-94728524D01*
X147413443Y-94761750D01*
X147500102Y-94820510D01*
X147578054Y-94872760D01*
X147643476Y-94915988D01*
X147692544Y-94947678D01*
X147721435Y-94965319D01*
X147727396Y-94968125D01*
X147741307Y-94957390D01*
X147774436Y-94927222D01*
X147823585Y-94880675D01*
X147885557Y-94820801D01*
X147957156Y-94750654D01*
X148013503Y-94694874D01*
X148089897Y-94617840D01*
X148158130Y-94546944D01*
X148215098Y-94485583D01*
X148257700Y-94437150D01*
X148282835Y-94405042D01*
X148288376Y-94394024D01*
X148279663Y-94373468D01*
X148255245Y-94331039D01*
X148217700Y-94270822D01*
X148169607Y-94196899D01*
X148113547Y-94113355D01*
X148082467Y-94067993D01*
X148023402Y-93981589D01*
X147970915Y-93903274D01*
X147927573Y-93837009D01*
X147895948Y-93786756D01*
X147878609Y-93756474D01*
X147876092Y-93749908D01*
X147881761Y-93727351D01*
X147897661Y-93681305D01*
X147921495Y-93617456D01*
X147950964Y-93541487D01*
X147983771Y-93459085D01*
X148017619Y-93375934D01*
X148050210Y-93297719D01*
X148079248Y-93230125D01*
X148102433Y-93178838D01*
X148117469Y-93149542D01*
X148120304Y-93145614D01*
X148141187Y-93136911D01*
X148188634Y-93123922D01*
X148257915Y-93107725D01*
X148344299Y-93089395D01*
X148443056Y-93070006D01*
X148496171Y-93060147D01*
X148599337Y-93040853D01*
X148692510Y-93022454D01*
X148770966Y-93005962D01*
X148829985Y-92992390D01*
X148864844Y-92982748D01*
X148871782Y-92979682D01*
X148878691Y-92958952D01*
X148884275Y-92912230D01*
X148888546Y-92844740D01*
X148891519Y-92761707D01*
X148893205Y-92668357D01*
X148893619Y-92569914D01*
X148892773Y-92471603D01*
X148890679Y-92378649D01*
X148887352Y-92296278D01*
X148882805Y-92229713D01*
X148877049Y-92184180D01*
X148870100Y-92164903D01*
X148869742Y-92164731D01*
X148848465Y-92159541D01*
X148800612Y-92149526D01*
X148730832Y-92135605D01*
X148643775Y-92118696D01*
X148544091Y-92099720D01*
X148479349Y-92087573D01*
X148374884Y-92067622D01*
X148280837Y-92048787D01*
X148201718Y-92032041D01*
X148142032Y-92018359D01*
X148106289Y-92008716D01*
X148098126Y-92005187D01*
X148086113Y-91984378D01*
X148064970Y-91940051D01*
X148037135Y-91878023D01*
X148005047Y-91804110D01*
X147971144Y-91724131D01*
X147937866Y-91643901D01*
X147907649Y-91569238D01*
X147882933Y-91505960D01*
X147866156Y-91459882D01*
X147859757Y-91436823D01*
X147859750Y-91436539D01*
X147868432Y-91415925D01*
X147892779Y-91373361D01*
X147930242Y-91312902D01*
X147978273Y-91238604D01*
X148034324Y-91154523D01*
X148068195Y-91104780D01*
X148128058Y-91016789D01*
X148181910Y-90936241D01*
X148227088Y-90867233D01*
X148260932Y-90813859D01*
X148280780Y-90780214D01*
X148284763Y-90771611D01*
X148281278Y-90755585D01*
X148263529Y-90728131D01*
X148229713Y-90687193D01*
X148178028Y-90630712D01*
X148106671Y-90556632D01*
X148016957Y-90466017D01*
X147939883Y-90389623D01*
X147869500Y-90321329D01*
X147809091Y-90264203D01*
X147761941Y-90221316D01*
X147731335Y-90195734D01*
X147721270Y-90189750D01*
X147703154Y-90198437D01*
X147662876Y-90222835D01*
X147604285Y-90260443D01*
X147531229Y-90308763D01*
X147447557Y-90365296D01*
X147387725Y-90406349D01*
X147298752Y-90467358D01*
X147217556Y-90522265D01*
X147148062Y-90568478D01*
X147094192Y-90603405D01*
X147059869Y-90624456D01*
X147049864Y-90629481D01*
X147028277Y-90625755D01*
X146983353Y-90611778D01*
X146920922Y-90589846D01*
X146846812Y-90562252D01*
X146766854Y-90531292D01*
X146686877Y-90499261D01*
X146612710Y-90468452D01*
X146550183Y-90441162D01*
X146505125Y-90419684D01*
X146483634Y-90406584D01*
X146475616Y-90386418D01*
X146463036Y-90339476D01*
X146446904Y-90270238D01*
X146428228Y-90183186D01*
X146408018Y-90082800D01*
X146392571Y-90002056D01*
X146372281Y-89894954D01*
X146353457Y-89798072D01*
X146336995Y-89715829D01*
X146323793Y-89652644D01*
X146314746Y-89612939D01*
X146311219Y-89601212D01*
X146293236Y-89596971D01*
X146247389Y-89593263D01*
X146177560Y-89590228D01*
X146087632Y-89588008D01*
X145981490Y-89586743D01*
X145905848Y-89586500D01*
X145783708Y-89586556D01*
D13*
X157193500Y-101553000D02*
X157893500Y-101553000D01*
X157893500Y-100353000D02*
X157193500Y-100353000D01*
X158243500Y-99827000D02*
X156343500Y-99827000D01*
X156843500Y-97507000D02*
X158243500Y-97507000D01*
X160635500Y-113891000D02*
X160635500Y-111891000D01*
X163595500Y-111891000D02*
X163595500Y-113891000D01*
X169719500Y-108021000D02*
X167719500Y-108021000D01*
X167719500Y-105061000D02*
X169719500Y-105061000D01*
X148951500Y-110843000D02*
X148951500Y-108843000D01*
X151911500Y-108843000D02*
X151911500Y-110843000D01*
%LPC*%
D15*
X165798500Y-90031000D03*
D16*
X167068500Y-90031000D03*
X168338500Y-90031000D03*
X169608500Y-90031000D03*
X170878500Y-90031000D03*
D17*
X159829500Y-112903000D03*
X159829500Y-114403000D03*
D18*
X156793500Y-105525000D03*
X158293500Y-105525000D03*
X164413500Y-110605000D03*
X165913500Y-110605000D03*
X151181500Y-98921000D03*
X149681500Y-98921000D03*
X169723500Y-101715000D03*
X168223500Y-101715000D03*
X169723500Y-104255000D03*
X168223500Y-104255000D03*
X169723500Y-99175000D03*
X168223500Y-99175000D03*
X167207500Y-109081000D03*
X168707500Y-109081000D03*
X165659500Y-105779000D03*
X164159500Y-105779000D03*
X142569500Y-96381000D03*
X144069500Y-96381000D03*
D19*
X166771500Y-112449000D03*
X166771500Y-113399000D03*
X166771500Y-114349000D03*
X164571500Y-114349000D03*
X164571500Y-112449000D03*
X164571500Y-113399000D03*
D20*
X158289500Y-112576000D03*
X158289500Y-114476000D03*
X156289500Y-113526000D03*
D21*
X161365500Y-90285000D03*
X162865500Y-90285000D03*
X162865500Y-93904500D03*
X161365500Y-93904500D03*
D22*
X152971500Y-94615000D03*
X152971500Y-96115000D03*
D21*
X162865500Y-95619000D03*
X161365500Y-95619000D03*
D22*
X154749500Y-94615000D03*
X154749500Y-96115000D03*
D21*
X158317500Y-110859000D03*
X159817500Y-110859000D03*
X161365500Y-100699000D03*
X162865500Y-100699000D03*
X161365500Y-103239000D03*
X162865500Y-103239000D03*
X168707500Y-110732000D03*
X167207500Y-110732000D03*
D22*
X168719500Y-113704500D03*
X168719500Y-112204500D03*
D21*
X146863500Y-100445000D03*
X145363500Y-100445000D03*
X145847500Y-105017000D03*
X144347500Y-105017000D03*
X148387500Y-103239000D03*
X146887500Y-103239000D03*
X153936000Y-105525000D03*
X155436000Y-105525000D03*
X148387500Y-105017000D03*
X146887500Y-105017000D03*
X146863500Y-96381000D03*
X145363500Y-96381000D03*
D23*
X151381500Y-95985000D03*
X151381500Y-97285000D03*
X149481500Y-96635000D03*
X151381500Y-96635000D03*
X149481500Y-97285000D03*
X149481500Y-95985000D03*
X156593500Y-103889000D03*
X156593500Y-102589000D03*
X158493500Y-103239000D03*
X156593500Y-103239000D03*
X158493500Y-102589000D03*
X158493500Y-103889000D03*
D20*
X152987500Y-110285000D03*
X152987500Y-108385000D03*
X154987500Y-109335000D03*
D24*
X151320500Y-114034000D03*
D25*
X153860500Y-114034000D03*
D18*
X156793500Y-100953000D03*
X158293500Y-100953000D03*
D23*
X156593500Y-99317000D03*
X156593500Y-98017000D03*
X158493500Y-98667000D03*
X156593500Y-98667000D03*
X158493500Y-98017000D03*
X158493500Y-99317000D03*
D24*
X165163500Y-93079000D03*
D25*
X167703500Y-93079000D03*
X170243500Y-93079000D03*
D24*
X165163500Y-95619000D03*
D25*
X167703500Y-95619000D03*
X170243500Y-95619000D03*
D24*
X165163500Y-100699000D03*
D25*
X167703500Y-100699000D03*
X170243500Y-100699000D03*
D24*
X165163500Y-103239000D03*
D25*
X167703500Y-103239000D03*
X170243500Y-103239000D03*
D24*
X165163500Y-98159000D03*
D25*
X167703500Y-98159000D03*
X170243500Y-98159000D03*
D26*
X162115500Y-111391000D03*
X162115500Y-114391000D03*
D27*
X167219500Y-106541000D03*
X170219500Y-106541000D03*
D26*
X150431500Y-108343000D03*
X150431500Y-111343000D03*
M02*
