M48
;DRILL file {KiCad 4.0.5-e0-6337~49~ubuntu14.04.1} date Thu Mar  2 13:58:36 2017
;FORMAT={-:-/ absolute / inch / decimal}
FMAT,2
INCH,TZ
T1C0.010
T2C0.012
T3C0.026
T4C0.039
%
G90
G05
M72
T1
X5.4275Y-4.5095
X5.4875Y-3.6845
X5.5125Y-3.8045
X5.53Y-4.1395
X5.7Y-3.952
X5.7025Y-3.7945
X5.82Y-4.067
X5.82Y-4.132
X5.855Y-3.7795
X5.855Y-3.8295
X5.945Y-4.182
X5.975Y-4.182
X6.085Y-4.187
X6.115Y-4.057
X6.115Y-3.972
X6.1565Y-3.7362
X6.19Y-3.752
X6.275Y-3.617
X6.2757Y-3.9924
X6.29Y-3.6492
X6.2967Y-3.852
X6.31Y-3.992
X6.33Y-3.5545
X6.34Y-4.457
X6.37Y-3.627
X6.38Y-3.8145
X6.41Y-4.332
X6.43Y-4.332
X6.4475Y-4.502
X6.5225Y-4.1945
X6.5975Y-4.402
X6.6025Y-4.5145
X6.6425Y-4.4395
T2
X5.505Y-3.992
X5.505Y-4.076
X5.515Y-4.282
X5.515Y-4.3045
X5.655Y-3.912
X5.655Y-3.992
X5.655Y-4.072
X5.655Y-4.232
X5.655Y-4.392
X5.655Y-4.472
X5.675Y-3.833
X5.745Y-3.872
X5.845Y-3.872
X5.924Y-4.341
X5.955Y-4.342
X5.975Y-3.712
X5.985Y-4.342
X6.015Y-3.872
X6.032Y-4.09
X6.125Y-4.112
X6.18Y-4.512
X6.205Y-4.552
X6.235Y-4.552
X6.265Y-3.592
X6.325Y-4.252
X6.355Y-4.137
X6.355Y-4.222
X6.371Y-4.155
X6.445Y-3.532
X6.445Y-3.552
X6.465Y-3.532
X6.465Y-3.552
X6.465Y-4.552
X6.495Y-4.552
X6.525Y-4.432
X6.525Y-4.462
X6.525Y-4.492
X6.525Y-4.522
X6.525Y-4.552
X6.555Y-4.552
X6.585Y-4.552
X6.625Y-4.192
X6.625Y-4.222
T3
X6.5275Y-3.5445
X6.5775Y-3.5445
X6.6275Y-3.5445
X6.6775Y-3.5445
X6.7275Y-3.5445
T4
X5.9575Y-4.4895
X6.0575Y-4.4895
X6.5025Y-3.6645
X6.5025Y-3.7645
X6.5025Y-3.8645
X6.5025Y-3.9645
X6.5025Y-4.0645
X6.6025Y-3.6645
X6.6025Y-3.7645
X6.6025Y-3.8645
X6.6025Y-3.9645
X6.6025Y-4.0645
X6.7025Y-3.6645
X6.7025Y-3.7645
X6.7025Y-3.8645
X6.7025Y-3.9645
X6.7025Y-4.0645
T0
M30
